<svg xmlns="http://www.w3.org/2000/svg" width="1920" height="746" viewBox="0 0 1920 746" fill="none"><g opacity="0.1" clip-path="url(#clip0_17_108)"><path d="M1529.03 535.071C1571.7 642.364 1499.88 771.841 1368.33 824.161C1236.78 876.481 1095.65 831.7 1052.97 724.407C1010.3 617.114 1082.13 487.637 1213.68 435.317C1345.23 382.997 1486.36 427.778 1529.03 535.071Z" stroke="url(#paint0_linear_17_108)"></path><path d="M1507.65 574.403C1539.48 654.451 1485.91 751.091 1387.7 790.151C1289.49 829.21 1184.17 795.766 1152.33 715.718C1120.5 635.671 1174.08 539.031 1272.29 499.971C1370.5 460.911 1475.81 494.356 1507.65 574.403Z" stroke="url(#paint1_linear_17_108)"></path><path d="M1543.33 490.568C1595.78 622.439 1507.49 781.538 1345.87 845.821C1184.24 910.104 1010.8 855.095 958.352 723.223C905.904 591.351 994.186 432.252 1155.81 367.97C1317.44 303.687 1490.88 358.696 1543.33 490.568Z" stroke="url(#paint2_linear_17_108)"></path><path d="M1567.36 421.148C1634.37 589.619 1521.58 792.828 1315.16 874.923C1108.74 957.019 887.2 886.781 820.196 718.31C753.192 549.839 865.981 346.631 1072.4 264.535C1278.81 182.44 1500.36 252.678 1567.36 421.148Z" stroke="url(#paint3_linear_17_108)"></path><path d="M1603.25 351.84C1685.72 559.21 1546.89 809.301 1292.87 910.329C1038.85 1011.36 766.171 924.933 683.696 717.563C601.221 510.193 740.059 260.102 994.078 159.074C1248.1 58.0455 1520.77 144.47 1603.25 351.84Z" stroke="url(#paint4_linear_17_108)"></path><path d="M1638.3 282.524C1736.19 528.633 1571.41 825.411 1269.98 945.294C968.558 1065.18 644.962 962.632 547.08 716.524C449.199 470.415 613.976 173.636 915.401 53.7541C1216.83 -66.1282 1540.42 36.4155 1638.3 282.524Z" stroke="url(#paint5_linear_17_108)"></path><path d="M1681.62 213.285C1795.55 499.736 1603.76 845.135 1252.96 984.653C902.17 1124.17 525.546 1004.84 411.62 718.389C297.693 431.938 489.485 86.5382 840.279 -52.9789C1191.07 -192.496 1567.7 -73.1657 1681.62 213.285Z" stroke="url(#paint6_linear_17_108)"></path><path d="M1734.85 144.139C1865.59 472.856 1645.49 869.195 1242.98 1029.28C840.461 1189.37 408.281 1052.45 277.544 723.737C146.808 395.02 366.902 -1.31914 769.418 -161.407C1171.93 -321.495 1604.11 -184.578 1734.85 144.139Z" stroke="url(#paint7_linear_17_108)"></path><path d="M1778.2 74.9001C1924.98 443.964 1677.87 888.931 1225.98 1068.66C774.086 1248.38 288.871 1094.68 142.087 725.611C-4.6963 356.547 242.416 -88.4196 694.307 -268.145C1146.2 -447.871 1631.41 -294.164 1778.2 74.9001Z" stroke="url(#paint8_linear_17_108)"></path><path d="M1816.33 5.61269C1978.75 414.012 1705.3 906.385 1205.27 1105.25C705.248 1304.12 168.329 1134.05 5.90097 725.652C-156.527 317.253 116.925 -175.12 616.952 -373.99C1116.98 -572.86 1653.9 -402.786 1816.33 5.61269Z" stroke="url(#paint9_linear_17_108)"></path><path d="M1348 563C1229.33 433.667 1006.4 133.4 1064 -33" stroke="url(#paint10_linear_17_108)"></path><path d="M1454.77 588.223C1367.97 435.661 1217.7 93.2031 1310.99 -56.138" stroke="url(#paint11_linear_17_108)"></path><path d="M1501.6 655.899C1508.58 462.464 1565.12 47.0794 1735.46 -66.9758" stroke="url(#paint12_linear_17_108)"></path><path d="M1475.45 708.522C1543.7 558.333 1719.75 259.179 1877.97 264.083" stroke="url(#paint13_linear_17_108)"></path><path d="M1261 615C978.333 408.333 345 -5.8 73 -9" stroke="url(#paint14_linear_17_108)"></path><path d="M1253 715C853 577.667 28.2 322.2 -71 399" stroke="url(#paint15_linear_17_108)"></path><path d="M1413 715C1569 653.667 1887.4 549.4 1913 623" stroke="url(#paint16_linear_17_108)"></path></g><defs><linearGradient id="paint0_linear_17_108" x1="1213.49" y1="434.852" x2="1368.51" y2="824.626" gradientUnits="userSpaceOnUse"><stop stop-color="#BDE05A"></stop><stop offset="1" stop-color="#C243E2" stop-opacity="0"></stop></linearGradient><linearGradient id="paint1_linear_17_108" x1="1272.1" y1="499.506" x2="1387.88" y2="790.615" gradientUnits="userSpaceOnUse"><stop stop-color="#BDE05A"></stop><stop offset="1" stop-color="#C243E2" stop-opacity="0"></stop></linearGradient><linearGradient id="paint2_linear_17_108" x1="1155.63" y1="367.505" x2="1346.05" y2="846.286" gradientUnits="userSpaceOnUse"><stop stop-color="#BDE05A"></stop><stop offset="1" stop-color="#C243E2" stop-opacity="0"></stop></linearGradient><linearGradient id="paint3_linear_17_108" x1="1072.21" y1="264.071" x2="1315.34" y2="875.388" gradientUnits="userSpaceOnUse"><stop stop-color="#BDE05A"></stop><stop offset="1" stop-color="#C243E2" stop-opacity="0"></stop></linearGradient><linearGradient id="paint4_linear_17_108" x1="993.893" y1="158.609" x2="1293.05" y2="910.794" gradientUnits="userSpaceOnUse"><stop stop-color="#BDE05A"></stop><stop offset="1" stop-color="#C243E2" stop-opacity="0"></stop></linearGradient><linearGradient id="paint5_linear_17_108" x1="915.217" y1="53.2895" x2="1270.17" y2="945.758" gradientUnits="userSpaceOnUse"><stop stop-color="#BDE05A"></stop><stop offset="1" stop-color="#C243E2" stop-opacity="0"></stop></linearGradient><linearGradient id="paint6_linear_17_108" x1="840.094" y1="-53.4435" x2="1253.15" y2="985.117" gradientUnits="userSpaceOnUse"><stop stop-color="#BDE05A"></stop><stop offset="1" stop-color="#C243E2" stop-opacity="0"></stop></linearGradient><linearGradient id="paint7_linear_17_108" x1="769.233" y1="-161.872" x2="1243.16" y2="1029.75" gradientUnits="userSpaceOnUse"><stop stop-color="#BDE05A"></stop><stop offset="1" stop-color="#C243E2" stop-opacity="0"></stop></linearGradient><linearGradient id="paint8_linear_17_108" x1="694.123" y1="-268.61" x2="1226.16" y2="1069.12" gradientUnits="userSpaceOnUse"><stop stop-color="#BDE05A"></stop><stop offset="1" stop-color="#C243E2" stop-opacity="0"></stop></linearGradient><linearGradient id="paint9_linear_17_108" x1="616.767" y1="-374.455" x2="1205.46" y2="1105.72" gradientUnits="userSpaceOnUse"><stop stop-color="#BDE05A"></stop><stop offset="1" stop-color="#C243E2" stop-opacity="0"></stop></linearGradient><linearGradient id="paint10_linear_17_108" x1="1201.33" y1="-33" x2="1201.33" y2="563" gradientUnits="userSpaceOnUse"><stop stop-color="#89A637"></stop><stop offset="1" stop-color="#2E608E" stop-opacity="0"></stop></linearGradient><linearGradient id="paint11_linear_17_108" x1="1444.86" y1="-25.479" x2="1311.8" y2="555.479" gradientUnits="userSpaceOnUse"><stop stop-color="#89A637"></stop><stop offset="1" stop-color="#2E608E" stop-opacity="0"></stop></linearGradient><linearGradient id="paint12_linear_17_108" x1="1840.85" y1="21.0737" x2="1389.04" y2="561.862" gradientUnits="userSpaceOnUse"><stop stop-color="#89A637"></stop><stop offset="1" stop-color="#2E608E" stop-opacity="0"></stop></linearGradient><linearGradient id="paint13_linear_17_108" x1="1923.95" y1="393.486" x2="1426.34" y2="570.321" gradientUnits="userSpaceOnUse"><stop stop-color="#89A637"></stop><stop offset="1" stop-color="#2E608E" stop-opacity="0"></stop></linearGradient><linearGradient id="paint14_linear_17_108" x1="667" y1="-9" x2="667" y2="615" gradientUnits="userSpaceOnUse"><stop stop-color="#89A637"></stop><stop offset="1" stop-color="#2E608E" stop-opacity="0"></stop></linearGradient><linearGradient id="paint15_linear_17_108" x1="591" y1="384.894" x2="591" y2="715" gradientUnits="userSpaceOnUse"><stop stop-color="#89A637"></stop><stop offset="1" stop-color="#2E608E" stop-opacity="0"></stop></linearGradient><linearGradient id="paint16_linear_17_108" x1="1663" y1="597.686" x2="1663" y2="715" gradientUnits="userSpaceOnUse"><stop stop-color="#89A637"></stop><stop offset="1" stop-color="#2E608E" stop-opacity="0"></stop></linearGradient><clipPath id="clip0_17_108"><rect width="1920" height="746" fill="white"></rect></clipPath></defs></svg>