<svg xmlns="http://www.w3.org/2000/svg" width="111" height="37" viewBox="0 0 111 37" fill="none"><g clip-path="url(#clip0_56_695)"><path d="M5.38336 15.1894C5.38336 15.7754 5.70936 16.2374 6.35136 16.5784C6.99536 16.9184 7.78136 17.2124 8.70836 17.4584C9.63436 17.7024 10.5654 17.9934 11.5044 18.3204C12.4444 18.6484 13.2344 19.2104 13.8804 19.9924C14.5234 20.7784 14.8474 21.7684 14.8474 22.9624C14.8474 24.6514 14.1944 25.9744 12.8954 26.9364C11.5924 27.8984 9.96036 28.3794 7.98936 28.3794C6.25436 28.3794 4.76636 28.0164 3.52536 27.2894C2.28436 26.5654 1.37836 25.5544 0.818359 24.2644L4.08436 22.3624C4.69336 24.0514 5.99536 24.8934 7.98936 24.8934C9.98236 24.8934 10.9794 24.2384 10.9794 22.9264C10.9794 22.3624 10.6534 21.9074 10.0104 21.5544C9.36736 21.2004 8.58036 20.9044 7.65436 20.6594C6.71125 20.4079 5.77822 20.12 4.85736 19.7964C3.93149 19.4785 3.11019 18.9135 2.48236 18.1624C1.83836 17.3954 1.51436 16.4314 1.51436 15.2554C1.51436 13.6384 2.12836 12.3354 3.36436 11.3504C4.59436 10.3664 6.12136 9.87439 7.95136 9.87439C9.40636 9.87439 10.6994 10.1994 11.8394 10.8414C12.9546 11.4646 13.864 12.3994 14.4564 13.5314L11.2564 15.3264C10.6464 13.9904 9.54636 13.3204 7.95036 13.3204C7.22336 13.3204 6.61336 13.4794 6.12336 13.7934C5.63336 14.1134 5.38336 14.5794 5.38336 15.1904L5.38336 15.1894Z" fill="#161617"></path><path d="M37.9014 10.3334L41.9103 10.3334L36.3883 27.9174L32.6593 27.9174L29.0003 16.0654L25.3093 27.9174L21.5803 27.9174L16.0583 10.3334L20.0683 10.3334L23.4783 22.4644L27.1703 10.3344L30.7934 10.3344L34.4533 22.4644L37.9014 10.3344L37.9014 10.3334Z" fill="#161617"></path><path d="M74.7154 9.87539C77.1284 9.87539 79.1934 10.7734 80.9024 12.5654C82.6114 14.3594 83.4684 16.5444 83.4684 19.1234C83.4684 21.7254 82.6114 23.9154 80.9024 25.6994C79.1914 27.4834 77.1244 28.3704 74.7154 28.3704C72.0454 28.3704 69.9914 27.3854 68.5614 25.4144L68.5614 34.9444L64.7634 34.9444L64.7634 10.3344L68.5614 10.3344L68.5614 12.8644C69.9954 10.8744 72.0444 9.87439 74.7154 9.87439L74.7154 9.87539ZM70.1454 23.1534C71.2024 24.2204 72.5274 24.7524 74.1184 24.7524C75.7114 24.7524 77.0384 24.2204 78.0924 23.1534C79.1504 22.0864 79.6744 20.7434 79.6744 19.1254C79.6744 17.5084 79.1484 16.1684 78.0924 15.0974C77.0384 14.0304 75.7134 13.4984 74.1184 13.4984C72.5244 13.4984 71.1984 14.0304 70.1444 15.0974C69.0914 16.1644 68.5634 17.5074 68.5634 19.1254C68.5634 20.7424 69.0914 22.0864 70.1444 23.1534L70.1454 23.1534Z" fill="#161617"></path><path d="M90.3824 27.5654C90.1413 27.8147 89.8517 28.0119 89.5315 28.1448C89.2112 28.2778 88.8671 28.3437 88.5204 28.3384C88.1737 28.3434 87.8296 28.2774 87.5094 28.1445C87.1892 28.0116 86.8995 27.8145 86.6584 27.5654C86.4081 27.3248 86.2101 27.0354 86.0764 26.7151C85.9427 26.3948 85.8763 26.0504 85.8814 25.7034C85.8814 24.9764 86.1314 24.3554 86.6354 23.8404C87.1414 23.3224 87.7694 23.0634 88.5164 23.0634C89.2434 23.0634 89.8644 23.3224 90.3794 23.8404C90.8954 24.3574 91.1524 24.9764 91.1524 25.7034C91.1584 26.0499 91.0932 26.394 90.9607 26.7143C90.8283 27.0346 90.6314 27.3243 90.3824 27.5654V27.5654Z" fill="#161617"></path><path d="M108.816 10.3334L108.816 27.9174L105.014 27.9174L105.014 13.9914L99.1785 13.9914L99.1785 27.9214L95.3804 27.9214L95.3804 13.9914L92.7104 13.9914L92.7104 10.3334L95.3804 10.3334L95.3804 9.97936C95.3824 5.22336 98.0275 2.84436 103.33 2.84436C104.571 2.84436 105.87 2.99736 107.234 3.29936L107.234 6.78136C105.942 6.59083 104.637 6.49723 103.33 6.50136C101.922 6.50136 100.878 6.75936 100.2 7.27336C99.5195 7.79036 99.1824 8.69436 99.1824 9.98036L99.1824 10.3344L108.818 10.3344L108.818 10.3324L108.816 10.3324L108.816 10.3334Z" fill="#161617"></path><path fill-rule="evenodd" clip-rule="evenodd" d="M61.7644 21.1884C61.9984 20.3714 62.1244 19.5084 62.1244 18.6164C62.1244 13.4794 57.9614 9.31641 52.8244 9.31641C51.1588 9.31585 49.5236 9.76282 48.0899 10.6106C46.6562 11.4583 45.4765 12.6757 44.6744 14.1354L47.5944 16.6004C47.9765 15.61 48.632 14.7484 49.4846 14.1158C50.3372 13.4833 51.3518 13.1058 52.4106 13.0272C53.4693 12.9486 54.5285 13.1722 55.4651 13.672C56.4017 14.1718 57.1772 14.9272 57.7014 15.8504L55.9394 16.2964L58.5264 18.4494L61.7644 21.1884V21.1884ZM60.8104 23.3854C59.6688 25.302 57.8763 26.7443 55.7598 27.4492C53.6434 28.1542 51.344 28.0748 49.2812 27.2256C47.2184 26.3763 45.5296 24.8139 44.5229 22.8231C43.5162 20.8324 43.2587 18.5462 43.7974 16.3814L46.5524 18.7074L49.2984 20.9934L47.9264 21.3414C48.4308 22.2467 49.1762 22.9945 50.0798 23.5019C50.9835 24.0092 52.0101 24.2563 53.0456 24.2156C54.0811 24.1749 55.0851 23.848 55.9462 23.2713C56.8072 22.6946 57.4916 21.8905 57.9234 20.9484L60.8104 23.3854V23.3854Z" fill="#161617"></path><path fill-rule="evenodd" clip-rule="evenodd" d="M61.7643 21.1884C61.9983 20.3714 62.1243 19.5084 62.1243 18.6164C62.1243 13.4794 57.9613 9.31641 52.8243 9.31641C51.1587 9.31585 49.5236 9.76282 48.0898 10.6106C46.6561 11.4583 45.4765 12.6757 44.6743 14.1354L47.5943 16.6004C47.9765 15.61 48.632 14.7484 49.4846 14.1158C50.3371 13.4833 51.3518 13.1058 52.4105 13.0272C53.4692 12.9486 54.5284 13.1722 55.4651 13.672C56.4017 14.1718 57.1772 14.9272 57.7013 15.8504L55.9393 16.2964L58.5263 18.4494L61.7643 21.1884V21.1884Z" fill="#161617"></path></g><defs><clipPath id="clip0_56_695"><rect width="109.577" height="35.8971" fill="white" transform="translate(0.440674 0.71698)"></rect></clipPath></defs></svg>