<svg xmlns="http://www.w3.org/2000/svg" width="136" height="26" viewBox="0 0 136 26" fill="none"><g clip-path="url(#clip0_56_685)"><path d="M9.47902 9.37191C11.4118 9.37191 12.9669 9.96191 14.1462 11.1399C15.3443 12.3199 15.9433 14.0679 15.9433 16.3859V25.4629H11.4216V17.0929C11.4216 15.8359 11.1502 14.9029 10.6092 14.2929C10.0682 13.6649 9.28623 13.3509 8.26131 13.3509C7.12131 13.3509 6.21344 13.7139 5.53672 14.4409C4.86 15.1479 4.52164 16.2089 4.52164 17.6239V25.4639H0V9.60691H4.31902V11.4639C4.91902 10.7959 5.66262 10.2839 6.5518 9.93091C7.44 9.55791 8.41574 9.37091 9.47902 9.37091V9.37191Z" fill="#161617"></path><path d="M29.2279 22.0149C30.0394 22.0149 30.7545 21.8969 31.3722 21.6609C32.0324 21.3909 32.6335 20.9905 33.1407 20.4829L35.5466 23.1349C34.0781 24.8449 31.9328 25.6989 29.1118 25.6989C27.3531 25.6989 25.7971 25.3549 24.4446 24.6679C23.0922 23.9599 22.0486 22.9879 21.3138 21.7499C20.579 20.5119 20.2122 19.1069 20.2122 17.5359C20.2122 15.9829 20.5702 14.5879 21.2843 13.3509C21.9952 12.1163 23.0289 11.1062 24.2705 10.4329C25.5463 9.72592 26.9754 9.37292 28.561 9.37292C30.0492 9.37292 31.4017 9.69592 32.6194 10.3449C33.8279 10.9651 34.8344 11.927 35.5181 13.1149C36.2518 14.3129 36.6197 15.7379 36.6197 17.3879L25.082 19.6579C25.4105 20.4429 25.923 21.0329 26.6184 21.4259C27.3335 21.8189 28.203 22.0159 29.2279 22.0159V22.0149ZM28.561 12.8499C27.42 12.8499 26.4935 13.2229 25.7774 13.9699C25.0633 14.7159 24.6856 15.7479 24.6472 17.0639L32.2426 15.5609C32.0506 14.7666 31.5882 14.0669 30.9374 13.5859C30.2804 13.0959 29.4886 12.8499 28.561 12.8499Z" fill="#161617"></path><path d="M56.5299 9.60793V25.4629H52.2404V23.5769C51.6478 24.26 50.9156 24.8033 50.0951 25.1689C49.2404 25.5271 48.3236 25.7074 47.3991 25.6989C45.3502 25.6989 43.7273 25.0989 42.5292 23.9009C41.3312 22.7029 40.7312 20.9249 40.7312 18.5669V9.60693H45.2538V17.8889C45.2538 20.4429 46.3063 21.7209 48.4132 21.7209C49.4951 21.7209 50.3656 21.3669 51.0227 20.6599C51.6797 19.9329 52.0082 18.8619 52.0082 17.4469V9.60693H56.5299V9.60793Z" fill="#161617"></path><path d="M71.2713 24.697C70.8267 25.031 70.2758 25.2869 69.6188 25.463C68.9639 25.6222 68.2925 25.7015 67.6191 25.699C65.7444 25.699 64.3044 25.2179 63.2991 24.255C62.2949 23.292 61.7922 21.878 61.7922 20.011V6.10095H66.3139V9.96095H70.1696V13.498H66.3139V19.952C66.3139 20.62 66.4781 21.141 66.8067 21.514C67.1352 21.868 67.6093 22.044 68.228 22.044C68.9234 22.044 69.5421 21.848 70.0831 21.455L71.2713 24.697Z" fill="#161617"></path><path d="M79.3044 11.6999C79.8453 10.9339 80.5693 10.3549 81.4781 9.96195C82.4057 9.56895 83.469 9.37195 84.667 9.37195V13.6159C84.3293 13.5856 83.9908 13.5659 83.6519 13.5569C82.3575 13.5569 81.3424 13.9299 80.6086 14.6769C79.8739 15.4039 79.507 16.5039 79.507 17.9769V25.4629H74.9854V9.60795H79.3034V11.6999H79.3044Z" fill="#161617"></path><path d="M88.5146 9.60791H93.0373V25.4629H88.5146V9.60791Z" fill="#161617"></path><path d="M107.873 9.37191C109.805 9.37191 111.361 9.96191 112.539 11.1399C113.737 12.3199 114.337 14.0679 114.337 16.3859V25.4629H109.815V17.0929C109.815 15.8359 109.544 14.9029 109.003 14.2929C108.462 13.6649 107.679 13.3509 106.655 13.3509C105.515 13.3509 104.607 13.7139 103.93 14.4409C103.254 15.1479 102.916 16.2089 102.916 17.6239V25.4639H98.3931V9.60691H102.713V11.4639C103.312 10.7959 104.056 10.2839 104.945 9.93091C105.834 9.55791 106.81 9.37091 107.873 9.37091V9.37191Z" fill="#161617"></path><path d="M127.186 25.6999C125.544 25.6999 124.065 25.3549 122.751 24.6679C121.457 23.9599 120.442 22.9879 119.708 21.7499C118.973 20.5119 118.606 19.1069 118.606 17.5359C118.606 15.9639 118.973 14.5589 119.708 13.3209C120.442 12.0839 121.457 11.1209 122.751 10.4329C124.065 9.72592 125.544 9.37292 127.186 9.37292C128.829 9.37292 130.297 9.72592 131.593 10.4329C132.887 11.1209 133.902 12.0829 134.636 13.3209C135.371 14.5589 135.738 15.9639 135.738 17.5359C135.738 19.1069 135.371 20.5119 134.636 21.7499C133.902 22.9879 132.887 23.9599 131.593 24.6679C130.297 25.3549 128.829 25.6989 127.186 25.6989V25.6999ZM127.186 21.9269C128.346 21.9269 129.293 21.5339 130.027 20.7469C130.78 19.9419 131.158 18.8719 131.158 17.5359C131.158 16.1999 130.78 15.1389 130.027 14.3529C129.293 13.5469 128.346 13.1439 127.186 13.1439C126.027 13.1439 125.07 13.5469 124.316 14.3529C123.563 15.1389 123.186 16.1999 123.186 17.5359C123.186 18.8719 123.563 19.9419 124.316 20.7479C125.07 21.5339 126.027 21.9269 127.186 21.9269Z" fill="#161617"></path><path d="M90.7455 0.779968L94.372 4.46697L90.7455 8.15297L87.1189 4.46697L90.7455 0.779968Z" fill="#161617"></path></g><defs><clipPath id="clip0_56_685"><rect width="136" height="26" fill="white"></rect></clipPath></defs></svg>