<svg xmlns="http://www.w3.org/2000/svg" width="112" height="30" viewBox="0 0 112 30" fill="none"><g clip-path="url(#clip0_321_1565)"><path d="M111.918 20.5226C111.8 20.5183 111.847 20.6101 111.84 20.6643C111.752 21.3113 111.674 21.961 111.444 22.5765C111.222 23.1321 110.893 23.6388 110.477 24.0682C109.632 25 108.483 25.6004 107.235 25.7618C105.624 25.9847 104.175 25.5581 102.93 24.5045C102.357 24.02 101.891 23.4223 101.561 22.7488C101.231 22.0753 101.044 21.3407 101.011 20.5913C100.979 19.842 101.102 19.094 101.373 18.3946C101.644 17.6952 102.057 17.0596 102.586 16.5277C103.723 15.405 105.094 14.8201 106.696 14.9093C108.619 15.0151 110.106 15.9139 111.161 17.5323C111.23 17.6381 111.223 17.7072 111.103 17.7702C110.508 18.0686 109.915 18.3697 109.323 18.6734C109.218 18.7276 109.169 18.7049 109.099 18.6078C108.35 17.5411 107.318 17.034 106.028 17.2193C104.71 17.4082 103.804 18.1811 103.428 19.4629C103.304 19.875 103.265 20.3084 103.315 20.7361C103.365 21.1637 103.502 21.5765 103.718 21.9489C103.935 22.3212 104.225 22.645 104.572 22.9003C104.919 23.1555 105.314 23.3367 105.734 23.4325C106.372 23.5797 107.04 23.5293 107.649 23.2881C108.258 23.0468 108.78 22.626 109.144 22.0816C109.167 22.0475 109.213 22.0152 109.179 21.9688C109.145 21.9225 109.087 21.9417 109.04 21.9417H106.688C106.443 21.9417 106.443 21.9417 106.443 21.6934C106.443 21.3078 106.443 20.9222 106.443 20.5366C106.443 20.395 106.486 20.3373 106.636 20.3382C108.323 20.3417 110.009 20.3417 111.695 20.3382C111.777 20.3382 111.838 20.416 111.92 20.374L111.918 20.5226Z" fill="white"></path><path d="M18.2609 0.175781C18.2242 0.263217 18.2609 0.358521 18.2609 0.449454C18.2609 3.91307 18.2609 7.37639 18.2609 10.8394C18.2609 11.0187 18.2128 11.0799 18.031 11.0702C17.752 11.0563 17.4714 11.0606 17.1916 11.0702C17.0578 11.0702 17.0115 11.0257 17.0228 10.8954C17.0298 10.8211 17.0228 10.7459 17.0228 10.6715V0.469565C17.0228 0.371637 17.0228 0.273709 17.0228 0.175781H18.2609Z" fill="white"></path><path d="M23.0778 0.175781V0.636566C23.0778 4.0448 23.0778 7.45479 23.0778 10.8665C23.0778 11.0187 23.0402 11.0807 22.8801 11.0737C22.6126 11.0633 22.345 11.0685 22.0775 11.0737C21.9507 11.0737 21.8904 11.0292 21.9026 10.8989C21.907 10.8368 21.9026 10.7747 21.9026 10.7126C21.9026 7.30323 21.9026 3.89325 21.9026 0.48268C21.9011 0.377796 21.9198 0.273605 21.9577 0.175781H23.0778Z" fill="white"></path><path d="M20.5386 0.175372C20.5946 0.241425 20.6222 0.326884 20.6155 0.413197C20.6155 3.90304 20.6155 7.39259 20.6155 10.8819C20.6155 11.0191 20.5753 11.0725 20.4354 11.069C20.1679 11.062 19.9003 11.0628 19.6328 11.069C19.5209 11.069 19.4702 11.0296 19.4754 10.9177C19.4754 10.874 19.4754 10.8303 19.4754 10.7874C19.4754 7.37802 19.4754 3.96803 19.4754 0.557466C19.4754 0.428935 19.485 0.300405 19.4903 0.171875L20.5386 0.175372Z" fill="white"></path><path d="M2.86876 2.4491C3.03139 2.18155 3.29894 2.02504 3.53677 1.84317C4.38083 1.18773 5.34588 0.705202 6.37667 0.423224C6.70367 0.329902 7.03756 0.262658 7.37519 0.222122C7.41191 0.222122 7.45038 0.216876 7.46874 0.175781H15.3484C15.3161 0.510659 15.3406 0.846411 15.3336 1.18129C15.3283 1.47682 15.3231 1.48294 15.0302 1.48294C12.8583 1.48294 10.6864 1.47857 8.51535 1.48294C7.00564 1.46761 5.5332 1.95177 4.32718 2.86005C3.16707 3.72257 2.2808 4.90183 1.77494 6.25604C1.45492 7.09773 1.27762 7.98692 1.25033 8.88697C1.18838 10.2444 1.4724 11.5953 2.07572 12.8128C2.85564 14.3762 4.03865 15.5356 5.64659 16.235C6.37502 16.5597 7.15953 16.74 7.95663 16.7658C10.3025 16.8261 12.6475 16.7763 14.9934 16.792C15.275 16.792 15.275 16.792 15.275 17.0657C15.275 17.3525 15.2697 17.6384 15.275 17.9243C15.275 18.0633 15.2409 18.1263 15.087 18.1263C12.7105 18.1219 10.3331 18.1438 7.95663 18.1105C6.92155 18.0841 5.90408 17.8367 4.97246 17.3848C4.06846 16.9647 3.24701 16.3861 2.547 15.6763C1.76931 14.8857 1.14967 13.9538 0.721343 12.9309C0.387923 12.1352 0.160396 11.2991 0.0445921 10.4442C0.0445654 10.4287 0.0404224 10.4135 0.0325872 10.4001C0.0247519 10.3868 0.0135058 10.3757 0 10.3681L0 8.05371C0.0778176 7.88409 0.0874355 7.69523 0.114541 7.52036C0.273854 6.63441 0.559164 5.77583 0.961791 4.97074C1.36301 4.16496 1.87933 3.42184 2.49454 2.76474C2.57605 2.66166 2.67976 2.57828 2.79794 2.5208C2.80843 2.57938 2.76821 2.61261 2.73236 2.64671C2.54437 2.8277 2.3695 3.0218 2.199 3.21941C1.73012 3.76797 1.33316 4.37413 1.01775 5.0232C0.67568 5.71805 0.421895 6.45297 0.262307 7.21084C0.150682 7.75659 0.076191 8.30928 0.039346 8.86511C0.0104923 9.26557 0.0594562 9.66777 0.0926816 10.0708C0.145758 10.6379 0.246668 11.1995 0.394334 11.7496C0.927376 13.7724 2.1779 15.5323 3.91274 16.7011C4.51272 17.1007 5.16348 17.4183 5.84769 17.6454C6.8427 17.9759 7.87444 18.0511 8.91405 18.0546C9.62315 18.0546 10.3331 18.0546 11.0422 18.0546C12.3538 18.0546 13.6653 18.0546 14.9821 18.0546C15.1569 18.0546 15.2147 18.0047 15.2033 17.8325C15.1902 17.634 15.2033 17.4347 15.2033 17.2353C15.2033 16.8856 15.2033 16.8856 14.8623 16.8856C12.7528 16.8856 10.6432 16.8856 8.53371 16.8856C8.00008 16.8855 7.46781 16.8316 6.945 16.7247C6.23196 16.5796 5.54738 16.3191 4.91825 15.9535C3.96351 15.4016 3.14599 14.6409 2.52689 13.7283C2.18926 13.2379 1.91019 12.7097 1.69537 12.1544C1.48505 11.6051 1.33609 11.0342 1.2512 10.4521C1.17155 9.90858 1.14228 9.3589 1.16377 8.81003C1.17924 8.33935 1.23777 7.87107 1.33864 7.41106C1.48735 6.72678 1.72547 6.06504 2.04687 5.44289C2.80737 3.95359 4.03621 2.75548 5.54429 2.03291C6.51395 1.57562 7.54918 1.38414 8.6124 1.37627C10.6846 1.35966 12.7568 1.37102 14.8291 1.3719C14.8913 1.37014 14.9535 1.37277 15.0153 1.37977C15.2243 1.4095 15.2348 1.4025 15.2356 1.18566C15.2356 0.93647 15.2234 0.686404 15.2356 0.438962C15.2479 0.252724 15.1972 0.19764 15.0022 0.198514C12.9544 0.206384 10.9067 0.198514 8.85897 0.203761C7.90509 0.195325 6.95556 0.333331 6.04354 0.612958C5.0969 0.917564 4.21345 1.39158 3.43622 2.01193C3.2491 2.15707 3.09172 2.34505 2.86876 2.4491Z" fill="white"></path><path d="M42.9413 20.3759C42.9413 18.6962 42.9413 17.0166 42.9413 15.3361C42.9413 15.1612 42.9912 15.1035 43.1722 15.1035C44.8781 15.1105 46.5822 15.1035 48.2881 15.1114C48.88 15.1044 49.4662 15.2286 50.0044 15.4751C50.8097 15.859 51.1892 16.5243 51.2513 17.3882C51.2836 17.835 51.2722 18.2853 51.0825 18.7076C50.8741 19.1568 50.5309 19.53 50.1006 19.7752C50.0508 19.8058 49.9677 19.8154 49.9703 19.8924C49.9729 19.9693 50.0578 19.9667 50.1128 19.9859C50.5883 20.1562 51.0007 20.4671 51.2953 20.8774C51.5898 21.2877 51.7526 21.7779 51.7619 22.2829C51.7741 22.8005 51.768 23.3146 51.5477 23.8016C51.2189 24.5282 50.6584 25.0021 49.9327 25.295C49.3481 25.5243 48.7245 25.6378 48.0966 25.629C46.4904 25.6229 44.885 25.629 43.2797 25.629C42.9046 25.629 42.9466 25.6587 42.9475 25.3064C42.9463 23.662 42.9443 22.0185 42.9413 20.3759ZM46.7125 23.8191C46.9861 23.8191 47.2607 23.8191 47.5344 23.8191C47.8278 23.8247 48.121 23.7983 48.4087 23.7404C48.922 23.6189 49.2909 23.3417 49.4064 22.804C49.4625 22.5227 49.4559 22.2325 49.3871 21.9541C49.3475 21.7683 49.2631 21.595 49.1412 21.4493C49.0193 21.3036 48.8636 21.1899 48.6876 21.1182C48.3431 20.9608 47.9759 20.9495 47.6104 20.9433C46.8952 20.9328 46.1791 20.9433 45.463 20.9363C45.3021 20.9363 45.2628 20.9932 45.2645 21.1436C45.2698 21.9716 45.2706 22.7987 45.2645 23.6267C45.2645 23.7902 45.3222 23.8252 45.4709 23.8226C45.8783 23.8138 46.2954 23.82 46.7125 23.8191ZM45.2593 18.1358V18.9227C45.2593 19.3651 45.2593 19.3695 45.7034 19.3643C46.4493 19.3555 47.196 19.4001 47.9409 19.324C48.2215 19.2965 48.4851 19.1772 48.6911 18.9848C48.984 18.7172 49.0076 18.3675 48.998 18.0055C48.9992 17.821 48.9485 17.6399 48.8517 17.4829C48.7549 17.3258 48.616 17.1991 48.4507 17.1172C48.08 16.9108 47.6638 16.9292 47.2677 16.9143C46.6556 16.8916 46.0488 16.9143 45.4385 16.9056C45.296 16.9056 45.2549 16.9598 45.2566 17.0935C45.2628 17.4398 45.2593 17.7887 45.2593 18.1367V18.1358Z" fill="white"></path><path d="M21.9183 13.3457C20.313 13.3457 18.7077 13.3457 17.1024 13.35C16.91 13.35 16.8506 13.2941 16.8611 13.107C16.8751 12.8525 16.8724 12.5963 16.8611 12.3419C16.8532 12.1749 16.9162 12.1312 17.077 12.1312C19.3865 12.1353 21.6954 12.1353 24.0037 12.1312C24.7189 12.1312 25.4341 12.1355 26.1502 12.1312C27.6821 12.1189 29.123 12.4643 30.4529 13.2294C31.4918 13.8267 32.3936 14.6357 33.0996 15.6041C33.5779 16.2483 33.9671 16.9542 34.2563 17.7026C34.8002 19.126 35.0153 20.5932 34.8063 22.1128C34.558 23.9306 33.7737 25.4957 32.5732 26.8667C31.585 28.0035 30.3322 28.8797 28.9254 29.418C27.7103 29.8921 26.402 30.0788 25.1027 29.9636C23.8161 29.8643 22.5625 29.5075 21.4165 28.9144C20.5078 28.4447 19.6924 27.8133 19.0102 27.0512C18.2078 26.1623 17.6139 25.1054 17.272 23.9577C17.0348 23.1255 16.9225 22.2627 16.9389 21.3976C16.9389 20.6885 16.9433 19.9794 16.9389 19.2703C16.9389 19.0954 16.9765 19.022 17.168 19.0333C17.4476 19.0486 17.7278 19.0486 18.0074 19.0333C18.1822 19.0255 18.2294 19.0945 18.2277 19.2615C18.2198 19.9208 18.2277 20.5809 18.2233 21.2402C18.2163 22.1216 18.2898 22.9889 18.5783 23.8318C19.1641 25.5333 20.2553 26.8177 21.8047 27.7192C23.1354 28.493 24.5816 28.8252 26.1109 28.7815C27.5062 28.7391 28.8595 28.2943 30.0079 27.5006C31.467 26.5355 32.575 25.1247 33.1669 23.4786C33.4415 22.7371 33.5893 21.9547 33.6041 21.1641C33.6162 20.4984 33.5418 19.8338 33.3829 19.1872C33.0814 17.9303 32.4786 16.7656 31.6263 15.7938C30.8334 14.8756 29.8187 14.1754 28.6788 13.7601C27.9913 13.4999 27.2638 13.3612 26.5288 13.35C24.9917 13.3448 23.4546 13.35 21.9175 13.35L21.9183 13.3457Z" fill="white"></path><path d="M90.7782 20.3541C90.7782 18.6623 90.7782 16.9695 90.7782 15.2776C90.7782 15.1159 90.8193 15.0634 90.9872 15.0652C91.7449 15.0739 92.5027 15.0739 93.2605 15.0652C93.3244 15.0611 93.3883 15.0747 93.445 15.1045C93.5017 15.1342 93.5492 15.179 93.5823 15.2339C95.0354 17.2741 96.4909 19.3142 97.9488 21.3544C97.9803 21.399 98.0074 21.4724 98.0686 21.4567C98.149 21.4357 98.1149 21.3518 98.1149 21.2958C98.1149 19.2982 98.1149 17.3009 98.1149 15.3038C98.1149 15.0695 98.1149 15.0695 98.3554 15.0695C98.88 15.0695 99.4046 15.0695 99.9231 15.0695C100.064 15.0695 100.117 15.1036 100.117 15.2584C100.113 18.6555 100.113 22.0524 100.117 25.449C100.117 25.6125 100.058 25.6484 99.91 25.6466C99.3854 25.6405 98.852 25.6387 98.3239 25.6466C98.2598 25.6521 98.1955 25.6398 98.138 25.6111C98.0804 25.5824 98.0319 25.5384 97.9978 25.484C97.0651 24.1719 96.1278 22.8621 95.1858 21.5546L92.7638 18.1717C92.7324 18.128 92.7053 18.0589 92.6406 18.0843C92.5759 18.1097 92.6126 18.1717 92.6126 18.2172C92.6126 20.6129 92.6126 23.0084 92.6126 25.4035C92.6126 25.6475 92.6126 25.6466 92.3651 25.6466C91.9044 25.6466 91.4436 25.6396 90.9837 25.651C90.8158 25.651 90.7729 25.5994 90.7738 25.4376C90.7799 23.7388 90.7782 22.0469 90.7782 20.3541Z" fill="white"></path><path d="M80.4678 7.51995C80.3515 4.7054 82.8635 2.03338 85.9395 2.04299C88.9473 2.05261 91.4567 4.5384 91.448 7.59077C91.4384 10.5496 88.8669 13.1683 85.6842 13.0406C82.9921 12.9348 80.3279 10.4928 80.4678 7.51995ZM82.6756 7.54356C82.6248 9.29227 84.1454 10.7787 85.846 10.8206C87.6821 10.8652 89.2455 9.33424 89.2219 7.51033C89.2 5.7555 87.7276 4.29358 85.9623 4.26735C84.1462 4.24112 82.6205 5.83682 82.6756 7.54531V7.54356Z" fill="#888888"></path><path d="M53.3357 20.3825C53.3357 18.7029 53.3357 17.0232 53.3357 15.3436C53.3357 15.1687 53.3803 15.1049 53.5648 15.1049C55.1762 15.1119 56.7885 15.0918 58.3991 15.1154C59.4719 15.1303 60.4101 15.5001 61.0991 16.364C61.4707 16.8291 61.6499 17.3773 61.7242 17.9579C61.8228 18.6451 61.7287 19.3461 61.4523 19.9829C61.2818 20.3923 61.0204 20.7576 60.6879 21.051C60.3554 21.3444 59.9605 21.5583 59.5331 21.6765C59.3469 21.7316 59.3748 21.7858 59.4614 21.9091C60.2897 23.0895 61.1157 24.2716 61.9393 25.4555C61.9725 25.5045 62.0469 25.5429 62.004 25.6138C61.9717 25.6662 61.9008 25.6417 61.8475 25.6417C61.1008 25.6417 60.3541 25.6417 59.6074 25.6417C59.5493 25.6463 59.4911 25.6347 59.4392 25.6081C59.3874 25.5816 59.3439 25.5412 59.3136 25.4914C58.5267 24.3547 57.7214 23.218 56.9337 22.0814C56.8174 21.9118 56.695 21.8392 56.4912 21.8575C56.2875 21.8727 56.0829 21.8727 55.8792 21.8575C55.7157 21.847 55.6658 21.9013 55.6667 22.0665C55.6737 23.1804 55.6667 24.2935 55.6746 25.4074C55.6746 25.5823 55.6326 25.647 55.4464 25.6444C54.8186 25.6339 54.1899 25.6348 53.5613 25.6444C53.3864 25.6444 53.3383 25.5928 53.3392 25.4197C53.3357 23.7418 53.3357 22.0621 53.3357 20.3825ZM55.6545 18.4782C55.6545 18.8891 55.6545 19.2992 55.6545 19.7101C55.6545 20.1211 55.6099 20.0669 56.0147 20.0599C56.6801 20.0529 57.3463 20.0966 58.01 20.0354C58.4533 19.9952 58.8782 19.8806 59.1554 19.4968C59.5663 18.9285 59.5558 18.3024 59.297 17.6895C59.0723 17.1605 58.5844 16.99 58.0493 16.948C57.3114 16.8921 56.5708 16.9104 55.8311 16.9034C55.6842 16.9034 55.6562 16.9682 55.6562 17.0958C55.6536 17.5583 55.6518 18.0182 55.6527 18.4782H55.6545Z" fill="white"></path><path d="M48.4393 9.13162C48.3959 9.19926 48.3803 9.28097 48.3955 9.35983C48.3955 10.5044 48.3912 11.6489 48.3955 12.7934C48.3955 12.9683 48.3501 13.0295 48.1656 13.026C47.5684 13.0146 46.9712 13.0164 46.374 13.026C46.2053 13.026 46.1642 12.9709 46.1642 12.8109C46.1677 9.29716 46.1677 5.78255 46.1642 2.26706C46.1642 2.1088 46.2105 2.04672 46.3775 2.04759C47.6095 2.05284 48.8415 2.03448 50.0734 2.05459C50.9486 2.0685 51.7928 2.3804 52.4668 2.93881C53.1407 3.49721 53.6042 4.26874 53.7805 5.12603C53.9569 5.98332 53.8357 6.87513 53.4369 7.65424C53.0381 8.43334 52.3855 9.05317 51.5869 9.41141C51.4479 9.47437 51.4269 9.53382 51.5179 9.66148C52.2611 10.7189 53.0016 11.7777 53.7396 12.838C53.7702 12.8817 53.8366 12.9185 53.806 12.9814C53.7754 13.0444 53.695 13.0208 53.6373 13.0208C52.8906 13.0208 52.1439 13.0208 51.3972 13.026C51.3211 13.0326 51.2447 13.0176 51.1767 12.9826C51.1088 12.9477 51.0522 12.8942 51.0134 12.8284C50.3961 11.9331 49.7718 11.043 49.1492 10.1511L48.4393 9.13162ZM48.3947 5.91137C48.3947 6.39664 48.3947 6.8819 48.3947 7.36717C48.3947 7.4957 48.4314 7.54204 48.5643 7.54204C49.0306 7.53505 49.4969 7.53505 49.9633 7.54204C50.1873 7.54961 50.4104 7.50921 50.6176 7.42356C50.8248 7.33791 51.0113 7.20898 51.1646 7.04541C51.6298 6.56539 51.7767 5.91487 51.5397 5.3308C51.4223 5.02411 51.2151 4.75994 50.9453 4.57277C50.6755 4.3856 50.3555 4.28412 50.0271 4.28157C49.5418 4.28157 49.0566 4.28157 48.5713 4.28157C48.4288 4.28157 48.3912 4.33054 48.3964 4.46606C48.3947 4.94084 48.3903 5.4261 48.3903 5.91137H48.3947Z" fill="#888888"></path><path d="M68.0344 20.3351C68.0344 18.6554 68.0344 16.9758 68.0344 15.2962C68.0344 15.1213 68.0746 15.0645 68.26 15.0645C70.6744 15.0714 73.0885 15.0714 75.5023 15.0645C75.6955 15.0645 75.7445 15.116 75.7401 15.304C75.727 15.8077 75.7314 16.3122 75.7401 16.8158C75.7401 16.9671 75.7016 17.0195 75.5416 17.0186C73.8804 17.0125 72.2191 17.0186 70.5578 17.0143C70.3182 17.0143 70.3182 17.0143 70.3182 17.2495C70.3182 17.8842 70.3182 18.519 70.3182 19.1529C70.3182 19.3147 70.3655 19.368 70.5316 19.3672C71.9813 19.361 73.4309 19.3672 74.8806 19.3593C75.0555 19.3593 75.1097 19.4065 75.1071 19.5805C75.0975 20.134 75.0983 20.6883 75.1071 21.2418C75.1071 21.3974 75.0572 21.4437 74.9025 21.4429C73.4467 21.4376 71.9909 21.4429 70.5351 21.4359C70.3751 21.4359 70.3156 21.4744 70.3182 21.6431C70.3281 22.2464 70.3281 22.8497 70.3182 23.453C70.3182 23.6191 70.369 23.6637 70.5325 23.6637C72.3616 23.6576 74.1908 23.6637 76.0199 23.655C76.214 23.655 76.2621 23.7136 76.2577 23.8989C76.2455 24.3903 76.2472 24.8817 76.2577 25.3731C76.2577 25.548 76.2184 25.6101 76.0295 25.6101C73.4356 25.6036 70.8417 25.6036 68.2478 25.6101C68.0729 25.6101 68.0432 25.5471 68.044 25.3932C68.0405 23.7069 68.0373 22.0208 68.0344 20.3351Z" fill="white"></path><path d="M64.015 7.53695V2.29082C64.015 2.04687 64.015 2.04688 64.2633 2.04688C65.421 2.04688 66.5777 2.04688 67.7354 2.04688C68.7164 2.04688 69.6039 2.31618 70.3479 2.96757C71.0474 3.57962 71.5231 4.32632 71.6595 5.2645C71.8553 6.63724 71.4715 7.80975 70.4441 8.7523C69.8272 9.33212 69.0279 9.67927 68.1831 9.7342C67.5981 9.77704 67.014 9.74906 66.4343 9.75344C66.2857 9.75344 66.2429 9.79803 66.2437 9.94492C66.2499 10.8971 66.2437 11.8484 66.2507 12.8006C66.2507 12.9754 66.2053 13.0261 66.0295 13.0235C65.432 13.013 64.8349 13.013 64.238 13.0235C64.0631 13.0235 64.0185 12.9667 64.0185 12.7988C64.0191 11.0454 64.0179 9.29149 64.015 7.53695ZM66.2402 5.9054C66.2402 6.38367 66.2464 6.86719 66.2402 7.34109C66.2402 7.50023 66.2901 7.54132 66.4422 7.53782C66.9082 7.52908 67.3752 7.52383 67.8412 7.53782C68.6281 7.56143 69.3145 6.89605 69.4517 6.26301C69.6668 5.26887 68.9149 4.28785 67.8954 4.2756C67.404 4.26948 66.9126 4.2756 66.4221 4.2756C66.2831 4.2756 66.2385 4.3167 66.2402 4.45572C66.2437 4.93574 66.2402 5.42014 66.2402 5.9054Z" fill="#888888"></path><path d="M21.6385 15.5497C20.1259 15.5497 18.6141 15.5497 17.1015 15.5497C16.9205 15.5497 16.8619 15.4998 16.8715 15.3197C16.8855 15.0469 16.8785 14.7724 16.8715 14.4987C16.8715 14.3789 16.9126 14.3238 17.035 14.3335C17.0718 14.3335 17.1094 14.3335 17.147 14.3335C19.9414 14.3335 22.7358 14.3335 25.5303 14.3335C26.3285 14.3183 27.1244 14.4239 27.891 14.6465C29.0045 14.9827 30.0071 15.612 30.7939 16.4686C31.4956 17.2239 32.0093 18.1339 32.2934 19.1249C32.6431 20.3228 32.6807 21.5259 32.3004 22.7264C31.7225 24.5494 30.6015 25.9615 28.9988 26.9819C28.0545 27.5834 27.0141 27.9297 25.8809 27.9297C24.8568 27.9333 23.8468 27.6907 22.9361 27.2223C21.3342 26.4057 20.1976 25.158 19.5943 23.4547C19.3921 22.8716 19.2945 22.2575 19.3057 21.6404C19.3127 20.8439 19.3057 20.0474 19.3057 19.2508C19.3057 19.0926 19.3477 19.0279 19.5173 19.0349C19.8024 19.048 20.09 19.0462 20.376 19.0349C20.536 19.0287 20.5788 19.0908 20.5771 19.2412C20.5718 19.9407 20.5858 20.6402 20.5771 21.3318C20.5508 22.6206 20.9119 23.78 21.7469 24.7654C22.6991 25.8924 23.9022 26.5639 25.3851 26.7021C26.8899 26.842 28.1324 26.2649 29.2157 25.2804C30.0138 24.5599 30.6176 23.6499 30.9714 22.6346C31.3073 21.6778 31.3488 20.6423 31.0903 19.6618C30.8427 18.6207 30.2905 17.6771 29.5042 16.9513C28.7514 16.2528 27.8079 15.7939 26.7937 15.6327C26.3752 15.5714 25.9523 15.5447 25.5294 15.5532L21.6385 15.5497Z" fill="white"></path><path d="M41.5712 13.0275C39.8006 13.0433 38.4524 12.3674 37.3524 11.1451C36.7235 10.4654 36.2979 9.62298 36.124 8.71347C35.8966 7.48937 35.9884 6.27751 36.5507 5.13648C36.7604 4.71243 37.0272 4.3191 37.3437 3.96747C38.0537 3.17268 38.8904 2.5685 39.9265 2.27821C40.8428 2.01018 41.813 1.98487 42.742 2.20477C43.6587 2.42054 44.5058 2.86515 45.2041 3.49706C45.3965 3.67194 45.3939 3.67194 45.2146 3.84681C44.7923 4.26912 44.3674 4.68881 43.9503 5.1155C43.8533 5.2143 43.7921 5.2108 43.688 5.12074C42.8784 4.40639 41.9463 4.15021 40.8726 4.3277C39.6293 4.53318 38.4183 5.69257 38.2452 7.12564C38.0126 9.04922 39.443 10.5925 41.0676 10.7813C42.0783 10.8985 42.9597 10.6257 43.7116 9.94019C43.7947 9.865 43.8498 9.86325 43.9285 9.94019C44.3796 10.3949 44.8317 10.8495 45.289 11.2981C45.4 11.4074 45.3353 11.4598 45.2549 11.535C44.3184 12.4312 42.9011 13.0861 41.5712 13.0275Z" fill="#888888"></path><path d="M77.6095 20.3543C77.6095 18.6685 77.6095 16.9819 77.6095 15.2962C77.6095 15.1213 77.6541 15.0645 77.8377 15.0645C80.2585 15.0714 82.6793 15.0714 85.1001 15.0645C85.2749 15.0645 85.3239 15.1125 85.3213 15.2839C85.3108 15.7945 85.3125 16.3043 85.3213 16.8149C85.3213 16.9662 85.2819 17.0186 85.121 17.0178C83.4598 17.0116 81.7985 17.0178 80.1372 17.0134C79.9029 17.0134 79.9029 17.0134 79.9029 17.2547C79.9029 17.8834 79.9073 18.5112 79.9029 19.1398C79.9029 19.3077 79.9466 19.3672 80.1241 19.3672C81.5677 19.3602 83.0095 19.3672 84.4557 19.3584C84.6384 19.3584 84.6944 19.4126 84.6909 19.591C84.6833 20.1319 84.6833 20.6732 84.6909 21.2147C84.6909 21.3817 84.6463 21.4437 84.4697 21.4429C83.0252 21.4359 81.5843 21.4429 80.1381 21.435C79.9632 21.435 79.9012 21.4726 79.902 21.6606C79.9099 22.9109 79.902 24.1612 79.9108 25.4124C79.9108 25.5934 79.8513 25.6319 79.6861 25.6293C79.074 25.6214 78.4532 25.6197 77.8377 25.6293C77.6628 25.6293 77.6147 25.5856 77.6156 25.4116C77.6121 23.7267 77.6095 22.0409 77.6095 20.3543Z" fill="white"></path><path d="M11.5013 14.5707H15.01C15.2549 14.5707 15.2549 14.5707 15.2549 14.8234C15.2549 15.097 15.2505 15.3716 15.2549 15.6452C15.2549 15.7904 15.219 15.8551 15.0546 15.8551C12.8399 15.8498 10.6243 15.8551 8.40954 15.8498C6.99834 15.8498 5.75763 15.362 4.66818 14.4789C3.54631 13.584 2.72897 12.3638 2.32841 10.9858C1.92719 9.65223 1.98569 8.22251 2.49453 6.92617C2.89977 5.84389 3.55532 4.87285 4.40762 4.09238C5.37641 3.19792 6.49995 2.60598 7.81761 2.43111C8.0706 2.40108 8.32529 2.38764 8.58004 2.39089C10.7397 2.39089 12.8985 2.39089 15.0573 2.38477C15.2496 2.38477 15.3073 2.44072 15.2968 2.62871C15.2811 2.89102 15.2968 3.16294 15.2925 3.4305C15.2925 3.66307 15.282 3.67357 15.0503 3.67357H9.11777C8.83798 3.67357 8.55818 3.67357 8.27839 3.68056C7.25802 3.71029 6.36355 4.08976 5.56789 4.70443C4.45669 5.54638 3.68399 6.75865 3.38987 8.12142C3.16736 9.10621 3.25219 10.1355 3.63294 11.0706C4.1628 12.411 5.05814 13.4366 6.35306 14.0906C6.98168 14.4108 7.67786 14.5757 8.38331 14.5715C9.42292 14.5689 10.4617 14.5715 11.5013 14.5707Z" fill="white"></path><path d="M58.0301 10.553C58.0301 9.8937 58.0152 9.23444 58.0362 8.57605C58.0421 8.27235 57.9627 7.97308 57.8071 7.71219C57.0018 6.2424 56.2053 4.76823 55.4053 3.29582C55.2094 2.93558 55.017 2.57447 54.8107 2.22036C54.7233 2.07522 54.7757 2.04549 54.9121 2.04549C55.6335 2.04549 56.3557 2.04549 57.077 2.04549C57.1291 2.04141 57.1811 2.05372 57.2258 2.08069C57.2705 2.10766 57.3056 2.14794 57.3262 2.19588C57.8508 3.17341 58.3868 4.14831 58.9184 5.12322C58.9578 5.19404 58.9989 5.26312 59.0339 5.33656C59.0548 5.38203 59.0697 5.43624 59.1292 5.43711C59.1886 5.43799 59.2 5.37416 59.2218 5.33307C59.5384 4.75482 59.8537 4.17658 60.1679 3.59834C60.4197 3.13202 60.6712 2.66745 60.9225 2.20462C60.9437 2.15359 60.9805 2.11057 61.0276 2.08168C61.0747 2.05279 61.1297 2.03951 61.1848 2.04374C61.9 2.05161 62.6152 2.04374 63.3305 2.04374C63.5281 2.04374 63.5351 2.05948 63.4459 2.22386C62.6706 3.65022 61.8945 5.07484 61.1175 6.49771C60.8473 6.99434 60.5806 7.49185 60.3043 7.98411C60.2541 8.07651 60.2297 8.18069 60.2335 8.28576C60.2335 9.79141 60.2335 11.2962 60.2378 12.8018C60.2378 12.9714 60.1968 13.0265 60.021 13.0239C59.4235 13.0134 58.8263 13.0134 58.2294 13.0239C58.0598 13.0239 58.0213 12.9706 58.0231 12.8106C58.0345 12.0586 58.0301 11.3058 58.0301 10.553Z" fill="#888888"></path><path d="M77.4889 8.66883C77.4889 10.0503 77.4889 11.4309 77.4889 12.8124C77.4889 12.9759 77.446 13.0275 77.2799 13.0249C76.683 13.0155 76.0855 13.0155 75.4875 13.0249C75.3038 13.0249 75.2409 12.9811 75.2418 12.7862C75.2476 10.0302 75.2476 7.27394 75.2418 4.51739C75.2418 4.27257 75.2418 4.27345 74.9978 4.27345C74.2389 4.27345 73.4799 4.27345 72.7201 4.27345C72.5653 4.27345 72.5155 4.22711 72.5173 4.07147C72.5248 3.46117 72.5248 2.85146 72.5173 2.24232C72.5173 2.08319 72.5715 2.04297 72.7227 2.04297C75.1435 2.04647 77.5643 2.04647 79.9852 2.04297C80.1522 2.04297 80.2142 2.08406 80.2107 2.26243C80.1997 2.85932 80.1997 3.4568 80.2107 4.05486C80.2107 4.23498 80.1487 4.27432 79.9834 4.27345C79.2245 4.26645 78.4655 4.27345 77.7101 4.26645C77.5256 4.26645 77.4792 4.32678 77.4801 4.50253C77.4915 5.89363 77.4889 7.28123 77.4889 8.66883Z" fill="#888888"></path><path d="M21.475 17.5293H17.0884C16.8681 17.5293 16.8611 17.5153 16.8663 17.2968C16.8716 17.0423 16.8663 16.787 16.8663 16.5326C16.8619 16.3883 16.9022 16.3184 17.0657 16.3184C19.965 16.3227 22.8653 16.3184 25.7646 16.3254C27.0395 16.3297 28.0555 16.912 28.8931 17.8354C29.4127 18.4011 29.8009 19.0746 30.0298 19.8079C30.2602 20.5225 30.2778 21.2886 30.0805 22.013C29.7805 23.1681 29.0755 24.1768 28.0939 24.8555C27.154 25.5209 26.11 25.7159 24.9882 25.5069C24.0481 25.349 23.1833 24.8939 22.5208 24.2085C21.844 23.5047 21.4567 22.6697 21.4488 21.6816C21.4427 20.8484 21.4488 20.0143 21.4444 19.181C21.4444 19.0437 21.4855 18.993 21.6263 18.9965C21.9183 19.0052 22.2113 19.0087 22.5007 18.9965C22.6755 18.9886 22.7297 19.0455 22.728 19.2186C22.7201 19.9705 22.7472 20.7242 22.7193 21.4762C22.6659 22.9171 23.7213 23.913 24.8527 24.2348C25.4254 24.3983 26.0016 24.4577 26.5787 24.2732C27.5107 23.9742 28.1481 23.3324 28.5722 22.4756C29.2455 21.1151 28.9307 19.8787 28.0476 18.7351C27.6686 18.2272 27.1427 17.8481 26.5411 17.6491C26.2801 17.5667 26.0077 17.5259 25.734 17.5285L21.475 17.5293Z" fill="white"></path><path d="M11.5581 13.6074C10.5089 13.6074 9.45702 13.6074 8.40255 13.6074C7.38392 13.6074 6.52356 13.2253 5.80396 12.5223C4.9366 11.6733 4.45483 10.639 4.40499 9.42012C4.34029 7.71163 5.00568 6.35988 6.44224 5.4182C6.97843 5.05835 7.60819 4.86322 8.25391 4.85687C10.5386 4.84288 12.8224 4.849 15.1062 4.84375C15.2575 4.84375 15.2995 4.90058 15.2951 5.0431C15.2872 5.32902 15.2837 5.6158 15.2951 5.90172C15.3038 6.08446 15.2348 6.13605 15.0573 6.13605C12.8714 6.1308 10.6855 6.13605 8.4996 6.12905C7.72317 6.12905 7.05517 6.37737 6.51569 6.92821C5.69204 7.78245 5.44285 8.80807 5.6833 9.95435C5.85293 10.7553 6.25863 11.4206 6.94587 11.8919C7.30636 12.1528 7.73582 12.3016 8.18046 12.3195C8.83973 12.3335 9.49986 12.3291 10.1591 12.33H15.0136C15.2496 12.33 15.254 12.3352 15.2549 12.5713C15.2549 12.8388 15.2461 13.1073 15.2549 13.374C15.2619 13.5488 15.2182 13.6144 15.0275 13.6126C13.8734 13.603 12.7157 13.6074 11.5581 13.6074Z" fill="white"></path><path d="M66.3051 20.3715C66.3051 22.0573 66.3051 23.7433 66.3051 25.4297C66.3051 25.5704 66.2744 25.6308 66.1206 25.629C65.4671 25.6226 64.8139 25.6226 64.1611 25.629C64.0133 25.629 63.9705 25.5792 63.9705 25.4332C63.9751 22.0617 63.9751 18.6899 63.9705 15.3178C63.9705 15.1543 64.022 15.1018 64.1856 15.1036C64.8195 15.1106 65.4543 15.1123 66.0891 15.1036C66.2701 15.1036 66.3059 15.17 66.3059 15.3344C66.3033 17.0131 66.3051 18.6928 66.3051 20.3715Z" fill="white"></path><path d="M88.9814 20.3716C88.9814 22.0573 88.9814 23.7431 88.9814 25.4288C88.9814 25.5897 88.9272 25.6299 88.7768 25.6291C88.1298 25.6226 87.4828 25.6226 86.8357 25.6291C86.688 25.6291 86.6451 25.5792 86.646 25.4332C86.6495 22.0617 86.6495 18.6902 86.646 15.3186C86.646 15.1551 86.6958 15.1018 86.8593 15.1036C87.4941 15.1114 88.1289 15.1123 88.7637 15.1036C88.9447 15.1036 88.9805 15.1691 88.9805 15.3335C88.9788 17.0132 88.9814 18.6928 88.9814 20.3716Z" fill="white"></path><path d="M2.86874 2.44867C3.09171 2.34725 3.24909 2.15926 3.4362 2.0115C4.21344 1.39115 5.09689 0.917134 6.04353 0.612528C6.95788 0.334648 7.90951 0.198995 8.86508 0.210324C10.9128 0.210324 12.9606 0.210324 15.0083 0.205078C15.2033 0.205078 15.254 0.259288 15.2418 0.445526C15.226 0.692968 15.2418 0.943034 15.2418 1.19223C15.2418 1.40907 15.2304 1.41606 15.0214 1.38633C14.9596 1.37933 14.8974 1.3767 14.8352 1.37846C12.763 1.37846 10.6907 1.36622 8.61851 1.38283C7.55529 1.3907 6.52005 1.58219 5.55039 2.03948C4.04232 2.76204 2.81348 3.96016 2.05297 5.44946C1.73157 6.07161 1.49345 6.73335 1.34474 7.41764C1.24388 7.87765 1.18534 8.34592 1.16987 8.81661C1.14839 9.36548 1.17766 9.91516 1.25731 10.4586C1.34072 11.0381 1.48762 11.6067 1.69536 12.154C1.91017 12.7093 2.18924 13.2375 2.52687 13.7279C3.14462 14.6421 3.96126 15.4046 4.91561 15.9583C5.54474 16.324 6.22933 16.5844 6.94237 16.7295C7.46518 16.8365 7.99744 16.8904 8.53107 16.8904C10.64 16.8951 12.7495 16.8951 14.8597 16.8904C15.2007 16.8904 15.2007 16.8904 15.2007 17.2401C15.2007 17.4395 15.1902 17.6389 15.2007 17.8373C15.212 18.0122 15.1526 18.0603 14.9794 18.0594C13.6679 18.0533 12.3564 18.0594 11.0396 18.0594C10.3305 18.0594 9.62052 18.0594 8.91142 18.0594C7.87181 18.0594 6.84007 17.9807 5.84505 17.6502C5.16148 17.4213 4.51161 17.1019 3.91273 16.7007C2.17789 15.5319 0.92736 13.772 0.394317 11.7492C0.246651 11.1991 0.14574 10.6375 0.0926645 10.0704C0.0594389 9.66735 0.010475 9.26865 0.0393288 8.86469C0.0761738 8.30886 0.150665 7.75617 0.26229 7.21041C0.422018 6.45315 0.675801 5.71882 1.01773 5.02453C1.33165 4.37508 1.72714 3.76833 2.19462 3.21898C2.36512 3.02138 2.53999 2.82727 2.72797 2.64628C2.76382 2.61218 2.80404 2.57895 2.79355 2.52037L2.86874 2.44867Z" fill="white"></path></g><defs><clipPath id="clip0_321_1565"><rect width="111.917" height="30" fill="white"></rect></clipPath></defs></svg>