<svg xmlns="http://www.w3.org/2000/svg" width="57" height="56" viewBox="0 0 57 56" fill="none"><path d="M50.2201 22.4999C50.6235 21.3231 50.7097 20.0607 50.4701 18.8399C50.098 16.9778 49.0308 15.3272 47.4853 14.2238C45.9398 13.1204 44.0321 12.6471 42.1501 12.8999C41.4845 8.98877 39.3352 5.48536 36.1501 3.11993C34.3438 1.77443 32.2714 0.829606 30.071 0.348497C27.8707 -0.132611 25.593 -0.138941 23.3901 0.32993C19.8686 1.08368 16.7142 3.02737 14.4576 5.83395C12.201 8.64054 10.98 12.1387 11.0001 15.7399V16.4399C7.92666 17.0364 5.15346 18.6758 3.1492 21.0809C1.14494 23.486 0.0325549 26.5093 5.94071e-05 29.6399V29.8299C-0.00520035 31.6023 0.338854 33.3583 1.01256 34.9977C1.68626 36.637 2.67641 38.1276 3.92642 39.3841C5.17643 40.6406 6.66179 41.6384 8.29762 42.3206C9.93345 43.0028 11.6877 43.356 13.4601 43.3599H17.0001C17.2504 43.3609 17.492 43.268 17.6772 43.0995C17.8623 42.9311 17.9775 42.6993 18.0001 42.4499C18.2215 39.9596 19.3742 37.6444 21.2279 35.9668C23.0817 34.2891 25.5 33.3725 28.0001 33.3999C30.4976 33.3914 32.9066 34.3243 34.7469 36.0127C36.5873 37.7011 37.7238 40.0209 37.9301 42.5099C37.9526 42.7593 38.0678 42.9911 38.253 43.1595C38.4381 43.328 38.6797 43.4209 38.9301 43.4199H40.0001H45.8201C48.4143 43.4337 50.9321 42.5425 52.9399 40.8997C54.9477 39.2569 56.3199 36.9655 56.8201 34.4199C57.2193 31.9804 56.7852 29.4776 55.5878 27.315C54.3904 25.1525 52.4995 23.4563 50.2201 22.4999ZM54.8501 34.1099C54.4309 36.1849 53.3044 38.0501 51.663 39.387C50.0215 40.7238 47.967 41.4494 45.8501 41.4399H39.8501C39.7466 40.8011 39.5894 40.1722 39.3801 39.5599C39.2661 39.2192 39.1326 38.8853 38.9801 38.5599L38.7701 38.0999C38.1924 36.9519 37.4325 35.905 36.5201 34.9999C36.1619 34.6387 35.7776 34.3044 35.3701 33.9999L35.0001 33.6199L34.5701 33.3299L34.1301 33.0599L33.7601 32.8499L32.9001 32.4199L32.5001 32.2599L32.2501 32.1599C31.9701 32.0499 31.6901 31.9599 31.4101 31.8799C30.8393 31.7165 30.2579 31.5928 29.6701 31.5099L29.1301 31.4499C28.7701 31.4499 28.4001 31.3999 28.0301 31.3999C27.6601 31.3999 27.2901 31.3999 26.9301 31.4499L26.3901 31.5099C25.8599 31.5799 25.3353 31.6869 24.8201 31.8299L24.3201 31.9799L23.5701 32.2499L23.1701 32.4099C23.0639 32.454 22.9604 32.504 22.8601 32.5599L22.3901 32.7899C22.0779 32.9509 21.7741 33.1278 21.4801 33.3199L21.0001 33.5999C20.8601 33.6999 20.7201 33.7999 20.5901 33.9099C20.315 34.1155 20.0513 34.3358 19.8001 34.5699L19.4301 34.9299C18.8239 35.5349 18.2872 36.2057 17.8301 36.9299C17.7301 37.0833 17.6401 37.2333 17.5601 37.3799C17.4701 37.5299 17.3901 37.6799 17.3101 37.8399C17.2301 37.9999 17.1501 38.1499 17.0801 38.3099L16.8701 38.7899C16.7226 39.1423 16.5957 39.5029 16.4901 39.8699C16.4408 40.0105 16.4007 40.1542 16.3701 40.2999C16.2723 40.6484 16.1955 41.0023 16.1401 41.3599H13.4701C11.9603 41.3573 10.4659 41.0572 9.07223 40.4767C7.67855 39.8962 6.41293 39.0468 5.34771 37.9769C4.28249 36.9071 3.43856 35.6377 2.86415 34.2416C2.28974 32.8454 1.99612 31.3497 2.00006 29.8399V29.6399C2.03606 26.8403 3.08344 24.1481 4.94893 22.0603C6.81442 19.9724 9.37212 18.6297 12.1501 18.2799C12.3922 18.2482 12.6143 18.129 12.7745 17.9448C12.9348 17.7606 13.0221 17.5241 13.0201 17.2799V15.7399C12.9973 12.6021 14.0555 9.55205 16.0169 7.10263C17.9783 4.6532 20.7231 2.95373 23.7901 2.28993C25.7238 1.87141 27.7247 1.87172 29.6582 2.29087C31.5918 2.71001 33.4132 3.53826 35.0001 4.71993C36.5061 5.83576 37.7613 7.25514 38.6846 8.88636C39.6079 10.5176 40.1787 12.3243 40.3601 14.1899C40.3725 14.3374 40.4175 14.4803 40.4919 14.6083C40.5663 14.7362 40.6681 14.8461 40.7901 14.9299C40.9119 15.012 41.0504 15.0662 41.1956 15.0886C41.3407 15.1111 41.4891 15.1013 41.6301 15.0599C42.5121 14.8002 43.4474 14.7795 44.3401 14.9999C45.3676 15.2307 46.3072 15.7523 47.0465 16.5023C47.7859 17.2523 48.2939 18.1992 48.5101 19.2299C48.7316 20.3785 48.5515 21.5683 48.0001 22.5999C47.9361 22.7343 47.9029 22.8812 47.9029 23.0299C47.9029 23.1787 47.9361 23.3256 48.0001 23.4599C48.0529 23.5977 48.1375 23.7211 48.247 23.8202C48.3564 23.9192 48.4877 23.9911 48.6301 24.0299C50.4694 24.5686 52.0845 25.6891 53.2331 27.2235C54.3816 28.7579 55.0016 30.6233 55.0001 32.5399C54.9939 33.0665 54.9438 33.5917 54.8501 34.1099Z" fill="#CBFB45"></path><path opacity="0.5" d="M55 32.54C54.9972 33.0663 54.9504 33.5915 54.86 34.11C54.4408 36.185 53.3144 38.0502 51.6729 39.387C50.0315 40.7238 47.977 41.4495 45.86 41.44H39.86C39.7566 40.8012 39.5994 40.1723 39.39 39.56C39.2802 39.2177 39.1465 38.8836 38.99 38.56C38.9303 38.4022 38.8601 38.2485 38.78 38.1C38.1993 36.9512 37.4361 35.9043 36.52 35C36.16 34.6408 35.7757 34.3067 35.37 34C35.23 33.89 35.1 33.78 34.96 33.69L34.53 33.4C34.3893 33.3006 34.2424 33.2104 34.09 33.13C33.9724 33.0504 33.8487 32.9802 33.72 32.92L32.86 32.49L32.46 32.33L32.21 32.23C31.93 32.12 31.65 32.03 31.37 31.95C30.7993 31.7865 30.2179 31.6629 29.63 31.58L29.09 31.52C28.73 31.52 28.36 31.47 27.99 31.47C27.62 31.47 27.25 31.47 26.89 31.52L26.35 31.58C25.8199 31.65 25.2953 31.7569 24.78 31.9C24.6104 31.9394 24.4434 31.9895 24.28 32.05L23.53 32.32L23.13 32.48C23.0239 32.524 22.9204 32.5741 22.82 32.63L22.35 32.86C22.0379 33.021 21.7341 33.1979 21.44 33.39L21 33.6C20.8563 33.6936 20.7193 33.7972 20.59 33.91C20.315 34.1156 20.0513 34.3359 19.8 34.57C19.67 34.69 19.54 34.81 19.43 34.93C18.8238 35.5349 18.2872 36.2058 17.83 36.93C17.73 37.0833 17.64 37.2333 17.56 37.38C17.467 37.5278 17.3835 37.6815 17.31 37.84C17.23 37.99 17.15 38.15 17.08 38.31C17.0017 38.4662 16.9316 38.6264 16.87 38.79C16.7226 39.1423 16.5957 39.5029 16.49 39.87C16.4394 40.0101 16.3993 40.1539 16.37 40.3C16.2723 40.6484 16.1955 41.0024 16.14 41.36H13.47C11.9603 41.3574 10.4659 41.0572 9.07221 40.4767C7.67853 39.8963 6.41291 39.0468 5.34769 37.977C4.28247 36.9071 3.43854 35.6378 2.86413 34.2416C2.28972 32.8454 1.9961 31.3497 2.00004 29.84V29.64C2.03604 26.8403 3.08342 24.1482 4.94891 22.0603C6.8144 19.9724 9.3721 18.6297 12.15 18.28C12.3921 18.2482 12.6143 18.129 12.7745 17.9448C12.9348 17.7606 13.0221 17.5241 13.02 17.28V15.74C12.9973 12.6021 14.0555 9.5521 16.0169 7.10267C17.9782 4.65324 20.7231 2.95378 23.79 2.28998C25.7237 1.87145 27.7246 1.87177 29.6582 2.29091C31.5918 2.71005 33.4132 3.5383 35 4.71997C36.5061 5.8358 37.7613 7.25518 38.6846 8.8864C39.6079 10.5176 40.1786 12.3244 40.36 14.19C40.3725 14.3375 40.4175 14.4803 40.4919 14.6083C40.5662 14.7363 40.6681 14.8461 40.79 14.93C40.9119 15.012 41.0504 15.0662 41.1955 15.0887C41.3407 15.1111 41.4891 15.1013 41.63 15.06C42.5121 14.8003 43.4473 14.7796 44.34 15C45.3676 15.2308 46.3071 15.7523 47.0465 16.5023C47.7859 17.2523 48.2939 18.1992 48.51 19.23C48.7315 20.3786 48.5515 21.5684 48 22.6C47.9361 22.7343 47.9029 22.8812 47.9029 23.03C47.9029 23.1788 47.9361 23.3257 48 23.46C48.0529 23.5978 48.1375 23.7212 48.247 23.8202C48.3564 23.9192 48.4877 23.9911 48.63 24.03C50.4694 24.5686 52.0845 25.6892 53.233 27.2236C54.3816 28.7579 55.0016 30.6234 55 32.54Z" fill="#CBFB45"></path><path d="M39.9101 42.3399C39.9101 42.0299 39.8501 41.7299 39.8001 41.4299C39.6967 40.7911 39.5395 40.1622 39.3301 39.5499C39.2162 39.2091 39.0827 38.8752 38.9301 38.5499L38.7201 38.0899C38.1567 36.9489 37.414 35.9056 36.5201 34.9999C36.162 34.6386 35.7776 34.3044 35.3701 33.9999L35.0001 33.6199L34.5701 33.3299L34.1301 33.0599L33.7601 32.8499L32.9001 32.4199L32.5001 32.2599L32.2501 32.1599C31.9701 32.0499 31.6901 31.9599 31.4101 31.8799C30.8394 31.7164 30.258 31.5928 29.6701 31.5099L29.1301 31.4499C28.7701 31.4499 28.4001 31.3999 28.0301 31.3999C27.6601 31.3999 27.2901 31.3999 26.9301 31.4499L26.3901 31.5099C25.86 31.5799 25.3354 31.6868 24.8201 31.8299L24.3201 31.9799L23.5701 32.2499L23.1701 32.4099C23.064 32.4539 22.9605 32.504 22.8601 32.5599L22.3901 32.7899C22.0779 32.9509 21.7742 33.1278 21.4801 33.3199L21.0001 33.5999C20.8601 33.6999 20.7201 33.7999 20.5901 33.9099C20.3151 34.1155 20.0514 34.3358 19.8001 34.5699L19.4301 34.9299C18.8239 35.5349 18.2873 36.2057 17.8301 36.9299C17.7301 37.0832 17.6401 37.2332 17.5601 37.3799C17.4701 37.5299 17.3901 37.6799 17.3101 37.8399C17.2301 37.9999 17.1501 38.1499 17.0801 38.3099L16.8701 38.7899C16.7227 39.1422 16.5958 39.5028 16.4901 39.8699C16.4409 40.0105 16.4008 40.1541 16.3701 40.2999C16.2724 40.6483 16.1956 41.0023 16.1401 41.3599C16.0901 41.6599 16.0501 41.9599 16.0201 42.2699C15.9901 42.5799 16.0001 42.9999 16.0001 43.3699C16.0001 46.5525 17.2644 49.6047 19.5149 51.8552C21.7653 54.1056 24.8175 55.3699 28.0001 55.3699C31.1827 55.3699 34.235 54.1056 36.4854 51.8552C38.7359 49.6047 40.0001 46.5525 40.0001 43.3699C40.0001 43.0499 39.9401 42.6999 39.9101 42.3399ZM35.0001 50.4899C33.1434 52.3474 30.6265 53.3938 28.0001 53.3999C25.348 53.3999 22.8044 52.3463 20.9291 50.471C19.0537 48.5956 18.0001 46.0521 18.0001 43.3999C18.0001 43.0899 18.0001 42.7899 18.0501 42.4799C18.2638 39.9928 19.4063 37.6775 21.2501 35.9948C23.094 34.3122 25.504 33.3857 28.0001 33.3999C30.4976 33.3914 32.9066 34.3243 34.747 36.0127C36.5874 37.701 37.7239 40.0209 37.9301 42.5099C37.9453 42.813 37.9453 43.1168 37.9301 43.4199C37.9348 44.7337 37.6782 46.0354 37.1752 47.2492C36.6721 48.4629 35.9328 49.5645 35.0001 50.4899Z" fill="#CBFB45"></path><path opacity="0.5" d="M31.62 42.8699C31.8682 42.4196 31.9988 41.914 32 41.3999C31.9983 40.781 31.8051 40.1777 31.4471 39.6728C31.089 39.168 30.5835 38.7862 30 38.5799V37.3999C30 37.1347 29.8946 36.8803 29.7071 36.6928C29.5196 36.5053 29.2652 36.3999 29 36.3999C28.7348 36.3999 28.4804 36.5053 28.2929 36.6928C28.1054 36.8803 28 37.1347 28 37.3999V38.3999H27V37.3999C27 37.1347 26.8946 36.8803 26.7071 36.6928C26.5196 36.5053 26.2652 36.3999 26 36.3999C25.7348 36.3999 25.4804 36.5053 25.2929 36.6928C25.1054 36.8803 25 37.1347 25 37.3999V38.3999H24C23.7348 38.3999 23.4804 38.5053 23.2929 38.6928C23.1054 38.8803 23 39.1347 23 39.3999C23 39.6651 23.1054 39.9195 23.2929 40.107C23.4804 40.2945 23.7348 40.3999 24 40.3999V46.3999C23.7348 46.3999 23.4804 46.5053 23.2929 46.6928C23.1054 46.8803 23 47.1347 23 47.3999C23 47.6651 23.1054 47.9195 23.2929 48.107C23.4804 48.2945 23.7348 48.3999 24 48.3999H25V49.3999C25 49.6651 25.1054 49.9195 25.2929 50.107C25.4804 50.2945 25.7348 50.3999 26 50.3999C26.2652 50.3999 26.5196 50.2945 26.7071 50.107C26.8946 49.9195 27 49.6651 27 49.3999V48.3999H28V49.3999C28 49.6651 28.1054 49.9195 28.2929 50.107C28.4804 50.2945 28.7348 50.3999 29 50.3999C29.2652 50.3999 29.5196 50.2945 29.7071 50.107C29.8946 49.9195 30 49.6651 30 49.3999V48.3999C30.6498 48.4016 31.2827 48.1922 31.8033 47.8033C32.3239 47.4144 32.7042 46.8669 32.8869 46.2433C33.0695 45.6197 33.0448 44.9536 32.8163 44.3452C32.5879 43.7368 32.168 43.2191 31.62 42.8699ZM26 40.3999H29C29.2652 40.3999 29.5196 40.5053 29.7071 40.6928C29.8946 40.8803 30 41.1347 30 41.3999C30 41.6651 29.8946 41.9195 29.7071 42.107C29.5196 42.2945 29.2652 42.3999 29 42.3999H26V40.3999ZM30 46.3999H26V44.3999H30C30.2652 44.3999 30.5196 44.5053 30.7071 44.6928C30.8946 44.8803 31 45.1347 31 45.3999C31 45.6651 30.8946 45.9195 30.7071 46.107C30.5196 46.2945 30.2652 46.3999 30 46.3999Z" fill="#CBFB45"></path></svg>