<svg xmlns="http://www.w3.org/2000/svg" width="149" height="30" viewBox="0 0 149 30" fill="none"><path d="M13.3233 15.1722C13.3233 15.9575 13.9368 16.571 14.722 16.571C15.5073 16.571 16.1208 15.9575 16.1208 15.1722C16.1208 14.3869 15.5073 13.7734 14.722 13.7734C13.9368 13.798 13.3233 14.4115 13.3233 15.1722ZM25.0533 13.798C24.2681 13.798 23.6546 14.4115 23.6546 15.1968C23.6546 15.982 24.2681 16.5955 25.0533 16.5955C25.8386 16.5955 26.4521 15.982 26.4521 15.1968C26.4521 14.4115 25.8386 13.798 25.0533 13.798ZM25.0533 24.3011C24.2681 24.3011 23.6546 24.9145 23.6546 25.6998C23.6546 26.4851 24.2681 27.0986 25.0533 27.0986C25.8386 27.0986 26.4521 26.4851 26.4521 25.6998C26.4521 24.9145 25.8386 24.3011 25.0533 24.3011Z" fill="white"></path><path d="M28.0226 2.23972C26.6239 0.497385 24.1208 0.423768 22.6484 1.798L22.4766 1.96978L22.1331 2.23972C20.7343 3.36855 18.6484 3.2704 17.3478 1.96978V1.87162C16.9061 1.4299 16.3171 1.08634 15.7036 0.914564C15.6055 0.914564 15.4337 0.816406 15.3601 0.816406H13.9613C13.8631 0.816406 13.7895 0.816405 13.6914 0.914564H13.5196C13.4214 0.914564 13.3478 1.01272 13.2496 1.01272C13.2496 1.01272 13.1515 1.01273 13.1515 1.11089C13.0533 1.11089 12.9797 1.20905 12.8815 1.20905C12.8815 1.20905 12.7834 1.20904 12.7834 1.3072C12.6852 1.40536 12.6116 1.40537 12.5134 1.47899C12.5134 1.47899 12.4153 1.47898 12.4153 1.57714C12.3171 1.6753 12.2435 1.6753 12.1453 1.74892L12.0472 1.84708L11.8754 2.01886L11.5319 2.2888C10.1331 3.41763 8.04719 3.31947 6.84474 2.01886C6.84474 2.01886 6.74658 2.01886 6.74658 1.9207L6.5748 1.74892C6.05946 1.3072 5.44596 0.963643 4.75885 0.890023H3.1883C3.1883 0.988182 3.09014 0.988185 3.01652 1.06181H2.99198C2.55026 1.23358 2.13308 1.40536 1.76498 1.74892L1.66682 1.84708L1.39689 2.11702C1.05333 2.46058 0.881549 2.90229 0.709769 3.24585C0.709769 3.34401 0.61161 3.41763 0.61161 3.51579C0.61161 3.61395 0.51345 3.68757 0.51345 3.85935C0.415291 4.47285 0.415291 5.08634 0.61161 5.6753C0.61161 5.77346 0.709769 5.84708 0.709769 5.94524V6.0434C0.709769 6.14156 0.807929 6.21518 0.807929 6.31334C0.906088 6.4115 0.906088 6.48512 0.979708 6.6569C1.15149 6.75505 1.32327 6.92684 1.42143 7.00046L1.5932 7.17223L1.76498 7.34402C3.0656 8.64463 3.0656 10.9023 1.66682 12.3011C1.49505 12.4728 1.22511 12.7428 1.15149 12.9146C1.05333 13.0127 1.05333 13.0864 0.979708 13.2581V13.3563C0.881548 13.4544 0.881548 13.5281 0.807929 13.6262V13.7244C0.807929 13.8225 0.709769 13.8962 0.709769 13.9943V14.0925C0.709769 14.1906 0.709769 14.2643 0.61161 14.3624V15.663C0.61161 15.7612 0.61161 15.8348 0.709769 15.933V16.0311C0.881549 16.6446 1.22511 17.2581 1.74044 17.7735C3.13922 19.1722 3.13922 21.4299 1.74044 22.8041L1.64228 22.9023L1.47051 23.0741V23.1722C1.37235 23.2704 1.29873 23.344 1.29873 23.4422C1.29873 23.4422 1.29873 23.5403 1.20057 23.5403C1.10241 23.6385 1.10241 23.7121 1.02879 23.8103L0.930628 23.9084C0.930628 24.0066 0.832469 24.0066 0.832469 24.0802C0.832469 24.1538 0.734309 24.1784 0.734309 24.252C0.734309 24.3502 0.734309 24.3502 0.63615 24.4238C0.464371 24.7673 0.366211 25.209 0.366211 25.5526V26.2397C0.46437 26.5097 0.464371 26.7551 0.63615 26.9268C0.63615 27.025 0.734309 27.0986 0.734309 27.0986C0.734309 27.0986 0.734309 27.1968 0.832469 27.1968C0.832469 27.2949 0.930628 27.3686 0.930628 27.4667C0.930628 27.4667 0.930628 27.5649 1.02879 27.5649C1.12695 27.7367 1.20057 27.8348 1.29873 27.9084C1.29873 27.9084 1.29873 28.0066 1.39689 28.0066C1.39689 28.0066 1.39689 28.1048 1.49505 28.1048C1.49505 28.2029 1.5932 28.2029 1.5932 28.2029L1.69136 28.3011C1.78952 28.3992 1.86314 28.3992 1.86314 28.4729L1.9613 28.571C1.9613 28.571 2.05946 28.571 2.05946 28.6692C2.15762 28.7673 2.23124 28.841 2.3294 28.841C2.3294 28.841 2.42756 28.841 2.42756 28.9391C2.52572 29.0373 2.59934 29.0373 2.6975 29.1109H2.74658C2.84474 29.209 2.91836 29.2091 3.09014 29.2091C3.1883 29.2091 3.36007 29.3072 3.43369 29.3072H3.53185C3.63001 29.3072 3.70363 29.3072 3.80179 29.4054H4.58707C4.85701 29.4054 5.02879 29.3072 5.27419 29.3072H5.37234C5.4705 29.3072 5.54412 29.2091 5.64228 29.2091H5.69136C5.78952 29.2091 5.86314 29.1109 5.9613 29.1109H6.05946C6.23124 29.0127 6.50118 28.841 6.67296 28.7673L6.9429 28.4974L7.04106 28.3992C8.43983 26.9268 10.6975 26.9268 12.0717 28.3992C13.6423 30.0434 16.2435 29.9698 17.7159 28.1293C18.7466 26.8287 18.7466 24.9146 17.7159 23.5158C16.3171 21.7735 13.8141 21.6998 12.3417 23.0741L12.1699 23.2459L11.8263 23.5158C10.4276 24.6446 8.34167 24.5465 7.04106 23.2459L6.86928 23.0741L6.59934 22.7305C5.4705 21.3317 5.56866 19.2459 6.86928 17.9452C7.65455 17.2581 7.99811 16.3011 7.99811 15.344V15.0741C7.99811 14.2152 7.65455 13.3317 6.96744 12.7182C6.96744 12.6201 6.86928 12.6201 6.86928 12.5465L6.59934 12.2029C5.4705 10.8041 5.56866 8.71825 6.86928 7.41763L6.96744 7.31948L7.0656 7.22132C8.46437 5.74892 10.722 5.74892 12.0963 7.22132L12.1944 7.31948L12.2926 7.41763L12.4644 7.58942C12.5625 7.58942 12.5625 7.68757 12.6361 7.68757C12.7098 7.68757 12.7343 7.78573 12.8079 7.78573C12.8815 7.78573 12.9061 7.88389 12.9797 7.88389C13.0533 7.88389 13.0779 7.98205 13.1515 7.98205C13.2251 7.98205 13.2496 8.08021 13.3233 8.08021C13.3969 8.08021 13.4214 8.17837 13.495 8.17837C13.5687 8.17837 13.5932 8.17837 13.6668 8.27653C13.765 8.27653 13.765 8.27653 13.8386 8.37469H15.311C15.4092 8.37469 15.4828 8.37469 15.5809 8.27653H15.7527C15.8509 8.27653 15.9245 8.17837 16.0226 8.17837H16.1208C16.219 8.17837 16.2926 8.08021 16.4644 8.00659C16.8079 7.83481 17.1515 7.56487 17.4214 7.31948L17.5196 7.22132C18.9184 5.74892 21.176 5.74892 22.5503 7.22132C24.0226 8.96365 26.722 8.86549 28.1208 7.04953C29.0533 5.45444 29.0533 3.54033 28.0226 2.23972Z" fill="white"></path><path d="M47.8263 13.013C47.311 12.4976 46.8693 12.1541 46.2558 11.8841C45.7404 11.6142 45.1269 11.4424 44.3417 11.4424C43.6545 11.4424 42.9429 11.6142 42.4275 11.8841C41.9122 12.1541 41.4705 12.4976 41.1269 13.013C40.7834 13.4547 40.5134 13.97 40.3417 14.5835C40.1699 15.197 40.0717 15.8105 40.0717 16.3995C40.0717 16.9884 40.1699 17.6265 40.4153 18.2154C40.5871 18.8289 40.9306 19.2461 41.2742 19.6878C41.6177 20.1295 42.1331 20.4731 42.6729 20.7185C43.1883 20.9884 43.8018 21.0621 44.4889 21.0621C45.2742 21.0621 45.8877 20.8903 46.403 20.6203C46.9183 20.3504 47.4337 20.0068 47.8754 19.4915L49.6913 21.4056C49.0042 22.1909 48.219 22.7062 47.3355 23.0498C46.4766 23.3933 45.5196 23.5651 44.4644 23.5651C43.4337 23.5651 42.3785 23.3933 41.5196 23.0498C40.6607 22.7062 39.8754 22.1909 39.2619 21.5774C38.6484 20.9639 38.1331 20.1786 37.7895 19.3197C37.446 18.4608 37.2742 17.4056 37.2742 16.3749C37.2742 15.3443 37.446 14.2891 37.7895 13.4302C38.1331 12.5713 38.6484 11.786 39.2619 11.0743C39.8754 10.4608 40.6607 9.94549 41.5196 9.60193C42.3785 9.25838 43.4337 9.0866 44.4644 9.0866C45.495 9.0866 46.4521 9.25838 47.3355 9.60193C48.2926 9.94549 49.0779 10.559 49.765 11.2461L47.8263 13.013ZM53.7159 16.2277C53.7159 16.9148 53.814 17.6265 54.0594 18.1418C54.2312 18.7553 54.5748 19.2706 54.9183 19.7124C55.2619 20.1541 55.7772 20.4976 56.3171 20.6694C56.8325 20.9394 57.5441 21.013 58.2312 21.013C58.9183 21.013 59.5318 20.9148 60.1453 20.6694C60.6607 20.3995 61.176 20.0559 61.5441 19.7124C61.8877 19.2706 62.2312 18.7553 62.403 18.1418C62.5748 17.5283 62.7466 16.9148 62.7466 16.2277C62.7466 15.5406 62.6484 14.8289 62.403 14.3136C62.2312 13.7001 61.8877 13.1848 61.5441 12.743C61.2006 12.3013 60.6852 11.9578 60.1453 11.786C59.63 11.516 58.9183 11.4424 58.2312 11.4424C57.5441 11.4424 56.9306 11.5406 56.3171 11.786C55.8018 12.0559 55.2864 12.3995 54.9183 12.743C54.5748 13.1848 54.2312 13.7001 54.0594 14.3136C53.8877 14.9271 53.7159 15.5406 53.7159 16.2277ZM50.9429 16.2277C50.9429 15.197 51.1147 14.24 51.4582 13.3565C51.8018 12.4976 52.3171 11.7124 53.0288 11.0007C53.7159 10.3136 54.4275 9.77372 55.3846 9.43016C56.2435 9.0866 57.2006 8.81666 58.2558 8.81666C59.311 8.81666 60.2435 8.98844 61.1269 9.43016C61.9858 9.77372 62.7711 10.2891 63.4828 11.0007C64.1699 11.6878 64.6116 12.4731 65.0533 13.3565C65.3969 14.2154 65.5686 15.1725 65.5686 16.2277C65.5686 17.2584 65.3969 18.2154 65.0533 19.0989C64.7098 19.9578 64.1944 20.743 63.4828 21.4547C62.7956 22.1418 62.084 22.5835 61.1269 23.0252C60.268 23.3688 59.311 23.6387 58.2558 23.6387C57.2251 23.6387 56.268 23.467 55.3846 23.0252C54.5257 22.6817 53.7404 22.1664 53.0288 21.4547C52.3417 20.7676 51.8999 20.0559 51.4582 19.0989C51.2128 18.2154 50.9429 17.2584 50.9429 16.2277ZM68.2435 23.2706H70.8447V9.38108H68.2435V23.2706ZM67.63 4.32586C67.63 3.81052 67.8018 3.36881 68.1453 2.92709C68.4889 2.58353 68.9306 2.31359 69.4459 2.31359C69.9613 2.31359 70.403 2.48537 70.7466 2.92709C71.0901 3.27065 71.2619 3.78598 71.2619 4.32586C71.2619 4.86574 71.0901 5.28292 70.7466 5.72464C70.403 6.06819 69.9613 6.33813 69.4459 6.33813C68.9306 6.33813 68.4889 6.16635 68.1453 5.72464C67.8018 5.35654 67.63 4.8412 67.63 4.32586ZM74.4766 9.35653H77.1024V11.516H77.2006C77.5441 10.7308 78.0594 10.1173 78.9429 9.7001C79.7282 9.25838 80.6852 9.01298 81.8141 9.01298C82.5012 9.01298 83.1147 9.11114 83.7282 9.35653C84.3417 9.52831 84.857 9.87188 85.2987 10.3136C85.7404 10.7553 86.084 11.2706 86.4275 11.9578C86.6975 12.6449 86.8693 13.4302 86.8693 14.3872V23.3443H84.219V15.0989C84.219 14.4854 84.1208 13.8719 83.949 13.4547C83.7772 13.013 83.5073 12.5958 83.2619 12.3259C82.992 12.0559 82.6484 11.8105 82.2312 11.7124C81.8877 11.6142 81.4459 11.5406 81.0042 11.5406C80.4889 11.5406 79.9736 11.6387 79.5318 11.8105C79.0901 11.9823 78.6729 12.2522 78.3048 12.6694C77.9613 13.013 77.6914 13.5283 77.5196 14.1418C77.3478 14.7553 77.2496 15.4424 77.2496 16.2277V23.4424H74.6484V9.38108L74.4766 9.35653ZM96.4644 21.0866C97.1515 21.0866 97.765 20.9884 98.3785 20.743C98.992 20.4731 99.4091 20.1295 99.8509 19.7124C100.194 19.2706 100.538 18.7553 100.71 18.1418C100.882 17.5283 101.053 16.9148 101.053 16.1541C101.053 15.467 100.955 14.7553 100.71 14.1664C100.538 13.5529 100.194 13.0375 99.8509 12.5958C99.4091 12.1541 98.992 11.8105 98.3785 11.5651C97.765 11.2952 97.1515 11.2216 96.4644 11.2216C95.7772 11.2216 95.1637 11.3197 94.5502 11.5651C93.9367 11.8351 93.5196 12.1786 93.0779 12.5958C92.7343 13.0375 92.3907 13.5529 92.219 14.1664C92.0472 14.7798 91.8754 15.3933 91.8754 16.1541C91.8754 16.8412 91.9736 17.5529 92.219 18.1418C92.3907 18.7553 92.7343 19.2706 93.0779 19.7124C93.4214 20.1541 93.9367 20.4976 94.5502 20.743C95.0656 20.9148 95.7772 21.0866 96.4644 21.0866ZM103.679 23.1725H101.078V21.1848H100.98C100.464 21.97 99.7527 22.4854 98.8938 22.9271C98.0349 23.3688 97.0779 23.5406 96.1208 23.5406C95.0901 23.5406 94.0349 23.3688 93.176 23.0252C92.3171 22.6817 91.5318 22.1664 90.9183 21.4547C90.3048 20.7676 89.7895 19.9823 89.5196 19.0989C89.176 18.24 89.0042 17.2829 89.0042 16.2277C89.0042 15.1725 89.176 14.24 89.5196 13.2829C89.8631 12.424 90.3048 11.6387 90.9183 10.9271C91.5318 10.24 92.3171 9.70009 93.176 9.35653C94.0349 9.01298 94.992 8.8412 96.1208 8.8412C97.0779 8.8412 98.0349 9.01298 98.8938 9.4547C99.7527 9.89642 100.464 10.4854 100.882 11.197H100.98V0.767578H103.581V23.1725H103.679ZM116.955 15.0989C116.955 14.4854 116.857 13.97 116.685 13.4547C116.513 12.9394 116.243 12.4976 115.9 12.1541C115.556 11.8105 115.115 11.5406 114.673 11.2952C114.158 11.1234 113.642 10.9516 112.931 10.9516C112.317 10.9516 111.704 11.0498 111.188 11.2952C110.673 11.5651 110.231 11.8105 109.79 12.2522C109.446 12.5958 109.102 13.0375 108.931 13.5529C108.759 14.0682 108.587 14.5099 108.587 14.9516H116.931L116.955 15.0989ZM108.636 17.2584C108.636 17.8719 108.808 18.3872 109.078 18.9026C109.348 19.4179 109.691 19.8596 110.109 20.2032C110.55 20.5467 111.066 20.8167 111.581 20.9884C112.194 21.1602 112.71 21.2584 113.323 21.2584C114.109 21.2584 114.894 21.0866 115.483 20.6449C116.096 20.3013 116.612 19.786 117.127 19.1725L119.115 20.743C117.642 22.6572 115.556 23.6142 112.955 23.6142C111.826 23.6142 110.869 23.4424 110.01 23.0989C109.151 22.7553 108.366 22.24 107.753 21.5283C107.139 20.8412 106.624 20.1295 106.354 19.1725C106.01 18.3136 105.839 17.3565 105.839 16.3013C105.839 15.2706 106.01 14.3136 106.354 13.4302C106.697 12.5713 107.213 11.786 107.826 11.0743C108.44 10.3872 109.225 9.94549 110.084 9.50377C110.943 9.16022 111.9 8.98844 112.955 8.98844C114.182 8.98844 115.213 9.16022 116.072 9.60193C116.931 10.0437 117.642 10.559 118.158 11.2461C118.673 11.9332 119.115 12.7185 119.385 13.6019C119.655 14.4608 119.728 15.3443 119.728 16.3013V17.2584H108.636ZM129.986 12.8412C129.642 12.4976 129.299 12.1541 128.857 11.8841C128.415 11.6142 127.826 11.4424 127.213 11.4424C126.599 11.4424 126.084 11.6142 125.569 11.8841C125.127 12.1541 124.882 12.4976 124.882 13.013C124.882 13.4547 125.053 13.7983 125.323 13.97C125.593 14.24 125.937 14.4118 126.28 14.5835C126.624 14.7553 127.066 14.8535 127.409 14.9271C127.851 15.0252 128.194 15.0989 128.44 15.0989C128.955 15.2706 129.569 15.3688 130.01 15.6142C130.526 15.786 130.967 16.0559 131.311 16.3995C131.655 16.743 131.924 17.0866 132.17 17.5283C132.342 17.97 132.513 18.4854 132.513 19.1725C132.513 19.9578 132.342 20.6449 131.998 21.1602C131.655 21.6756 131.213 22.1909 130.697 22.559C130.182 22.9271 129.569 23.1725 128.882 23.3443C128.194 23.516 127.483 23.6142 126.894 23.6142C125.765 23.6142 124.734 23.4424 123.851 23.0989C122.992 22.7553 122.207 22.1418 121.495 21.1848L123.483 19.5406C123.924 19.9823 124.342 20.3259 124.882 20.6694C125.421 21.013 126.01 21.1848 126.796 21.1848C127.139 21.1848 127.483 21.1848 127.826 21.0866C128.17 20.9884 128.44 20.9148 128.685 20.743C128.955 20.5713 129.127 20.3995 129.299 20.2277C129.47 19.9578 129.569 19.7124 129.569 19.4424C129.569 19.0989 129.47 18.7553 129.225 18.4854C128.955 18.2154 128.71 18.0437 128.366 17.8719C128.023 17.7001 127.679 17.6019 127.336 17.5283L126.305 17.2584C125.79 17.0866 125.176 16.9884 124.734 16.8167C124.219 16.6449 123.777 16.3749 123.434 16.1295C123.09 15.8596 122.747 15.4424 122.477 15.0007C122.207 14.559 122.133 13.97 122.133 13.3565C122.133 12.6694 122.305 11.9578 122.575 11.4424C122.845 10.9271 123.262 10.4854 123.802 10.1418C124.317 9.79825 124.832 9.52831 125.446 9.35653C126.059 9.18476 126.747 9.0866 127.36 9.0866C128.317 9.0866 129.176 9.25838 130.059 9.60193C130.918 9.94549 131.63 10.559 132.145 11.3443L129.986 12.8412ZM135.041 1.11114H137.642V15.1725L143.556 9.25838H147.115L140.783 15.516L147.728 22.9762H143.998L137.667 15.8596V22.9762H135.066V1.11114" fill="white"></path></svg>