<svg xmlns="http://www.w3.org/2000/svg" width="141" height="27" viewBox="0 0 141 27" fill="none"><g clip-path="url(#clip0_56_709)"><path d="M28.4575 8.79375C23.3353 8.79375 19.333 12.6512 19.333 17.8152C19.333 22.9793 23.2342 26.8038 28.4575 26.8038C33.6808 26.8038 37.6498 22.9133 37.6498 17.7822C37.6498 12.6842 33.7487 8.79375 28.4575 8.79375ZM28.4921 23.0821C25.5752 23.0821 23.4377 20.8347 23.4377 17.8166C23.4377 14.7641 25.5406 12.5179 28.4575 12.5179C31.409 12.5179 33.5452 14.7984 33.5452 17.8166C33.5452 20.8347 31.409 23.0821 28.4921 23.0821ZM38.7685 12.7185H41.3129V26.4698H45.383V9.12895H38.7685V12.7185ZM9.0899 12.5166C11.2274 12.5166 12.9233 13.8245 13.567 15.7698H17.8752C17.0945 11.6114 13.6349 8.79375 9.1245 8.79375C4.0023 8.79375 0 12.6513 0 17.8166C0 22.9819 3.9012 26.805 9.1245 26.805C13.5338 26.805 17.0612 23.9875 17.8419 19.7948H13.567C12.9565 21.74 11.2606 23.0821 9.1232 23.0821C6.1717 23.0821 4.1034 20.8347 4.1034 17.8166C4.1047 14.7641 6.1397 12.5166 9.0899 12.5166ZM116.103 16.1393L113.118 15.7037C111.694 15.5031 110.676 15.0332 110.676 13.926C110.676 12.7185 112 12.1153 113.797 12.1153C115.764 12.1153 117.02 12.9535 117.291 14.3286H121.225C120.784 10.8406 118.07 8.79505 113.899 8.79505C109.591 8.79505 106.742 10.9751 106.742 14.0606C106.742 17.0115 108.608 18.7231 112.372 19.2589L115.357 19.6945C116.816 19.8951 117.63 20.4665 117.63 21.5395C117.63 22.9145 116.206 23.4847 114.238 23.4847C111.83 23.4847 110.473 22.512 110.269 21.0367H106.267C106.641 24.4243 109.32 26.805 114.204 26.805C118.648 26.805 121.598 24.7925 121.598 21.3375C121.598 18.252 119.462 16.6421 116.103 16.1393ZM43.348 1.98535C41.8556 1.98535 40.7357 3.05825 40.7357 4.53375C40.7357 6.00915 41.8543 7.08215 43.348 7.08215C44.8404 7.08215 45.9603 6.00915 45.9603 4.53375C45.9603 3.05825 44.8404 1.98535 43.348 1.98535ZM103.079 15.0662C103.079 11.3103 100.772 8.79505 95.888 8.79505C91.275 8.79505 88.698 11.1097 88.188 14.665H92.225C92.429 13.2899 93.514 12.1496 95.82 12.1496C97.89 12.1496 98.908 13.055 98.908 14.1622C98.908 15.6046 97.041 15.9728 94.735 16.2077C91.615 16.5429 87.748 17.616 87.748 21.6411C87.748 24.7608 90.089 26.772 93.82 26.772C96.737 26.772 98.568 25.5646 99.485 23.6524C99.621 25.3627 100.909 26.4698 102.708 26.4698H105.082V22.8815H103.08V15.0662H103.079ZM99.077 19.4266C99.077 21.7414 97.041 23.4517 94.565 23.4517C93.038 23.4517 91.749 22.8142 91.749 21.4734C91.749 19.763 93.819 19.2932 95.718 19.0927C97.55 18.925 98.567 18.5225 99.077 17.7505V19.4266ZM77.47 8.79375C75.197 8.79375 73.298 9.73335 71.941 11.3092V1.81775H67.871V26.4698H71.873V24.1894C73.23 25.8324 75.164 26.805 77.47 26.805C82.355 26.805 86.052 22.9819 86.052 17.8166C86.052 12.6513 82.287 8.79375 77.47 8.79375ZM76.86 23.0821C73.943 23.0821 71.806 20.8347 71.806 17.8166C71.806 14.7984 73.976 12.5179 76.893 12.5179C79.845 12.5179 81.913 14.7654 81.913 17.8166C81.913 20.8347 79.777 23.0821 76.86 23.0821ZM58.136 8.79375C55.49 8.79375 53.76 9.86665 52.743 11.3764V9.12895H48.706V26.4686H52.776V17.0445C52.776 14.3945 54.472 12.5166 56.982 12.5166C59.323 12.5166 60.78 14.1596 60.78 16.5417V26.4698H64.85V16.2407C64.852 11.8792 62.58 8.79375 58.136 8.79375ZM141 17.2465C141 12.283 137.337 8.79505 132.418 8.79505C127.195 8.79505 123.362 12.6856 123.362 17.8166C123.362 23.2167 127.466 26.805 132.486 26.805C136.726 26.805 140.05 24.3227 140.898 20.8017H136.657C136.047 22.3444 134.554 23.2167 132.553 23.2167C129.94 23.2167 127.973 21.6067 127.533 18.7891H140.999V17.2465H141ZM127.771 15.9043C128.416 13.4892 130.247 12.316 132.35 12.316C134.657 12.316 136.42 13.6238 136.827 15.9043H127.771Z" fill="#161617"></path></g><defs><clipPath id="clip0_56_709"><rect width="141" height="26" fill="white" transform="translate(0 0.829407)"></rect></clipPath></defs></svg>