<svg xmlns="http://www.w3.org/2000/svg" width="49" height="62" viewBox="0 0 49 62" fill="none"><path d="M47.7901 7.00003L24.7901 2.72468e-05C24.6 -0.0499765 24.4002 -0.0499765 24.2101 2.72468e-05L1.21006 7.00003C0.997481 7.06422 0.812317 7.19735 0.683763 7.37841C0.555209 7.55947 0.490577 7.77817 0.500058 8.00003V32.46C0.526531 39.3523 2.89583 46.0307 7.2189 51.3986C11.542 56.7666 17.5619 60.505 24.2901 62H24.5001H24.7101C31.4383 60.505 37.4581 56.7666 41.7812 51.3986C46.1043 46.0307 48.4736 39.3523 48.5001 32.46V8.00003C48.5095 7.77817 48.4449 7.55947 48.3164 7.37841C48.1878 7.19735 48.0026 7.06422 47.7901 7.00003ZM46.5001 32.46C46.4744 38.8584 44.2874 45.0604 40.2939 50.0595C36.3004 55.0587 30.7347 58.5617 24.5001 60C18.2654 58.5617 12.6997 55.0587 8.70621 50.0595C4.71269 45.0604 2.52568 38.8584 2.50006 32.46V8.74003L24.5001 2.00003L46.5001 8.70003V32.46Z" fill="#CBFB45"></path><path opacity="0.5" d="M24.5 2L2.5 8.74V32.46C2.52562 38.8584 4.71263 45.0603 8.70615 50.0595C12.6997 55.0587 18.2653 58.5616 24.5 60C30.7347 58.5616 36.3003 55.0587 40.2938 50.0595C44.2874 45.0603 46.4744 38.8584 46.5 32.46V8.74L24.5 2ZM43.5 32.46C43.4937 38.0171 41.6536 43.4167 38.2652 47.8212C34.8769 52.2257 30.1296 55.3889 24.76 56.82C24.5907 56.873 24.4093 56.873 24.24 56.82C18.8704 55.3889 14.1231 52.2257 10.7348 47.8212C7.34639 43.4167 5.50631 38.0171 5.5 32.46V11.71C5.49052 11.4881 5.55515 11.2694 5.6837 11.0884C5.81226 10.9073 5.99742 10.7742 6.21 10.71L24.21 5.23C24.3991 5.1727 24.6009 5.1727 24.79 5.23L42.79 10.71C43.0026 10.7742 43.1877 10.9073 43.3163 11.0884C43.4449 11.2694 43.5095 11.4881 43.5 11.71V32.46Z" fill="#CBFB45"></path><path d="M42.7901 10.75L24.7901 5.27002C24.601 5.21273 24.3991 5.21273 24.2101 5.27002L6.21006 10.75C5.99748 10.8142 5.81232 10.9473 5.68376 11.1284C5.55521 11.3095 5.49058 11.5282 5.50006 11.75V32.46C5.50637 38.0171 7.34645 43.4167 10.7348 47.8212C14.1232 52.2258 18.8704 55.3889 24.2401 56.82C24.4093 56.873 24.5908 56.873 24.7601 56.82C30.1297 55.3889 34.8769 52.2258 38.2653 47.8212C41.6537 43.4167 43.4937 38.0171 43.5001 32.46V11.71C43.5007 11.4949 43.432 11.2854 43.3041 11.1124C43.1762 10.9395 42.9959 10.8124 42.7901 10.75ZM41.5001 32.46C41.4943 37.5315 39.8297 42.4618 36.7603 46.4989C33.691 50.536 29.3853 53.4583 24.5001 54.82C19.6149 53.4583 15.3092 50.536 12.2398 46.4989C9.17041 42.4618 7.50586 37.5315 7.50006 32.46V12.46L24.5001 7.27002L41.5001 12.45V32.46Z" fill="#CBFB45"></path><path d="M24.5 17C21.7311 17 19.0243 17.8211 16.722 19.3594C14.4197 20.8978 12.6253 23.0843 11.5657 25.6424C10.5061 28.2006 10.2288 31.0155 10.769 33.7313C11.3092 36.447 12.6426 38.9416 14.6005 40.8995C16.5584 42.8574 19.053 44.1908 21.7687 44.731C24.4845 45.2712 27.2994 44.9939 29.8576 43.9343C32.4157 42.8747 34.6022 41.0803 36.1406 38.778C37.6789 36.4757 38.5 33.7689 38.5 31C38.5 27.287 37.025 23.726 34.3995 21.1005C31.774 18.475 28.213 17 24.5 17ZM24.5 43C22.1266 43 19.8066 42.2962 17.8332 40.9776C15.8598 39.6591 14.3217 37.7849 13.4135 35.5922C12.5052 33.3995 12.2676 30.9867 12.7306 28.6589C13.1936 26.3311 14.3365 24.1929 16.0147 22.5147C17.693 20.8365 19.8312 19.6936 22.1589 19.2306C24.4867 18.7676 26.8995 19.0052 29.0922 19.9134C31.2849 20.8217 33.1591 22.3598 34.4776 24.3332C35.7962 26.3065 36.5 28.6266 36.5 31C36.5 34.1826 35.2357 37.2348 32.9853 39.4853C30.7349 41.7357 27.6826 43 24.5 43Z" fill="#CBFB45"></path><path opacity="0.5" d="M24.5 19C22.1266 19 19.8066 19.7038 17.8332 21.0224C15.8598 22.3409 14.3217 24.2151 13.4135 26.4078C12.5052 28.6005 12.2676 31.0133 12.7306 33.3411C13.1936 35.6689 14.3365 37.8071 16.0147 39.4853C17.693 41.1635 19.8312 42.3064 22.1589 42.7694C24.4867 43.2324 26.8995 42.9948 29.0922 42.0866C31.2849 41.1783 33.1591 39.6402 34.4776 37.6668C35.7962 35.6935 36.5 33.3734 36.5 31C36.5 27.8174 35.2357 24.7652 32.9853 22.5147C30.7349 20.2643 27.6826 19 24.5 19ZM26.5 36V37C26.5 37.2652 26.3946 37.5196 26.2071 37.7071C26.0196 37.8946 25.7652 38 25.5 38C25.2348 38 24.9804 37.8946 24.7929 37.7071C24.6054 37.5196 24.5 37.2652 24.5 37V36H23.5V37C23.5 37.2652 23.3946 37.5196 23.2071 37.7071C23.0196 37.8946 22.7652 38 22.5 38C22.2348 38 21.9804 37.8946 21.7929 37.7071C21.6054 37.5196 21.5 37.2652 21.5 37V36H20.5C20.2348 36 19.9804 35.8946 19.7929 35.7071C19.6054 35.5196 19.5 35.2652 19.5 35C19.5 34.7348 19.6054 34.4804 19.7929 34.2929C19.9804 34.1054 20.2348 34 20.5 34V28C20.2348 28 19.9804 27.8946 19.7929 27.7071C19.6054 27.5196 19.5 27.2652 19.5 27C19.5 26.7348 19.6054 26.4804 19.7929 26.2929C19.9804 26.1054 20.2348 26 20.5 26H21.5V25C21.5 24.7348 21.6054 24.4804 21.7929 24.2929C21.9804 24.1054 22.2348 24 22.5 24C22.7652 24 23.0196 24.1054 23.2071 24.2929C23.3946 24.4804 23.5 24.7348 23.5 25V26H24.5V25C24.5 24.7348 24.6054 24.4804 24.7929 24.2929C24.9804 24.1054 25.2348 24 25.5 24C25.7652 24 26.0196 24.1054 26.2071 24.2929C26.3946 24.4804 26.5 24.7348 26.5 25V26.18C27.0836 26.3863 27.589 26.7681 27.9471 27.2729C28.3051 27.7778 28.4983 28.3811 28.5 29C28.4988 29.5141 28.3682 30.0197 28.12 30.47C28.668 30.8192 29.0879 31.3369 29.3163 31.9453C29.5448 32.5537 29.5695 33.2198 29.3869 33.8434C29.2042 34.467 28.8239 35.0145 28.3033 35.4034C27.7827 35.7923 27.1498 36.0017 26.5 36Z" fill="#CBFB45"></path><path opacity="0.5" d="M26.5 29C26.5 29.2652 26.3946 29.5196 26.2071 29.7071C26.0196 29.8946 25.7652 30 25.5 30H22.5V28H25.5C25.7652 28 26.0196 28.1054 26.2071 28.2929C26.3946 28.4804 26.5 28.7348 26.5 29Z" fill="#CBFB45"></path><path opacity="0.5" d="M27.5 33C27.5 33.2652 27.3946 33.5196 27.2071 33.7071C27.0196 33.8946 26.7652 34 26.5 34H22.5V32H26.5C26.7652 32 27.0196 32.1054 27.2071 32.2929C27.3946 32.4804 27.5 32.7348 27.5 33Z" fill="#CBFB45"></path></svg>