<svg xmlns="http://www.w3.org/2000/svg" width="47" height="8" viewBox="0 0 47 8" fill="none"><path d="M28.7548 3.97867C28.7591 2.97295 28.382 1.96577 27.6231 1.20678C26.8626 0.446233 25.8529 0.0694555 24.8451 0.075509C24.8403 0.075509 24.8356 0.0751953 24.8306 0.0751953C22.6421 0.0751953 20.9062 1.81067 20.9062 3.99975C20.9062 6.16722 22.6635 7.92399 24.8306 7.92399C27.0197 7.92399 28.7554 6.1882 28.7554 3.99975C28.7554 3.99255 28.7548 3.98576 28.7548 3.97867Z" fill="#F26E21"></path><path d="M20.1765 5.66024C19.59 6.24743 19.0486 6.47684 18.4655 6.48926C17.0449 6.47653 16.0004 5.42447 16.0004 3.92456C16.0004 3.16954 16.2863 2.55072 16.7392 2.02208C17.1639 1.6189 17.711 1.35839 18.3401 1.35839C19.0193 1.35839 19.5478 1.58477 20.1512 2.18855V0.452761C19.5479 0.151024 19.0192 0 18.3401 0C17.3807 0.0685717 16.4762 0.456206 15.7823 1.0649C15.5823 1.24483 15.3907 1.44345 15.2282 1.67077C14.7214 2.32768 14.415 3.13207 14.415 4.00033C14.415 6.18867 16.1515 7.84901 18.34 7.84901C18.3507 7.84901 18.3612 7.84806 18.3715 7.84796C18.3862 7.84817 18.4008 7.84901 18.4154 7.84901C19.019 7.84901 19.5478 7.6984 20.2269 7.39645L20.1765 5.66024C20.1511 5.68571 20.2018 5.7094 20.1765 5.73351V5.66024Z" fill="white"></path><path d="M33.7098 1.0811L32.0007 5.28328L30.0383 0.301758H28.4536L31.5478 7.92449H32.378L35.6233 0.301758H34.0386L33.7098 1.0811Z" fill="white"></path><path d="M36.2266 3.62263V7.69842H40.3022H40.3774V6.49043H39.0945H37.736V5.13225V4.45322H40.3022V3.16977H37.736V1.585H40.3774V0.301758H36.2266V3.62263Z" fill="white"></path><path d="M2.11362 0.301758H0V7.69842H2.11351C3.24541 7.69842 4.07548 7.39627 4.75472 6.86794C5.58478 6.18869 6.11332 5.13236 6.11332 4.00045C6.11342 1.81117 4.52824 0.301758 2.11362 0.301758ZM3.8493 5.88706C3.39644 6.26426 2.79265 6.49043 1.88692 6.49043H1.43406V1.58489H1.81136C2.71709 1.58489 3.32087 1.73582 3.77384 2.18847C4.30206 2.64102 4.60411 3.32069 4.60411 4.00014C4.67957 4.67939 4.37773 5.43378 3.8493 5.88706Z" fill="white"></path><path d="M8.22741 0.300781H6.79346V7.69723H8.22741V0.300781Z" fill="white"></path><path d="M11.8492 3.16961C10.9437 2.86777 10.717 2.64118 10.717 2.26399C10.717 1.81112 11.1699 1.43382 11.7737 1.43382C12.2265 1.43382 12.6038 1.58485 12.9812 2.03771L13.7361 1.05662C13.1321 0.52809 12.3777 0.226562 11.5475 0.226562C10.2641 0.226562 9.20748 1.13229 9.20748 2.33945C9.20748 3.39631 9.66077 3.84907 11.019 4.37739C11.6228 4.60346 11.8493 4.67923 12.0006 4.83015C12.3019 4.98086 12.4531 5.28302 12.4531 5.58455C12.4531 6.18844 12.0006 6.64141 11.3209 6.64141C10.641 6.64141 10.0378 6.26411 9.73581 5.66022L8.83008 6.56595C9.50964 7.54703 10.3398 7.99979 11.3965 7.99979C12.9058 7.99979 13.9619 7.01871 13.9619 5.58455C13.9621 4.30183 13.5097 3.7735 11.8492 3.16961Z" fill="white"></path><path d="M44.454 4.60361C45.5857 4.37754 46.1897 3.62253 46.1897 2.49073C46.1897 1.13245 45.2084 0.301758 43.5482 0.301758H41.3594V7.69842H42.7933V4.75464H43.02L45.0572 7.69842H46.7933L44.454 4.60361ZM43.246 3.69788H42.7934V1.43397H43.246C44.1517 1.43397 44.6802 1.81117 44.6802 2.5664C44.6802 3.32079 44.1518 3.69788 43.246 3.69788Z" fill="white"></path></svg>