<svg xmlns="http://www.w3.org/2000/svg" width="272" height="181" viewBox="0 0 272 181" fill="none"><circle opacity="0.1" cx="246" cy="26" r="26" fill="#CBFB45"></circle><path d="M242 17L242 19M242 35L242 27M242 19L254 19L252 23L254 27L242 27M242 19L242 27" stroke="#CBFB45" stroke-width="2" stroke-linecap="round" stroke-linejoin="round"></path><path d="M226 72L220.607 74.0616L225.089 77.7012L226 72ZM1.48288 180.13C1.56537 179.823 1.65245 179.511 1.74415 179.195L0.783822 178.916C0.69028 179.239 0.601394 179.557 0.517123 179.87L1.48288 180.13ZM2.33396 177.3C2.53727 176.686 2.75673 176.059 2.99263 175.42L2.05449 175.074C1.81479 175.723 1.59163 176.361 1.38472 176.985L2.33396 177.3ZM3.70996 173.566C3.95185 172.968 4.20742 172.36 4.47691 171.745L3.56084 171.344C3.28761 171.968 3.02836 172.584 2.78288 173.191L3.70996 173.566ZM5.29834 169.936C5.57714 169.343 5.86841 168.743 6.17235 168.138L5.27865 167.689C4.97089 168.302 4.67586 168.909 4.39338 169.51L5.29834 169.936ZM7.08281 166.379C7.38985 165.803 7.70811 165.222 8.03774 164.638L7.16669 164.146C6.83319 164.738 6.51113 165.325 6.20036 165.908L7.08281 166.379ZM9.04116 162.906C9.37433 162.346 9.7178 161.783 10.0717 161.217L9.22395 160.687C8.86608 161.259 8.51872 161.828 8.18174 162.394L9.04116 162.906ZM11.1465 159.54C11.5077 158.991 11.8787 158.439 12.2596 157.885L11.4358 157.318C11.0508 157.878 10.6758 158.436 10.3107 158.992L11.1465 159.54ZM13.4009 156.264C13.7873 155.728 14.1831 155.19 14.5883 154.651L13.7893 154.05C13.3798 154.594 12.9799 155.138 12.5894 155.68L13.4009 156.264ZM15.7941 153.083C16.2019 152.564 16.6185 152.045 17.0441 151.526L16.2707 150.892C15.8407 151.416 15.4198 151.941 15.0078 152.466L15.7941 153.083ZM18.318 150.003C18.7461 149.502 19.1827 149.001 19.6278 148.501L18.8808 147.836C18.4312 148.341 17.9901 148.847 17.5576 149.354L18.318 150.003ZM20.9652 147.028C21.4129 146.545 21.8687 146.063 22.3327 145.582L21.6129 144.888C21.1443 145.373 20.6839 145.861 20.2317 146.349L20.9652 147.028ZM23.7294 144.162C24.196 143.697 24.6703 143.234 25.1525 142.772L24.4608 142.05C23.9739 142.516 23.4948 142.984 23.0236 143.454L23.7294 144.162ZM26.6047 141.408C27.0895 140.962 27.5818 140.518 28.0816 140.075L27.4188 139.326C26.9141 139.773 26.417 140.222 25.9274 140.673L26.6047 141.408ZM29.5855 138.77C30.0879 138.343 30.5975 137.917 31.1144 137.494L30.4813 136.72C29.9593 137.147 29.4447 137.577 28.9374 138.008L29.5855 138.77ZM32.6663 136.25C33.1857 135.841 33.7122 135.435 34.2458 135.032L33.6429 134.234C33.1042 134.641 32.5726 135.051 32.0481 135.464L32.6663 136.25ZM35.8417 133.85C36.3778 133.461 36.9207 133.074 37.4705 132.691L36.8985 131.871C36.3434 132.258 35.7953 132.648 35.2541 133.041L35.8417 133.85ZM39.1066 131.573C39.6587 131.203 40.2174 130.836 40.7829 130.473L40.2422 129.631C39.6714 129.998 39.1074 130.368 38.5501 130.742L39.1066 131.573ZM42.456 129.419C43.0199 129.071 43.5902 128.727 44.1671 128.385L43.658 127.525C43.0758 127.869 42.5002 128.217 41.931 128.568L42.456 129.419ZM45.8851 127.39C46.4594 127.065 47.04 126.742 47.6268 126.424L47.1495 125.545C46.5574 125.867 45.9715 126.192 45.3918 126.52L45.8851 127.39ZM49.3892 125.487C49.9727 125.184 50.5621 124.884 51.1575 124.588L50.7122 123.693C50.1114 123.991 49.5167 124.294 48.9279 124.6L49.3892 125.487ZM52.9617 123.711C53.5537 123.429 54.1514 123.152 54.7549 122.878L54.3415 121.967C53.7327 122.243 53.1298 122.524 52.5325 122.807L52.9617 123.711ZM56.58 122.068C57.1861 121.806 57.7978 121.547 58.4153 121.293L58.0338 120.368C57.4111 120.625 56.794 120.886 56.1826 121.151L56.58 122.068ZM60.2569 120.551C60.8764 120.308 61.5013 120.068 62.1318 119.833L61.7821 118.896C61.1462 119.133 60.516 119.375 59.8913 119.62L60.2569 120.551ZM63.9895 119.157C64.6127 118.936 65.2413 118.719 65.8752 118.506L65.5566 117.558C64.9175 117.772 64.2837 117.991 63.6553 118.214L63.9895 119.157ZM67.7752 117.884C68.4009 117.685 69.0316 117.49 69.6674 117.299L69.3796 116.341C68.7387 116.534 68.1029 116.731 67.4721 116.931L67.7752 117.884ZM71.5902 116.738C72.2242 116.558 72.8632 116.383 73.5071 116.211L73.2496 115.245C72.6007 115.418 71.9567 115.595 71.3177 115.776L71.5902 116.738ZM75.4307 115.715C76.0768 115.553 76.7277 115.396 77.3836 115.242L77.1559 114.269C76.4951 114.423 75.8392 114.582 75.1882 114.745L75.4307 115.715ZM79.314 114.806C79.9589 114.666 80.6083 114.529 81.2624 114.396L81.0637 113.416C80.4048 113.55 79.7506 113.688 79.1009 113.829L79.314 114.806ZM83.2385 114.011C83.8814 113.89 84.5287 113.774 85.1804 113.661L85.0101 112.676C84.3537 112.789 83.7018 112.907 83.0542 113.028L83.2385 114.011ZM87.1468 113.335C87.8065 113.231 88.4706 113.13 89.1391 113.034L88.9966 112.044C88.3234 112.141 87.6547 112.242 86.9904 112.348L87.1468 113.335ZM91.0924 112.766C91.7476 112.681 92.407 112.599 93.0706 112.522L92.9547 111.529C92.2867 111.607 91.6228 111.689 90.9632 111.775L91.0924 112.766ZM95.0739 112.302C95.7247 112.235 96.3794 112.171 97.038 112.112L96.9481 111.116C96.2852 111.176 95.6263 111.239 94.9713 111.307L95.0739 112.302ZM99.0222 111.945C99.6875 111.894 100.357 111.846 101.03 111.803L100.965 110.805C100.288 110.849 99.6145 110.897 98.9449 110.948L99.0222 111.945ZM103.008 111.687C103.665 111.652 104.327 111.622 104.992 111.595L104.952 110.595C104.282 110.623 103.617 110.653 102.955 110.688L103.008 111.687ZM106.999 111.526C107.336 111.516 107.673 111.507 108.011 111.5L107.989 110.5C107.648 110.508 107.309 110.516 106.971 110.526L106.999 111.526ZM108.011 111.5C108.348 111.492 108.684 111.484 109.02 111.476L108.994 110.476C108.66 110.485 108.325 110.493 107.989 110.5L108.011 111.5ZM111.023 111.418C111.688 111.396 112.35 111.373 113.008 111.347L112.97 110.348C112.313 110.374 111.654 110.397 110.991 110.418L111.023 111.418ZM114.987 111.265C115.659 111.234 116.328 111.202 116.994 111.167L116.942 110.168C116.278 110.203 115.612 110.235 114.942 110.266L114.987 111.265ZM118.982 111.057C119.641 111.019 120.298 110.978 120.951 110.935L120.885 109.937C120.235 109.98 119.581 110.02 118.923 110.059L118.982 111.057ZM122.959 110.797C123.625 110.748 124.288 110.698 124.947 110.645L124.868 109.649C124.211 109.701 123.55 109.751 122.886 109.799L122.959 110.797ZM126.915 110.482C127.586 110.424 128.252 110.364 128.915 110.301L128.822 109.306C128.161 109.368 127.497 109.428 126.829 109.486L126.915 110.482ZM130.902 110.107C131.56 110.041 132.215 109.972 132.867 109.901L132.759 108.907C132.11 108.977 131.457 109.046 130.801 109.112L130.902 110.107ZM134.861 109.676C135.525 109.599 136.186 109.52 136.843 109.438L136.719 108.446C136.065 108.527 135.407 108.606 134.746 108.683L134.861 109.676ZM138.801 109.187C139.469 109.099 140.133 109.009 140.793 108.917L140.655 107.926C139.997 108.018 139.336 108.108 138.671 108.196L138.801 109.187ZM142.766 108.633C143.422 108.536 144.073 108.437 144.72 108.335L144.566 107.347C143.921 107.448 143.272 107.547 142.62 107.643L142.766 108.633ZM146.707 108.017C147.364 107.908 148.018 107.798 148.668 107.685L148.497 106.7C147.85 106.812 147.199 106.922 146.544 107.03L146.707 108.017ZM150.624 107.338C151.285 107.218 151.943 107.096 152.596 106.971L152.408 105.989C151.758 106.113 151.104 106.235 150.445 106.354L150.624 107.338ZM154.541 106.591C155.199 106.46 155.852 106.326 156.5 106.191L156.296 105.212C155.65 105.347 155 105.48 154.345 105.611L154.541 106.591ZM158.454 105.774C159.102 105.632 159.745 105.489 160.383 105.344L160.161 104.369C159.526 104.513 158.885 104.656 158.241 104.797L158.454 105.774ZM162.343 104.888C162.991 104.734 163.634 104.577 164.272 104.419L164.032 103.449C163.397 103.606 162.757 103.761 162.112 103.915L162.343 104.888ZM166.209 103.93C166.858 103.763 167.502 103.594 168.141 103.422L167.882 102.456C167.246 102.627 166.605 102.795 165.959 102.962L166.209 103.93ZM170.052 102.9C170.702 102.718 171.346 102.535 171.985 102.35L171.706 101.39C171.071 101.574 170.43 101.756 169.783 101.936L170.052 102.9ZM173.884 101.789C174.529 101.595 175.169 101.399 175.803 101.201L175.505 100.246C174.874 100.443 174.238 100.639 173.596 100.832L173.884 101.789ZM177.698 100.598C178.336 100.391 178.969 100.182 179.595 99.9712L179.276 99.0234C178.653 99.2328 178.025 99.4405 177.389 99.6464L177.698 100.598ZM181.483 99.3245C182.115 99.104 182.74 98.8818 183.359 98.6581L183.019 97.7177C182.404 97.9401 181.782 98.1611 181.153 98.3803L181.483 99.3245ZM185.236 97.9668C185.862 97.7321 186.481 97.4958 187.093 97.258L186.731 96.3259C186.123 96.5622 185.508 96.7971 184.885 97.0304L185.236 97.9668ZM188.956 96.5211C189.577 96.2712 190.19 96.0199 190.795 95.7673L190.41 94.8444C189.809 95.0954 189.2 95.3452 188.583 95.5935L188.956 96.5211ZM192.639 94.984C193.255 94.7179 193.862 94.4506 194.461 94.1821L194.052 93.2696C193.457 93.5362 192.854 93.8018 192.242 94.0662L192.639 94.984ZM196.28 93.3518C196.891 93.0683 197.492 92.7837 198.085 92.4982L197.651 91.5973C197.062 91.8807 196.465 92.1633 195.859 92.4449L196.28 93.3518ZM199.873 91.6207C200.479 91.3183 201.074 91.0152 201.66 90.7115L201.199 89.8237C200.618 90.1251 200.027 90.426 199.426 90.7262L199.873 91.6207ZM203.41 89.7872C204.01 89.4644 204.599 89.1412 205.176 88.818L204.688 87.9452C204.115 88.2658 203.531 88.5863 202.936 88.9066L203.41 89.7872ZM206.908 87.8307C207.491 87.4915 208.063 87.1525 208.622 86.814L208.104 85.9585C207.55 86.2939 206.984 86.6299 206.405 86.9662L206.908 87.8307ZM210.331 85.7582C210.904 85.3973 211.462 85.0372 212.008 84.6785L211.458 83.8431C210.918 84.1983 210.365 84.5548 209.798 84.9124L210.331 85.7582ZM213.659 83.5677C214.223 83.1793 214.772 82.7928 215.304 82.4088L214.719 81.5977C214.193 81.9774 213.65 82.3596 213.092 82.7438L213.659 83.5677ZM216.916 81.2174C217.461 80.8045 217.987 80.395 218.494 79.9895L217.869 79.2085C217.369 79.6085 216.85 80.0127 216.312 80.4205L216.916 81.2174ZM220.037 78.72C220.562 78.2747 221.064 77.8353 221.543 77.4025L220.872 76.6608C220.401 77.0861 219.908 77.5185 219.39 77.9571L220.037 78.72ZM223.007 76.0295C223.51 75.5395 223.981 75.0598 224.421 74.5919L223.692 73.9072C223.263 74.3638 222.802 74.8329 222.309 75.3132L223.007 76.0295Z" fill="#CBFB45"></path></svg>