<svg xmlns="http://www.w3.org/2000/svg" width="25" height="16" viewBox="0 0 25 16" fill="none"><path d="M15.182 2.5742L8.78711 2.59619L8.98089 14.3036L15.3758 14.2816L15.182 2.5742Z" fill="#FF5F00"></path><path d="M9.20789 8.47387C9.16832 6.09267 10.235 3.97688 11.9058 2.60448C10.6447 1.61485 9.06361 1.01975 7.3497 1.02562C3.28938 1.03953 0.0597937 4.38446 0.128268 8.50497C0.196743 12.6255 3.53713 15.9479 7.59745 15.934C9.31136 15.9281 10.8725 15.3223 12.1006 14.3241C10.3847 12.984 9.24746 10.8551 9.20789 8.47387Z" fill="#EB001B"></path><path d="M24.034 8.37348C24.1024 12.494 20.8728 15.8389 16.8125 15.8528C15.0986 15.8587 13.5175 15.2636 12.2564 14.274C13.9476 12.9015 14.9939 10.7858 14.9543 8.40458C14.9148 6.02338 13.7779 3.91513 12.0617 2.55433C13.2898 1.55618 14.8509 0.950317 16.5648 0.944447C20.6251 0.930541 23.9658 4.27368 24.034 8.37348Z" fill="#F79E1B"></path></svg>