<svg xmlns="http://www.w3.org/2000/svg" width="305" height="214" viewBox="0 0 305 214" fill="none"><path d="M116 115.563L116.24 116.002L116 115.563ZM242 106.563L236.664 108.767L237.424 103.044L242 106.563ZM0.659803 106.197C0.917182 105.958 1.17427 105.723 1.43108 105.493L2.09911 106.237C1.8465 106.464 1.59353 106.695 1.3402 106.93L0.659803 106.197ZM2.96857 104.159C3.48048 103.731 3.99129 103.319 4.50106 102.923L5.11456 103.713C4.61457 104.101 4.11319 104.505 3.61037 104.926L2.96857 104.159ZM6.15863 101.689C6.70994 101.296 7.26006 100.921 7.80904 100.564L8.35378 101.403C7.8171 101.752 7.27886 102.118 6.739 102.503L6.15863 101.689ZM9.54561 99.4934C10.1351 99.1491 10.7233 98.825 11.3102 98.5205L11.7707 99.4082C11.1988 99.7048 10.6253 100.021 10.05 100.357L9.54561 99.4934ZM13.1375 97.6336C13.7608 97.3517 14.3827 97.0914 15.0033 96.852L15.3632 97.785C14.7604 98.0176 14.1559 98.2705 13.5496 98.5447L13.1375 97.6336ZM16.9202 96.1768C17.5702 95.9694 18.2188 95.7843 18.8659 95.6206L19.1112 96.59C18.4838 96.7488 17.8548 96.9283 17.2241 97.1295L16.9202 96.1768ZM20.8541 95.1829C21.5219 95.0577 22.1881 94.9545 22.8528 94.8722L22.9756 95.8646C22.3313 95.9444 21.6856 96.0444 21.0384 96.1658L20.8541 95.1829ZM24.8807 94.6849C25.5571 94.6435 26.232 94.6228 26.9053 94.6219L26.9066 95.6219C26.2528 95.6228 25.598 95.6428 24.9418 95.6831L24.8807 94.6849ZM28.9352 94.6781C29.6098 94.7161 30.2828 94.7728 30.9543 94.8473L30.8441 95.8412C30.19 95.7687 29.535 95.7134 28.879 95.6765L28.9352 94.6781ZM32.9616 95.1222C33.6256 95.2301 34.2882 95.3543 34.9495 95.4937L34.7432 96.4722C34.0965 96.3359 33.4492 96.2146 32.8012 96.1093L32.9616 95.1222ZM36.9213 95.9543C37.5701 96.1203 38.2177 96.3 38.8643 96.4922L38.5793 97.4507C37.9444 97.262 37.3092 97.0858 36.6734 96.9231L36.9213 95.9543ZM40.7947 97.1036C41.4272 97.3158 42.0588 97.5391 42.6895 97.7726L42.3424 98.7104C41.7207 98.4803 41.0988 98.2604 40.4766 98.0516L40.7947 97.1036ZM44.5748 98.5005C45.1933 98.7488 45.8111 99.006 46.4284 99.2711L46.0338 100.19C45.4233 99.9278 44.8128 99.6737 44.2021 99.4285L44.5748 98.5005ZM48.272 100.086C48.879 100.362 49.4854 100.644 50.0915 100.933L49.6619 101.836C49.0608 101.55 48.4596 101.27 47.8585 100.997L48.272 100.086ZM51.9012 101.81C52.499 102.106 53.0965 102.406 53.6937 102.71L53.2399 103.601C52.6459 103.299 52.052 103 51.4583 102.707L51.9012 101.81ZM55.4783 103.63C56.0695 103.939 56.6607 104.25 57.2518 104.564L56.783 105.447C56.1937 105.134 55.6047 104.824 55.0159 104.517L55.4783 103.63ZM59.0202 105.508C59.6077 105.824 60.1953 106.141 60.7829 106.458L60.3076 107.338C59.7203 107.021 59.1336 106.704 58.5471 106.389L59.0202 105.508ZM62.5442 107.411C63.1308 107.728 63.7174 108.045 64.3044 108.361L63.8304 109.241C63.2426 108.925 62.6553 108.608 62.0686 108.29L62.5442 107.411ZM66.0673 109.306C66.6556 109.619 67.2442 109.931 67.8332 110.24L67.3684 111.126C66.7772 110.815 66.1867 110.502 65.5969 110.188L66.0673 109.306ZM69.6061 111.161C70.1987 111.466 70.7918 111.767 71.3855 112.064L70.9382 112.958C70.3409 112.66 69.7445 112.357 69.149 112.051L69.6061 111.161ZM73.1764 112.945C73.7758 113.234 74.3758 113.519 74.9766 113.798L74.5559 114.705C73.95 114.424 73.3451 114.137 72.7413 113.845L73.1764 112.945ZM76.793 114.62C77.4013 114.888 78.0104 115.15 78.6203 115.403L78.2363 116.327C77.6194 116.07 77.0038 115.806 76.3893 115.535L76.793 114.62ZM80.4684 116.146C81.0872 116.386 81.7069 116.616 82.3276 116.838L81.9921 117.78C81.3623 117.555 80.734 117.321 80.1072 117.078L80.4684 116.146ZM84.2116 117.477C84.8418 117.68 85.473 117.872 86.1055 118.052L85.8314 119.014C85.1876 118.83 84.5456 118.635 83.9051 118.429L84.2116 117.477ZM88.0255 118.561C88.6674 118.718 89.3106 118.862 89.9551 118.992L89.757 119.973C89.0986 119.84 88.4422 119.692 87.7876 119.532L88.0255 118.561ZM91.9044 119.342C92.5557 119.444 93.2085 119.531 93.8628 119.602L93.755 120.596C93.0845 120.524 92.4161 120.435 91.7498 120.33L91.9044 119.342ZM95.8313 119.766C96.4869 119.804 97.1441 119.826 97.803 119.829L97.7978 120.829C97.1209 120.825 96.4461 120.804 95.7735 120.765L95.8313 119.766ZM99.7761 119.786C100.428 119.753 101.083 119.703 101.739 119.634L101.844 120.628C101.169 120.699 100.496 120.751 99.8255 120.784L99.7761 119.786ZM103.697 119.37C104.338 119.266 104.981 119.142 105.626 118.999L105.842 119.976C105.179 120.123 104.518 120.25 103.858 120.357L103.697 119.37ZM107.547 118.516C108.169 118.342 108.793 118.148 109.419 117.935L109.741 118.881C109.098 119.1 108.457 119.299 107.818 119.479L107.547 118.516ZM111.28 117.246C111.879 117.006 112.48 116.748 113.084 116.472L113.501 117.38C112.883 117.664 112.266 117.929 111.652 118.174L111.28 117.246ZM114.865 115.602C115.163 115.448 115.461 115.289 115.76 115.125L116.24 116.002C115.935 116.169 115.629 116.332 115.324 116.49L114.865 115.602ZM115.76 115.125C116.06 114.961 116.36 114.797 116.659 114.635L117.136 115.514C116.838 115.675 116.54 115.838 116.24 116.002L115.76 115.125ZM118.442 113.676C119.034 113.36 119.623 113.049 120.208 112.743L120.672 113.629C120.088 113.934 119.502 114.244 118.913 114.558L118.442 113.676ZM121.957 111.836C122.557 111.528 123.154 111.225 123.747 110.926L124.197 111.819C123.606 112.117 123.011 112.419 122.413 112.726L121.957 111.836ZM125.556 110.025C126.156 109.729 126.752 109.438 127.346 109.152L127.78 110.053C127.189 110.338 126.595 110.627 125.998 110.922L125.556 110.025ZM129.116 108.308C129.735 108.016 130.349 107.73 130.961 107.449L131.379 108.357C130.77 108.637 130.158 108.922 129.543 109.212L129.116 108.308ZM132.79 106.617C133.396 106.345 133.999 106.078 134.598 105.816L134.999 106.732C134.402 106.993 133.802 107.259 133.199 107.529L132.79 106.617ZM136.432 105.024C137.057 104.758 137.679 104.497 138.297 104.242L138.679 105.166C138.064 105.42 137.446 105.68 136.823 105.944L136.432 105.024ZM140.14 103.491C140.757 103.244 141.369 103.003 141.978 102.766L142.34 103.698C141.735 103.933 141.126 104.174 140.513 104.42L140.14 103.491ZM143.877 102.041C144.505 101.806 145.13 101.575 145.751 101.351L146.091 102.291C145.474 102.514 144.853 102.743 144.228 102.978L143.877 102.041ZM147.605 100.692C148.252 100.467 148.894 100.248 149.531 100.035L149.848 100.983C149.215 101.195 148.577 101.413 147.934 101.636L147.605 100.692ZM151.431 99.4132C152.063 99.211 152.691 99.0147 153.315 98.8243L153.607 99.7807C152.988 99.9698 152.364 100.165 151.736 100.366L151.431 99.4132ZM155.263 98.2441C155.907 98.057 156.547 97.8762 157.183 97.7016L157.448 98.6659C156.817 98.8392 156.182 99.0187 155.541 99.2045L155.263 98.2441ZM159.103 97.1888C159.763 97.0179 160.417 96.8537 161.067 96.696L161.303 97.6678C160.658 97.8242 160.009 97.9872 159.354 98.1568L159.103 97.1888ZM163 96.2424C163.66 96.093 164.314 95.9504 164.964 95.8144L165.169 96.7931C164.525 96.928 163.875 97.0695 163.22 97.2178L163 96.2424ZM166.934 95.419C167.588 95.2935 168.237 95.1747 168.88 95.0624L169.052 96.0476C168.414 96.1588 167.771 96.2766 167.122 96.4011L166.934 95.419ZM170.882 94.7317C171.544 94.6286 172.2 94.5324 172.85 94.443L172.986 95.4337C172.342 95.5222 171.692 95.6175 171.036 95.7198L170.882 94.7317ZM174.848 94.1874C175.518 94.1082 176.181 94.0361 176.839 93.971L176.938 94.9662C176.286 95.0306 175.629 95.102 174.965 95.1805L174.848 94.1874ZM178.83 93.7938C179.506 93.7403 180.176 93.6942 180.839 93.6553L180.898 94.6535C180.241 94.6921 179.578 94.7378 178.909 94.7907L178.83 93.7938ZM182.827 93.5588C183.507 93.5327 184.18 93.5141 184.847 93.5027L184.864 94.5026C184.204 94.5139 183.538 94.5323 182.865 94.558L182.827 93.5588ZM186.834 93.4896C187.515 93.4923 188.19 93.5024 188.857 93.5196L188.831 94.5193C188.171 94.5023 187.504 94.4923 186.83 94.4896L186.834 93.4896ZM190.844 93.5923C191.524 93.6246 192.197 93.6641 192.863 93.7105L192.793 94.7081C192.135 94.6622 191.47 94.6231 190.797 94.5912L190.844 93.5923ZM194.849 93.8708C195.526 93.9329 196.194 94.0019 196.856 94.0774L196.743 95.071C196.088 94.9963 195.427 94.928 194.758 94.8666L194.849 93.8708ZM198.839 94.3258C199.51 94.4172 200.173 94.5151 200.828 94.619L200.671 95.6066C200.023 95.5039 199.367 95.407 198.704 95.3166L198.839 94.3258ZM202.805 94.954C203.468 95.0735 204.123 95.1989 204.77 95.3296L204.572 96.3099C203.931 96.1805 203.283 96.0564 202.627 95.9381L202.805 94.954ZM206.738 95.7477C207.393 95.8938 208.04 96.0449 208.679 96.2003L208.443 97.172C207.81 97.018 207.169 96.8684 206.52 96.7238L206.738 95.7477ZM210.631 96.6942C211.284 96.8655 211.928 97.0408 212.564 97.2196L212.293 98.1823C211.662 98.005 211.024 97.8311 210.377 97.6614L210.631 96.6942ZM214.481 97.7747C215.13 97.968 215.771 98.1642 216.404 98.3624L216.105 99.3166C215.476 99.1198 214.84 98.925 214.196 98.7331L214.481 97.7747ZM218.307 98.9713C218.946 99.1799 219.577 99.3898 220.2 99.6L219.881 100.548C219.26 100.338 218.632 100.129 217.997 99.9219L218.307 98.9713ZM222.099 100.249C222.735 100.468 223.363 100.688 223.984 100.905L223.653 101.849C223.033 101.632 222.406 101.413 221.772 101.194L222.099 100.249ZM225.859 101.564C226.496 101.788 227.125 102.009 227.746 102.226L227.417 103.17C226.794 102.953 226.164 102.732 225.528 102.508L225.859 101.564ZM229.632 102.876C230.268 103.093 230.896 103.303 231.517 103.506L231.206 104.457C230.581 104.252 229.948 104.04 229.31 103.823L229.632 102.876ZM233.406 104.106C234.046 104.302 234.679 104.489 235.306 104.664L235.036 105.627C234.4 105.449 233.759 105.26 233.112 105.062L233.406 104.106ZM237.223 105.168C237.872 105.327 238.515 105.471 239.151 105.599L238.955 106.579C238.303 106.449 237.647 106.301 236.986 106.14L237.223 105.168Z" fill="#CBFB45"></path><circle opacity="0.1" cx="279" cy="119.563" r="26" fill="#CBFB45"></circle><g clip-path="url(#clip0_364_1769)"><path d="M272 119.563V125.563C272 126.668 272.896 127.563 274 127.563H284C285.105 127.563 286 126.668 286 125.563V119.563" stroke="#CBFB45" stroke-width="2" stroke-linecap="round" stroke-linejoin="round"></path><path d="M273 113.563C273 112.459 273.896 111.563 275 111.563V111.563C277.209 111.563 279 113.354 279 115.563V115.563H275C273.896 115.563 273 114.668 273 113.563V113.563Z" stroke="#CBFB45" stroke-width="2" stroke-linejoin="round"></path><path d="M285 113.563C285 112.459 284.105 111.563 283 111.563V111.563C280.791 111.563 279 113.354 279 115.563V115.563H283C284.105 115.563 285 114.668 285 113.563V113.563Z" stroke="#CBFB45" stroke-width="2" stroke-linejoin="round"></path><rect x="271" y="115.563" width="16" height="4" stroke="#CBFB45" stroke-width="2" stroke-linecap="round" stroke-linejoin="round"></rect><path d="M279 119.563V127.563" stroke="#CBFB45" stroke-width="2" stroke-linecap="round" stroke-linejoin="round"></path></g><defs><clipPath id="clip0_364_1769"><rect width="24" height="24" fill="white" transform="translate(267 107.563)"></rect></clipPath></defs></svg>