<svg xmlns="http://www.w3.org/2000/svg" width="207" height="32" viewBox="0 0 207 32" fill="none"><path d="M44.2 17.528C44.2 22.472 47.512 26.24 52.888 26.24C57.616 26.24 60.736 23.648 61.24 19.448H57.4C57.016 21.68 55.24 22.88 52.936 22.88C49.984 22.88 48.04 21.032 48.04 17.528C48.04 14.048 49.984 12.2 52.936 12.2C55.24 12.2 57.016 13.376 57.4 15.608H61.24C60.736 11.432 57.616 8.84 52.888 8.84C47.512 8.84 44.2 12.608 44.2 17.528ZM63.1431 26H66.9831V17.096L73.1511 17.24V13.88L65.2071 13.688C63.8871 13.664 63.1431 14.384 63.1431 15.704V26ZM84.7024 13.88L82.0624 20.552V22.472H81.1024V20.552L78.4384 13.88H74.1184L79.6624 25.28V27.584L75.5104 27.512V30.872L81.4384 31.04C82.7584 31.088 83.5024 30.368 83.5024 29.024V25.28L89.0464 13.88H84.7024ZM90.2369 13.88V30.56H94.0769V25.256L93.3569 23.096H94.3169C94.9409 24.704 96.0929 26.24 99.0929 26.24C102.597 26.24 104.349 23.384 104.349 19.952C104.349 16.52 102.597 13.64 99.0929 13.64C96.0929 13.64 94.9409 15.176 94.3169 16.784H93.3569L94.0769 14.624V13.88H90.2369ZM94.0769 19.952C94.0769 17.888 95.2289 17 97.2929 17C99.3569 17 100.509 17.888 100.509 19.952C100.509 22.016 99.3569 22.88 97.2929 22.88C95.2289 22.88 94.0769 22.016 94.0769 19.952ZM111.554 22.88V17.24H115.538V13.88H111.554V10.4L107.714 11.6V13.88H104.834V17.24H107.714V24.2C107.714 25.52 108.434 26.288 109.754 26.24L116.018 26V22.64L111.554 22.88ZM116.968 19.784C116.968 23.216 119.104 26.24 123.76 26.24C127.96 26.24 129.952 23.48 130.192 21.728H126.352C126.112 22.64 125.104 23.12 123.76 23.12C121.576 23.12 120.568 22.136 120.568 20.744H129.76V19.544C129.76 15.872 127.12 13.64 123.352 13.64C119.584 13.64 116.968 15.944 116.968 19.784ZM120.568 18.584C120.568 17.672 121.216 16.76 123.352 16.76C125.488 16.76 126.16 17.672 126.16 18.584H120.568ZM131.382 19.928C131.382 23.984 134.142 26.24 138.006 26.24C141.318 26.24 144.342 24.44 144.51 20.984H140.67C140.526 22.064 139.542 22.88 138.006 22.88C136.182 22.88 135.222 21.8 135.222 19.928C135.222 18.08 136.182 17 138.006 17C139.542 17 140.526 17.816 140.67 18.896H144.51C144.342 15.44 141.318 13.64 138.006 13.64C134.142 13.64 131.382 15.896 131.382 19.928ZM155.476 26H159.844L155.74 19.784L157.612 18.92C158.668 18.416 159.124 17.672 159.124 16.52V13.88H155.284L155.332 16.064L149.788 18.608V8.36H145.948V26H149.788V22.568L152.452 21.32L155.476 26ZM162.003 26H168.243C172.659 26 176.187 25.352 176.187 21.512C176.187 17.912 173.451 17.672 170.883 17.576V16.616C172.682 16.472 174.939 16.4 174.939 13.232C174.939 9.896 172.659 9.08 167.955 9.08H162.003V26ZM165.843 15.512V12.44H168.435C169.995 12.44 171.099 12.44 171.099 13.976C171.099 15.512 169.995 15.512 168.435 15.512H165.843ZM165.843 22.64V18.872H168.723C171.003 18.872 172.347 18.872 172.347 20.768C172.347 22.64 171.003 22.64 168.723 22.64H165.843ZM189.15 12.44V9.08H177.63V12.44H181.47V22.64H177.63V26H189.15V22.64H185.31V12.44H189.15ZM205.976 9.08H191.072V12.44H196.616V26H200.456V12.44H205.976V9.08Z" fill="#161617"></path><path d="M31.283 10.0314C29.7203 7.05272 27.2018 4.68575 24.1321 3.31067C21.0623 1.93558 17.6194 1.63219 14.3565 2.44923C11.0935 3.26627 8.19992 5.15632 6.1404 7.81578C4.08088 10.4752 2.97501 13.7498 3.00043 17.1133C3.02584 20.4769 4.18107 23.7343 6.28053 26.3624C8.38 28.9904 11.3019 30.8365 14.5768 31.6042C17.8517 32.3718 21.2896 32.0164 24.3382 30.5951C27.3869 29.1738 29.8693 26.769 31.3868 23.7671L24.2426 20.1557C23.5349 21.5555 22.3773 22.6769 20.9557 23.3397C19.534 24.0025 17.9308 24.1682 16.4037 23.8103C14.8765 23.4523 13.514 22.5914 12.5349 21.3659C11.5559 20.1404 11.0172 18.6214 11.0053 17.0528C10.9935 15.4843 11.5092 13.9573 12.4696 12.7172C13.43 11.477 14.7794 10.5956 16.3009 10.2146C17.8225 9.83362 19.428 9.9751 20.8595 10.6163C22.291 11.2576 23.4655 12.3613 24.1942 13.7504L31.283 10.0314Z" fill="#7D32F9"></path><rect x="33" y="6" width="3" height="3" fill="#7D32F9"></rect><rect x="36" y="1" width="3" height="3" fill="#7D32F9"></rect><rect x="30" width="3" height="3" fill="#7D32F9"></rect><rect y="16" width="18" height="2" fill="#7D32F9"></rect></svg>