<svg xmlns="http://www.w3.org/2000/svg" width="417" height="349" viewBox="0 0 417 349" fill="none"><path opacity="0.5792" d="M98.765 0V36.2463L98.651 36.3603L95.688 38.07L48.4992 65.5397L45.9916 67.0215L45.6497 67.1354L45.4217 67.3634L45.1938 67.1354L44.8518 67.0215L42.3442 65.5397L-4.84435 38.07L-7.35195 36.5882L-7.57993 36.4743L-7.92188 36.2463V10H-7.35195V35.9044L-4.5024 37.5001L42.6862 65.0838L45.1938 66.4515L45.4217 66.6795L45.6497 66.4515L48.1573 65.0838L95.346 37.5001L98.195 35.9044V0H98.765Z" fill="url(#paint0_linear_287_1344)"></path><path opacity="0.9699" d="M98.765 0V36.2463L98.651 36.3603L95.688 38.07L48.4992 65.5397L45.9916 67.0215L45.6497 67.1354L45.4217 67.3634L45.1938 67.1354L44.8518 67.0215L42.3442 65.5397L-4.84435 38.07L-7.35195 36.5882L-7.57993 36.4743L-7.92188 36.2463V10H-7.35195V35.9044L-4.5024 37.5001L42.6862 65.0838L45.1938 66.4515L45.4217 66.6795L45.6497 66.4515L48.1573 65.0838L95.346 37.5001L98.195 35.9044V0H98.765Z" fill="url(#paint1_linear_287_1344)"></path><path opacity="0.9574" d="M54.8781 0L48.4951 3.76141L45.7595 5.35716L45.5315 5.47114L45.1896 5.35716L42.454 3.76141L35.957 0H37.0969L42.682 3.1915L45.4175 4.78725L48.1531 3.1915L53.7382 0H54.8781Z" fill="url(#paint2_linear_287_1344)"></path><path opacity="0.9474" d="M45.1945 67.1356L44.8525 67.0216L42.3449 68.3894L-7.35126 97.3409V98.0248L42.5729 68.9593L45.0805 67.4776L45.4224 67.3636L45.1945 67.1356ZM125.552 113.298L124.982 112.956L98.994 97.9108L98.766 97.7968L98.424 97.5688L48.5 68.3894L45.9924 67.0216L45.6504 66.9077L45.5364 66.7937L45.4224 66.6797L45.0805 66.9077L44.8525 67.0216L42.3449 68.3894L-7.35126 97.3409L-7.92117 97.6828V98.3667L-7.35126 98.0248L42.5729 68.9593L45.0805 67.4776L45.4224 67.3636L45.6504 67.4776L48.158 68.9593L97.854 97.9108L98.196 98.0248L98.538 98.2527L98.88 98.3667L124.64 113.526L125.21 113.868L151.198 129.028V252.242L98.766 282.79L98.424 282.903L98.082 283.131L97.854 283.245L71.8663 298.405L71.2964 298.747L45.3085 313.907L19.3205 298.747L18.7506 298.405L-7.46525 283.131L-8.03516 282.79V283.473L-7.46525 283.815L18.6367 298.861L19.2066 299.203L45.3085 314.363L45.4224 314.477L71.6383 299.203L72.2082 298.861L98.424 283.587L98.652 283.473L98.88 283.359L151.54 252.698L151.654 252.584V128.572L125.552 113.298Z" fill="url(#paint3_linear_287_1344)"></path><path opacity="0.8086" d="M175.245 111.36L151.536 97.5684L124.979 113.07L124.637 113.184V144.415L151.195 159.803L151.536 160.031L151.878 159.803L175.359 146.125L178.436 144.301V113.184L175.245 111.36ZM177.752 144.073L175.017 145.669L151.878 159.119L151.536 159.347L151.195 159.119L125.207 143.959V113.526L125.435 113.412L151.423 98.2523L174.903 111.93L177.638 113.526V144.073H177.752Z" fill="url(#paint4_linear_287_1344)"></path><path opacity="0.5531" d="M71.9803 298.405L45.4225 283.017L18.8647 298.405L18.6367 298.519V329.75L45.4225 345.366L72.2083 329.75V298.519L71.9803 298.405ZM71.6384 329.408L45.4225 344.682L19.2066 329.408V298.861L19.5486 298.747L45.5365 283.587L71.5244 298.747L71.7524 298.861V329.408H71.6384Z" fill="url(#paint5_linear_287_1344)"></path><path opacity="0.9538" d="M160.996 0L151.535 5.47114L141.961 0H143.101L151.535 4.90123L159.856 0H160.996Z" fill="url(#paint6_linear_287_1344)"></path><path opacity="0.8754" d="M310.886 0V36.2463L310.658 36.4743L307.809 38.07L284.329 51.7479L283.759 51.9758L257.885 67.1354L257.543 67.3634L257.315 67.1354L231.327 51.9758L230.757 51.7479L204.199 36.2463V0H204.769V35.9044L231.099 51.178L231.555 51.5199L257.315 66.4515L257.543 66.6795L257.885 66.4515L283.531 51.5199L284.101 51.178L307.581 37.5001L310.317 35.9044V0H310.886Z" fill="url(#paint7_linear_287_1344)"></path><path opacity="0.5051" d="M98.765 0V36.2463L98.651 36.3603L95.688 38.07L48.4992 65.5397L45.9916 67.0215L45.6497 67.1354L45.4217 67.3634L45.1938 67.1354L44.8518 67.0215L42.3442 65.5397L-4.84435 38.07L-7.35195 36.5882L-7.57993 36.4743L-7.92188 36.2463V30H-7.35195V35.9044L-4.5024 37.5001L42.6862 65.0838L45.1938 66.4515L45.4217 66.6795L45.6497 66.4515L48.1573 65.0838L95.346 37.5001L98.195 35.9044V0H98.765Z" fill="url(#paint8_linear_287_1344)"></path><path opacity="0.8517" d="M257.886 5.01521V128.914L257.658 129.028L257.316 129.256L247.4 135.069L244.892 136.551L244.322 136.778L241.472 138.488L207.62 158.207L204.77 159.803L204.656 159.917L201.807 161.627L154.504 189.096L151.997 190.578L151.769 190.692L151.541 190.92L151.199 190.692L150.971 190.578L148.463 189.096L136.153 181.915L101.274 161.627L98.425 160.031L98.197 159.803L97.855 159.689L95.347 158.207L48.1588 130.737L45.6512 129.256L45.1953 128.914V5.01521L45.3093 4.90123H45.4233L48.1588 3.1915L53.744 0H54.8838L48.5008 3.76141L45.6512 5.35716V128.572L45.9932 128.8L48.5008 130.282L95.689 157.751L98.197 159.233L98.767 159.575L101.502 161.171L143.904 185.791L148.691 188.64L151.199 190.122L151.541 190.236L151.769 190.122L154.276 188.64L160.887 184.765L201.465 161.171L204.2 159.461L204.77 159.233L207.278 157.751L241.244 137.918L243.98 136.323L244.55 135.981L247.058 134.499L256.974 128.8L257.316 128.572V5.35716L248.083 0H249.223L257.544 4.90123L257.886 5.01521Z" fill="url(#paint9_linear_287_1344)"></path><path opacity="0.61" d="M268.027 119.111L260.618 114.78L257.882 113.184L257.54 113.07L257.198 113.184L254.463 114.78L244.205 120.707L243.977 120.821V136.551L244.319 136.778L247.054 138.374L257.198 144.301L257.54 144.415L257.882 144.301L271.104 136.551V120.821L268.027 119.111ZM270.534 136.323L257.882 143.731L257.54 143.959L257.198 143.731L247.282 137.918L244.774 136.437L244.433 136.323V121.163L244.66 121.049L254.577 115.236L257.085 113.754L257.426 113.526L257.768 113.754L260.276 115.236L267.685 119.567L270.42 121.163V136.323H270.534Z" fill="url(#paint10_linear_287_1344)"></path><path opacity="0.6181" d="M45.1938 67.1357L44.8518 67.0217L42.3442 68.3895L-7.35195 97.3409V98.0248L42.5722 68.9594L45.0798 67.4776L45.4217 67.3636L45.1938 67.1357ZM98.195 159.803V159.461L97.854 159.575L95.346 161.057L48.1573 188.526L45.6497 190.008L45.4217 190.122L45.6497 190.236L45.9916 190.464L48.4993 188.982L95.688 161.513L98.423 159.917L98.195 159.803ZM45.1938 67.1357L44.8518 67.0217L42.3442 68.3895L-7.35195 97.3409V98.0248L42.5722 68.9594L45.0798 67.4776L45.4217 67.3636L45.1938 67.1357ZM98.195 159.803V159.461L97.854 159.575L95.346 161.057L48.1573 188.526L45.6497 190.008L45.4217 190.122L45.6497 190.236L45.9916 190.464L48.4993 188.982L95.688 161.513L98.423 159.917L98.195 159.803ZM45.1938 67.1357L44.8518 67.0217L42.3442 68.3895L-7.35195 97.3409V98.0248L42.5722 68.9594L45.0798 67.4776L45.4217 67.3636L45.1938 67.1357ZM98.423 97.5689L48.4993 68.3895L45.9916 67.0217L45.6497 66.9077L45.5357 66.7937L45.4217 66.6797L45.0798 66.9077L44.8518 67.0217L42.3442 68.3895L-7.35195 97.3409L-7.92188 97.6829V159.803L42.3442 189.096L44.8518 190.578L45.0798 190.692L45.4217 190.92L45.6497 190.806L45.9916 190.692L48.4993 189.21L95.688 161.741L98.423 160.145L98.537 160.031L98.651 159.917V97.6829L98.423 97.5689ZM98.195 159.461L97.854 159.575L95.346 161.057L48.1573 188.526L45.6497 190.008L45.4217 190.122L45.0798 190.008L42.5722 188.526L-7.35195 159.461V98.0248L42.5722 68.9594L45.0798 67.4776L45.4217 67.3636L45.6497 67.4776L48.1573 68.9594L97.854 97.9108L98.195 98.0248V159.461ZM45.1938 67.1357L44.8518 67.0217L42.3442 68.3895L-7.35195 97.3409V98.0248L42.5722 68.9594L45.0798 67.4776L45.4217 67.3636L45.1938 67.1357ZM98.195 159.803V159.461L97.854 159.575L95.346 161.057L48.1573 188.526L45.6497 190.008L45.4217 190.122L45.6497 190.236L45.9916 190.464L48.4993 188.982L95.688 161.513L98.423 159.917L98.195 159.803ZM45.1938 67.1357L44.8518 67.0217L42.3442 68.3895L-7.35195 97.3409V98.0248L42.5722 68.9594L45.0798 67.4776L45.4217 67.3636L45.1938 67.1357ZM98.195 159.233V159.575L97.854 159.689L95.346 161.171L48.1573 188.64L45.6497 190.122L45.4217 190.236L45.6497 190.35L45.9916 190.578L48.4993 189.096L95.688 161.627L98.423 160.031L98.537 159.917L98.651 159.803V159.575L98.195 159.233Z" fill="url(#paint11_linear_287_1344)"></path><path opacity="0.876" d="M257.313 128.23L244.889 121.049L244.319 120.707L204.881 97.6825L151.651 66.6794L151.537 66.5654L98.422 97.5685L98.194 97.6825L97.852 97.9105L48.1556 126.862L45.648 128.344L45.1921 128.572L45.0781 128.686V252.584L97.852 283.36L98.08 283.473L98.422 283.587L124.638 298.861L125.208 299.203L148.346 312.653L151.309 314.363L151.423 314.477L154.501 312.653L177.639 299.203L178.209 298.861L204.539 283.473L204.653 283.36L257.541 252.584L257.655 252.47V128.572L257.313 128.23ZM257.313 252.242L204.881 282.79L204.311 283.132L178.095 298.405L177.525 298.747L154.273 312.197L151.537 313.793L148.802 312.197L125.663 298.747L125.094 298.405L99.106 283.246L98.878 283.132L98.536 282.904L98.194 282.79L45.762 252.242V128.914L45.99 128.8L48.4976 127.318L98.194 98.3664L98.536 98.2524L98.878 98.0244L99.106 97.9105L151.537 67.3633L204.311 98.1384L204.881 98.4804L244.091 121.277L244.661 121.619L257.085 128.8L257.427 128.914V252.242H257.313Z" fill="url(#paint12_linear_287_1344)"></path><path opacity="0.5845" d="M177.98 298.405L151.423 283.017L124.865 298.405L124.637 298.519V329.75L148.345 343.542L151.423 345.366L154.5 343.542L178.208 329.75V298.519L177.98 298.405ZM177.752 329.408L154.272 343.086L151.536 344.682L148.801 343.086L125.321 329.408V298.861L125.663 298.747L151.65 283.587L177.638 298.747L177.98 298.861V329.408H177.752Z" fill="url(#paint13_linear_287_1344)"></path><path opacity="0.5432" d="M95.688 219.53L48.4992 192.06L45.9916 190.578L45.6497 190.692L45.4217 190.806L45.6497 190.92L48.1573 192.402L95.46 219.985L98.195 221.581V221.239L98.423 221.125L95.688 219.53ZM98.423 221.125L95.688 219.53L48.4992 192.06C48.3853 192.288 48.3853 192.402 48.2713 192.516L95.46 219.985L98.195 221.581V283.018L98.537 282.79L98.879 282.676V221.239L98.423 221.125ZM98.423 221.125L95.688 219.53L48.4992 192.06C48.3853 192.288 48.3853 192.402 48.2713 192.516L95.46 219.985L98.195 221.581V283.018L98.537 282.79L98.879 282.676V221.239L98.423 221.125ZM98.423 221.125L95.688 219.53L48.4992 192.06L45.9916 190.578L45.6497 190.35L45.4217 190.236L45.0798 190.464L44.8518 190.578L42.3442 192.06L-7.92188 221.239V283.36L-7.35195 283.701L18.6359 298.861L19.2059 299.203L45.3078 314.363L45.4217 314.477L71.6376 299.203L72.2075 298.861L98.423 283.587L98.651 283.473V221.353L98.423 221.125ZM71.4097 298.747L45.4217 313.907L19.4338 298.747L18.8639 298.405L-7.35195 283.132V221.695L42.5722 192.63L45.0798 191.148L45.4217 190.92L45.6497 191.034L48.1573 192.516L95.46 219.985L98.195 221.581V283.018L97.967 283.132L71.9796 298.291L71.4097 298.747ZM98.423 221.125L95.688 219.53L48.4992 192.06C48.3853 192.288 48.3853 192.402 48.2713 192.516L95.46 219.985L98.195 221.581V283.018L98.537 282.79L98.879 282.676V221.239L98.423 221.125ZM98.423 221.125L95.688 219.53L48.4992 192.06C48.3853 192.288 48.3853 192.402 48.2713 192.516L95.46 219.985L98.195 221.581V283.018L98.537 282.79L98.879 282.676V221.239L98.423 221.125Z" fill="url(#paint14_linear_287_1344)"></path><path opacity="0.8471" d="M416.996 0V36.2463L366.73 65.5397L363.652 67.3634L360.575 65.5397L313.386 38.07L310.651 36.4743L310.309 36.2463V0H310.879V35.9044L313.614 37.5001L360.917 65.0838L363.652 66.6795L366.388 65.0838L416.426 35.9044V0H416.996Z" fill="url(#paint15_linear_287_1344)"></path><path opacity="0.7774" d="M284.098 51.1776L257.882 35.904L257.54 35.79L257.198 35.904L230.983 51.1776L230.641 51.2915V82.5226L254.349 96.3145L257.084 97.9102L257.426 98.1382L257.768 97.9102L260.504 96.3145L284.212 82.5226V51.4055L284.098 51.1776ZM283.756 82.2947L260.276 95.9725L257.768 97.4543L257.426 97.5683L257.084 97.4543L254.577 95.9725L231.097 82.2947V51.7475L231.438 51.6335L257.084 36.7018L257.426 36.4739L257.768 36.7018L283.414 51.6335L283.756 51.7475V82.2947Z" fill="url(#paint16_linear_287_1344)"></path><path opacity="0.6187" d="M267.117 0L257.884 5.35716L257.543 5.47114L257.315 5.35716L248.082 0H249.222L257.543 4.90123L265.977 0H267.117Z" fill="url(#paint17_linear_287_1344)"></path><path opacity="0.6525" d="M390.443 0V20.8587L387.365 22.5685L363.657 36.4743L339.835 22.5685L336.871 20.8587V0H337.441V20.5168L340.177 22.1125L363.657 35.7904L387.137 22.1125L389.873 20.5168V0H390.443Z" fill="url(#paint18_linear_287_1344)"></path><path opacity="0.6134" d="M416.996 0V36.2463L366.73 65.5397L363.652 67.3634L360.575 65.5397L313.386 38.07L310.651 36.4743L310.309 36.2463V0H310.879V35.9044L313.614 37.5001L360.917 65.0838L363.652 66.6795L366.388 65.0838L416.426 35.9044V0H416.996Z" fill="url(#paint19_linear_287_1344)"></path><path opacity="0.951" d="M143.902 185.791L101.501 161.057L98.765 159.461V159.803L98.651 159.917L98.537 160.031L101.273 161.627L136.151 181.915L148.461 189.096C148.575 188.868 148.575 188.754 148.689 188.64L143.902 185.791ZM151.197 190.122L148.689 188.64L143.902 185.905L101.501 161.171L98.765 159.575V159.917L98.651 160.031L98.537 160.145L101.273 161.741L136.151 182.029L148.461 189.21L150.969 190.692L151.197 190.578L151.539 190.35L151.197 190.122ZM151.197 190.122L148.689 188.64L143.902 185.905L101.501 161.171L98.765 159.575V159.917L98.651 160.031L98.537 160.145L101.273 161.741L136.151 182.029L148.461 189.21L150.969 190.692L151.197 190.578L151.539 190.35L151.197 190.122ZM151.653 66.7937L151.539 66.6797L98.423 97.5689L98.195 97.6828V159.803L98.537 160.031L101.273 161.627L136.151 181.915L148.461 189.096L150.969 190.578L151.197 190.692L151.539 190.92L151.881 190.692L152.109 190.578L154.616 189.096L201.805 161.627L204.769 159.917L204.883 159.803V97.6828L151.653 66.7937ZM204.199 159.461L201.463 161.057L160.885 184.765L154.274 188.64L151.767 190.122L151.425 190.236L151.083 190.122L148.575 188.64L143.788 185.905L101.387 161.171L98.651 159.575V98.0248L98.879 97.9108L151.311 67.3636L204.085 98.1388V159.461H204.199ZM151.197 190.122L148.689 188.64L143.902 185.905L101.501 161.171L98.765 159.575V159.917L98.651 160.031L98.537 160.145L101.273 161.741L136.151 182.029L148.461 189.21L150.969 190.692L151.197 190.578L151.539 190.35L151.197 190.122ZM101.501 161.171L98.765 159.575L101.501 161.171L143.902 185.905L101.501 161.171Z" fill="url(#paint20_linear_287_1344)"></path><path opacity="0.6699" d="M151.198 190.692L150.97 190.578L148.462 192.06L101.274 219.53C101.388 219.644 101.501 219.871 101.501 219.985L148.69 192.516L151.198 191.034L151.54 190.806L151.198 190.692ZM151.198 190.692L150.97 190.578L148.462 192.06L101.274 219.53L98.424 221.125L98.766 221.239V221.581L101.501 219.985L148.69 192.516L151.198 191.034L151.54 190.806L151.198 190.692ZM151.198 190.692L150.97 190.578L148.462 192.06L101.274 219.53L98.424 221.125L98.766 221.239V221.581L101.501 219.985L148.69 192.516L151.198 191.034L151.54 190.806L151.198 190.692ZM154.503 192.06L151.996 190.578L151.768 190.464L151.654 190.35L151.54 190.236L151.198 190.464L150.97 190.578L148.462 192.06L101.274 219.53L98.424 221.125L98.082 221.239V283.36L98.424 283.473L124.64 298.747L125.21 299.089L148.348 312.539L151.312 314.249L151.426 314.363L154.503 312.539L177.642 299.089L178.211 298.747L204.541 283.36L204.655 283.246V221.125L154.503 192.06ZM177.983 298.405L177.414 298.747L154.275 312.197L151.54 313.793L148.804 312.197L125.666 298.747L125.096 298.405L99.108 283.246L98.88 283.132V221.695L101.615 220.099L148.804 192.63L151.312 191.148L151.654 190.92L151.996 191.148L154.503 192.63L204.427 221.695V283.132L177.983 298.405ZM151.198 190.692L150.97 190.578L148.462 192.06L101.274 219.53L98.424 221.125L98.766 221.239V221.581L101.501 219.985L148.69 192.516L151.198 191.034L151.54 190.806L151.198 190.692ZM151.198 190.692V191.034L151.54 190.806L151.198 190.692Z" fill="url(#paint21_linear_287_1344)"></path><path opacity="0.9074" d="M101.843 36.1323C101.843 38.07 100.361 39.5518 98.423 39.5518C96.6 39.5518 95.004 38.07 95.004 36.1323C95.004 34.1946 96.486 32.7129 98.423 32.7129C100.361 32.7129 101.843 34.1946 101.843 36.1323Z" fill="url(#paint22_linear_287_1344)"></path><path opacity="0.6002" d="M48.8389 67.021C48.8389 68.9587 47.3572 70.4405 45.4195 70.4405C43.5957 70.4405 42 68.9587 42 67.021C42 65.0833 43.4818 63.6016 45.4195 63.6016C47.2432 63.6016 48.8389 65.0833 48.8389 67.021Z" fill="url(#paint23_linear_287_1344)"></path><path opacity="0.9917" d="M181.401 144.187C181.401 146.125 179.92 147.607 177.982 147.607C176.158 147.607 174.562 146.125 174.562 144.187C174.562 142.25 176.044 140.768 177.982 140.768C179.92 140.768 181.401 142.364 181.401 144.187Z" fill="url(#paint24_linear_287_1344)"></path><path opacity="0.9612" d="M181.401 113.298C181.401 115.236 179.92 116.718 177.982 116.718C176.158 116.718 174.562 115.236 174.562 113.298C174.562 111.361 176.044 109.879 177.982 109.879C179.92 109.879 181.401 111.475 181.401 113.298Z" fill="url(#paint25_linear_287_1344)"></path><path opacity="0.6836" d="M313.964 36.1323C313.964 38.07 312.482 39.5518 310.544 39.5518C308.721 39.5518 307.125 38.07 307.125 36.1323C307.125 34.1946 308.607 32.7129 310.544 32.7129C312.482 32.7129 313.964 34.1946 313.964 36.1323Z" fill="url(#paint26_linear_287_1344)"></path><path opacity="0.7254" d="M101.843 36.1323C101.843 38.07 100.361 39.5518 98.423 39.5518C96.6 39.5518 95.004 38.07 95.004 36.1323C95.004 34.1946 96.486 32.7129 98.423 32.7129C100.361 32.7129 101.843 34.1946 101.843 36.1323Z" fill="url(#paint27_linear_287_1344)"></path><path opacity="0.5217" d="M48.8389 128.8C48.8389 130.737 47.3572 132.219 45.4195 132.219C43.5957 132.219 42 130.737 42 128.8C42 126.862 43.4818 125.38 45.4195 125.38C47.2432 125.38 48.8389 126.862 48.8389 128.8Z" fill="url(#paint28_linear_287_1344)"></path><path opacity="0.758" d="M48.8389 5.2427C48.8389 7.18039 47.3572 8.66216 45.4195 8.66216C43.5957 8.66216 42 7.18039 42 5.2427C42 3.305 43.4818 1.82324 45.4195 1.82324C47.2432 1.82324 48.8389 3.305 48.8389 5.2427Z" fill="url(#paint29_linear_287_1344)"></path><path opacity="0.5672" d="M247.741 136.551C247.741 138.488 246.26 139.97 244.322 139.97C242.498 139.97 240.902 138.488 240.902 136.551C240.902 134.613 242.384 133.131 244.322 133.131C246.146 133.131 247.741 134.613 247.741 136.551Z" fill="url(#paint30_linear_287_1344)"></path><path opacity="0.6639" d="M274.183 121.049C274.183 122.987 272.701 124.468 270.763 124.468C268.939 124.468 267.344 122.987 267.344 121.049C267.344 119.111 268.826 117.63 270.763 117.63C272.701 117.63 274.183 119.225 274.183 121.049Z" fill="url(#paint31_linear_287_1344)"></path><path opacity="0.7845" d="M260.964 113.298C260.964 115.236 259.482 116.718 257.544 116.718C255.721 116.718 254.125 115.236 254.125 113.298C254.125 111.361 255.607 109.879 257.544 109.879C259.482 109.879 260.964 111.475 260.964 113.298Z" fill="url(#paint32_linear_287_1344)"></path><path opacity="0.8686" d="M154.843 345.023C154.843 346.96 153.361 348.443 151.423 348.443C149.6 348.443 148.004 346.96 148.004 345.023C148.004 343.085 149.486 341.604 151.423 341.604C153.361 341.604 154.843 343.199 154.843 345.023Z" fill="url(#paint33_linear_287_1344)"></path><path opacity="0.9438" d="M101.843 221.467C101.843 223.405 100.361 224.887 98.423 224.887C96.6 224.887 95.004 223.405 95.004 221.467C95.004 219.529 96.486 218.048 98.423 218.048C100.361 218.048 101.843 219.529 101.843 221.467Z" fill="url(#paint34_linear_287_1344)"></path><path opacity="0.8488" d="M48.8389 190.578C48.8389 192.516 47.3572 193.998 45.4195 193.998C43.5957 193.998 42 192.516 42 190.578C42 188.64 43.4818 187.159 45.4195 187.159C47.2432 187.159 48.8389 188.64 48.8389 190.578Z" fill="url(#paint35_linear_287_1344)"></path><path opacity="0.5604" d="M313.964 36.1323C313.964 38.07 312.482 39.5518 310.544 39.5518C308.721 39.5518 307.125 38.07 307.125 36.1323C307.125 34.1946 308.607 32.7129 310.544 32.7129C312.482 32.7129 313.964 34.1946 313.964 36.1323Z" fill="url(#paint36_linear_287_1344)"></path><path opacity="0.8646" d="M366.968 67.021C366.968 68.9587 365.486 70.4405 363.548 70.4405C361.725 70.4405 360.129 68.9587 360.129 67.021C360.129 65.0833 361.611 63.6016 363.548 63.6016C365.486 63.6016 366.968 65.0833 366.968 67.021Z" fill="url(#paint37_linear_287_1344)"></path><path opacity="0.5312" d="M260.964 97.9107C260.964 99.8484 259.482 101.33 257.544 101.33C255.721 101.33 254.125 99.8484 254.125 97.9107C254.125 95.973 255.607 94.4912 257.544 94.4912C259.482 94.4912 260.964 95.973 260.964 97.9107Z" fill="url(#paint38_linear_287_1344)"></path><path opacity="0.7235" d="M340.519 20.6304C340.519 22.5681 339.037 24.0498 337.099 24.0498C335.275 24.0498 333.68 22.5681 333.68 20.6304C333.68 18.6927 335.161 17.2109 337.099 17.2109C339.037 17.2109 340.519 18.8066 340.519 20.6304Z" fill="url(#paint39_linear_287_1344)"></path><path opacity="0.5885" d="M393.523 20.6304C393.523 22.5681 392.041 24.0498 390.103 24.0498C388.279 24.0498 386.684 22.5681 386.684 20.6304C386.684 18.6927 388.165 17.2109 390.103 17.2109C392.041 17.2109 393.523 18.8066 393.523 20.6304Z" fill="url(#paint40_linear_287_1344)"></path><path opacity="0.8858" d="M101.843 159.689C101.843 161.627 100.361 163.108 98.423 163.108C96.6 163.108 95.004 161.627 95.004 159.689C95.004 157.751 96.486 156.269 98.423 156.269C100.361 156.269 101.843 157.751 101.843 159.689Z" fill="url(#paint41_linear_287_1344)"></path><path opacity="0.5875" d="M207.96 159.689C207.96 161.627 206.478 163.108 204.541 163.108C202.603 163.108 201.121 161.627 201.121 159.689C201.121 157.751 202.603 156.269 204.541 156.269C206.478 156.269 207.96 157.751 207.96 159.689Z" fill="url(#paint42_linear_287_1344)"></path><path opacity="0.6677" d="M154.843 314.135C154.843 316.072 153.361 317.554 151.423 317.554C149.6 317.554 148.004 316.072 148.004 314.135C148.004 312.197 149.486 310.715 151.423 310.715C153.361 310.715 154.843 312.311 154.843 314.135Z" fill="url(#paint43_linear_287_1344)"></path><path opacity="0.779" d="M154.843 190.578C154.843 192.516 153.361 193.998 151.423 193.998C149.6 193.998 148.004 192.516 148.004 190.578C148.004 188.64 149.486 187.159 151.423 187.159C153.361 187.159 154.843 188.64 154.843 190.578Z" fill="url(#paint44_linear_287_1344)"></path><defs><linearGradient id="paint0_linear_287_1344" x1="-7.92187" y1="34.1561" x2="98.765" y2="34.1561" gradientUnits="userSpaceOnUse"><stop stop-color="#00B2FF"></stop><stop offset="1" stop-color="#00FFC2"></stop></linearGradient><linearGradient id="paint1_linear_287_1344" x1="-7.92187" y1="34.1561" x2="98.765" y2="34.1561" gradientUnits="userSpaceOnUse"><stop stop-color="#00B2FF"></stop><stop offset="1" stop-color="#00FFC2"></stop></linearGradient><linearGradient id="paint2_linear_287_1344" x1="35.957" y1="2.7741" x2="54.8781" y2="2.7741" gradientUnits="userSpaceOnUse"><stop stop-color="#00B2FF"></stop><stop offset="1" stop-color="#00FFC2"></stop></linearGradient><linearGradient id="paint3_linear_287_1344" x1="-8.03516" y1="192.323" x2="151.654" y2="192.323" gradientUnits="userSpaceOnUse"><stop stop-color="#00B2FF"></stop><stop offset="1" stop-color="#00FFC2"></stop></linearGradient><linearGradient id="paint4_linear_287_1344" x1="124.637" y1="129.24" x2="178.436" y2="129.24" gradientUnits="userSpaceOnUse"><stop stop-color="#00B2FF"></stop><stop offset="1" stop-color="#00FFC2"></stop></linearGradient><linearGradient id="paint5_linear_287_1344" x1="18.6367" y1="314.631" x2="72.2083" y2="314.631" gradientUnits="userSpaceOnUse"><stop stop-color="#00B2FF"></stop><stop offset="1" stop-color="#00FFC2"></stop></linearGradient><linearGradient id="paint6_linear_287_1344" x1="141.961" y1="2.7741" x2="160.996" y2="2.7741" gradientUnits="userSpaceOnUse"><stop stop-color="#00B2FF"></stop><stop offset="1" stop-color="#00FFC2"></stop></linearGradient><linearGradient id="paint7_linear_287_1344" x1="204.199" y1="34.1561" x2="310.886" y2="34.1561" gradientUnits="userSpaceOnUse"><stop stop-color="#00B2FF"></stop><stop offset="1" stop-color="#00FFC2"></stop></linearGradient><linearGradient id="paint8_linear_287_1344" x1="-7.92187" y1="34.1561" x2="98.765" y2="34.1561" gradientUnits="userSpaceOnUse"><stop stop-color="#00B2FF"></stop><stop offset="1" stop-color="#00FFC2"></stop></linearGradient><linearGradient id="paint9_linear_287_1344" x1="45.1953" y1="96.8045" x2="257.886" y2="96.8045" gradientUnits="userSpaceOnUse"><stop stop-color="#00B2FF"></stop><stop offset="1" stop-color="#00FFC2"></stop></linearGradient><linearGradient id="paint10_linear_287_1344" x1="243.977" y1="128.963" x2="271.104" y2="128.963" gradientUnits="userSpaceOnUse"><stop stop-color="#00B2FF"></stop><stop offset="1" stop-color="#00FFC2"></stop></linearGradient><linearGradient id="paint11_linear_287_1344" x1="-7.92186" y1="129.675" x2="98.651" y2="129.675" gradientUnits="userSpaceOnUse"><stop stop-color="#00B2FF"></stop><stop offset="1" stop-color="#00FFC2"></stop></linearGradient><linearGradient id="paint12_linear_287_1344" x1="45.0781" y1="192.267" x2="257.655" y2="192.267" gradientUnits="userSpaceOnUse"><stop stop-color="#00B2FF"></stop><stop offset="1" stop-color="#00FFC2"></stop></linearGradient><linearGradient id="paint13_linear_287_1344" x1="124.637" y1="314.631" x2="178.208" y2="314.631" gradientUnits="userSpaceOnUse"><stop stop-color="#00B2FF"></stop><stop offset="1" stop-color="#00FFC2"></stop></linearGradient><linearGradient id="paint14_linear_287_1344" x1="-7.92187" y1="253.231" x2="98.879" y2="253.231" gradientUnits="userSpaceOnUse"><stop stop-color="#00B2FF"></stop><stop offset="1" stop-color="#00FFC2"></stop></linearGradient><linearGradient id="paint15_linear_287_1344" x1="310.309" y1="34.1561" x2="416.996" y2="34.1561" gradientUnits="userSpaceOnUse"><stop stop-color="#00B2FF"></stop><stop offset="1" stop-color="#00FFC2"></stop></linearGradient><linearGradient id="paint16_linear_287_1344" x1="230.641" y1="67.4031" x2="284.212" y2="67.4031" gradientUnits="userSpaceOnUse"><stop stop-color="#00B2FF"></stop><stop offset="1" stop-color="#00FFC2"></stop></linearGradient><linearGradient id="paint17_linear_287_1344" x1="248.082" y1="2.7741" x2="267.117" y2="2.7741" gradientUnits="userSpaceOnUse"><stop stop-color="#00B2FF"></stop><stop offset="1" stop-color="#00FFC2"></stop></linearGradient><linearGradient id="paint18_linear_287_1344" x1="336.871" y1="18.494" x2="390.443" y2="18.494" gradientUnits="userSpaceOnUse"><stop stop-color="#00B2FF"></stop><stop offset="1" stop-color="#00FFC2"></stop></linearGradient><linearGradient id="paint19_linear_287_1344" x1="310.309" y1="34.1561" x2="416.996" y2="34.1561" gradientUnits="userSpaceOnUse"><stop stop-color="#00B2FF"></stop><stop offset="1" stop-color="#00FFC2"></stop></linearGradient><linearGradient id="paint20_linear_287_1344" x1="98.195" y1="129.675" x2="204.883" y2="129.675" gradientUnits="userSpaceOnUse"><stop stop-color="#00B2FF"></stop><stop offset="1" stop-color="#00FFC2"></stop></linearGradient><linearGradient id="paint21_linear_287_1344" x1="98.082" y1="253.174" x2="204.655" y2="253.174" gradientUnits="userSpaceOnUse"><stop stop-color="#00B2FF"></stop><stop offset="1" stop-color="#00FFC2"></stop></linearGradient><linearGradient id="paint22_linear_287_1344" x1="95.004" y1="36.1805" x2="101.843" y2="36.1805" gradientUnits="userSpaceOnUse"><stop stop-color="#00B2FF"></stop><stop offset="1" stop-color="#00FFC2"></stop></linearGradient><linearGradient id="paint23_linear_287_1344" x1="42" y1="67.0692" x2="48.8389" y2="67.0692" gradientUnits="userSpaceOnUse"><stop stop-color="#00B2FF"></stop><stop offset="1" stop-color="#00FFC2"></stop></linearGradient><linearGradient id="paint24_linear_287_1344" x1="174.563" y1="144.235" x2="181.401" y2="144.235" gradientUnits="userSpaceOnUse"><stop stop-color="#00B2FF"></stop><stop offset="1" stop-color="#00FFC2"></stop></linearGradient><linearGradient id="paint25_linear_287_1344" x1="174.563" y1="113.346" x2="181.401" y2="113.346" gradientUnits="userSpaceOnUse"><stop stop-color="#00B2FF"></stop><stop offset="1" stop-color="#00FFC2"></stop></linearGradient><linearGradient id="paint26_linear_287_1344" x1="307.125" y1="36.1805" x2="313.964" y2="36.1805" gradientUnits="userSpaceOnUse"><stop stop-color="#00B2FF"></stop><stop offset="1" stop-color="#00FFC2"></stop></linearGradient><linearGradient id="paint27_linear_287_1344" x1="95.004" y1="36.1805" x2="101.843" y2="36.1805" gradientUnits="userSpaceOnUse"><stop stop-color="#00B2FF"></stop><stop offset="1" stop-color="#00FFC2"></stop></linearGradient><linearGradient id="paint28_linear_287_1344" x1="42" y1="128.848" x2="48.8389" y2="128.848" gradientUnits="userSpaceOnUse"><stop stop-color="#00B2FF"></stop><stop offset="1" stop-color="#00FFC2"></stop></linearGradient><linearGradient id="paint29_linear_287_1344" x1="42" y1="5.29086" x2="48.8389" y2="5.29086" gradientUnits="userSpaceOnUse"><stop stop-color="#00B2FF"></stop><stop offset="1" stop-color="#00FFC2"></stop></linearGradient><linearGradient id="paint30_linear_287_1344" x1="240.902" y1="136.599" x2="247.741" y2="136.599" gradientUnits="userSpaceOnUse"><stop stop-color="#00B2FF"></stop><stop offset="1" stop-color="#00FFC2"></stop></linearGradient><linearGradient id="paint31_linear_287_1344" x1="267.344" y1="121.097" x2="274.183" y2="121.097" gradientUnits="userSpaceOnUse"><stop stop-color="#00B2FF"></stop><stop offset="1" stop-color="#00FFC2"></stop></linearGradient><linearGradient id="paint32_linear_287_1344" x1="254.125" y1="113.346" x2="260.964" y2="113.346" gradientUnits="userSpaceOnUse"><stop stop-color="#00B2FF"></stop><stop offset="1" stop-color="#00FFC2"></stop></linearGradient><linearGradient id="paint33_linear_287_1344" x1="148.004" y1="345.072" x2="154.843" y2="345.072" gradientUnits="userSpaceOnUse"><stop stop-color="#00B2FF"></stop><stop offset="1" stop-color="#00FFC2"></stop></linearGradient><linearGradient id="paint34_linear_287_1344" x1="95.004" y1="221.515" x2="101.843" y2="221.515" gradientUnits="userSpaceOnUse"><stop stop-color="#00B2FF"></stop><stop offset="1" stop-color="#00FFC2"></stop></linearGradient><linearGradient id="paint35_linear_287_1344" x1="42" y1="190.626" x2="48.8389" y2="190.626" gradientUnits="userSpaceOnUse"><stop stop-color="#00B2FF"></stop><stop offset="1" stop-color="#00FFC2"></stop></linearGradient><linearGradient id="paint36_linear_287_1344" x1="307.125" y1="36.1805" x2="313.964" y2="36.1805" gradientUnits="userSpaceOnUse"><stop stop-color="#00B2FF"></stop><stop offset="1" stop-color="#00FFC2"></stop></linearGradient><linearGradient id="paint37_linear_287_1344" x1="360.129" y1="67.0692" x2="366.968" y2="67.0692" gradientUnits="userSpaceOnUse"><stop stop-color="#00B2FF"></stop><stop offset="1" stop-color="#00FFC2"></stop></linearGradient><linearGradient id="paint38_linear_287_1344" x1="254.125" y1="97.9589" x2="260.964" y2="97.9589" gradientUnits="userSpaceOnUse"><stop stop-color="#00B2FF"></stop><stop offset="1" stop-color="#00FFC2"></stop></linearGradient><linearGradient id="paint39_linear_287_1344" x1="333.68" y1="20.6785" x2="340.519" y2="20.6785" gradientUnits="userSpaceOnUse"><stop stop-color="#00B2FF"></stop><stop offset="1" stop-color="#00FFC2"></stop></linearGradient><linearGradient id="paint40_linear_287_1344" x1="386.684" y1="20.6785" x2="393.523" y2="20.6785" gradientUnits="userSpaceOnUse"><stop stop-color="#00B2FF"></stop><stop offset="1" stop-color="#00FFC2"></stop></linearGradient><linearGradient id="paint41_linear_287_1344" x1="95.004" y1="159.737" x2="101.843" y2="159.737" gradientUnits="userSpaceOnUse"><stop stop-color="#00B2FF"></stop><stop offset="1" stop-color="#00FFC2"></stop></linearGradient><linearGradient id="paint42_linear_287_1344" x1="201.121" y1="159.737" x2="207.96" y2="159.737" gradientUnits="userSpaceOnUse"><stop stop-color="#00B2FF"></stop><stop offset="1" stop-color="#00FFC2"></stop></linearGradient><linearGradient id="paint43_linear_287_1344" x1="148.004" y1="314.183" x2="154.843" y2="314.183" gradientUnits="userSpaceOnUse"><stop stop-color="#00B2FF"></stop><stop offset="1" stop-color="#00FFC2"></stop></linearGradient><linearGradient id="paint44_linear_287_1344" x1="148.004" y1="190.626" x2="154.843" y2="190.626" gradientUnits="userSpaceOnUse"><stop stop-color="#00B2FF"></stop><stop offset="1" stop-color="#00FFC2"></stop></linearGradient></defs></svg>