<svg xmlns="http://www.w3.org/2000/svg" width="38" height="10" viewBox="0 0 38 10" fill="none"><path d="M6.34961 0.485232C5.87943 0.162005 5.26589 0 4.50899 0H1.57867C1.34664 0 1.21844 0.116046 1.19409 0.347913L0.0037365 7.82008C-0.00863504 7.89347 0.00972628 7.96058 0.0586526 8.0216C0.107299 8.08273 0.168485 8.11313 0.241763 8.11313H1.63364C1.87777 8.11313 2.01196 7.99736 2.03659 7.76522L2.3662 5.75073C2.37823 5.6531 2.42117 5.57373 2.49445 5.5126C2.56767 5.45158 2.65925 5.41166 2.76914 5.39342C2.87903 5.37528 2.98265 5.3661 3.0805 5.3661C3.17807 5.3661 3.29401 5.37231 3.42852 5.38446C3.56271 5.39661 3.64825 5.40259 3.68491 5.40259C4.73487 5.40259 5.559 5.10674 6.15737 4.51437C6.75546 3.92233 7.05484 3.10133 7.05484 2.05104C7.05484 1.33069 6.81956 0.808794 6.34961 0.485063V0.485232ZM4.83877 2.72889C4.77753 3.1563 4.61899 3.43698 4.3626 3.57133C4.10616 3.70585 3.73988 3.7728 3.26378 3.7728L2.65936 3.79105L2.97078 1.83137C2.99507 1.69719 3.0744 1.63002 3.2088 1.63002H3.55689C4.04503 1.63002 4.39933 1.70038 4.6191 1.84055C4.83877 1.98106 4.91205 2.27725 4.83877 2.72889Z" fill="white"></path><path d="M37.2733 0H35.9182C35.7835 0 35.7042 0.0671763 35.68 0.201583L34.4896 7.82041L34.4712 7.85702C34.4712 7.91838 34.4956 7.97609 34.5446 8.03106C34.5931 8.08592 34.6545 8.11341 34.7276 8.11341H35.9366C36.1682 8.11341 36.2964 7.99764 36.3212 7.7655L37.5116 0.27486V0.256667C37.5115 0.0856492 37.4319 0.00022465 37.2733 0.00022465V0Z" fill="#009CDE"></path><path d="M20.9003 2.94889C20.9003 2.88799 20.8757 2.82988 20.8272 2.77508C20.7782 2.72016 20.7232 2.6925 20.6623 2.6925H19.2521C19.1176 2.6925 19.0077 2.75386 18.9224 2.87561L16.9811 5.73276L16.1753 2.98561C16.1139 2.79041 15.9798 2.6925 15.7724 2.6925H14.3986C14.3374 2.6925 14.2825 2.72005 14.2339 2.77508C14.1849 2.82988 14.1606 2.8881 14.1606 2.94889C14.1606 2.97347 14.2797 3.33353 14.5177 4.02947C14.7558 4.72563 15.0122 5.47654 15.2869 6.28242C15.5617 7.08814 15.705 7.51571 15.7173 7.56413C14.716 8.93183 14.2156 9.66438 14.2156 9.76189C14.2156 9.92076 14.2948 10 14.4537 10H15.8639C15.9981 10 16.108 9.93913 16.1936 9.81698L20.8639 3.07703C20.8881 3.05285 20.9003 3.0103 20.9003 2.94884V2.94889Z" fill="white"></path><path d="M34.0323 2.69265H32.6404C32.4693 2.69265 32.3659 2.89417 32.3292 3.29717C32.0114 2.80892 31.4318 2.56445 30.5892 2.56445C29.7101 2.56445 28.9622 2.89417 28.3457 3.55351C27.7291 4.21284 27.4209 4.98838 27.4209 5.87958C27.4209 6.6001 27.6315 7.17389 28.0526 7.60108C28.4739 8.02871 29.0385 8.2421 29.7469 8.2421C30.1009 8.2421 30.4611 8.16871 30.8273 8.02233C31.1936 7.87583 31.4803 7.68057 31.6882 7.43627C31.6882 7.44853 31.6758 7.50328 31.6516 7.60091C31.6269 7.69876 31.6149 7.77226 31.6149 7.82069C31.6149 8.01628 31.6941 8.11368 31.853 8.11368H33.1168C33.3485 8.11368 33.483 7.99792 33.5195 7.76577L34.2705 2.98565C34.2825 2.91231 34.2643 2.8453 34.2155 2.78417C34.1664 2.72327 34.1055 2.69265 34.0323 2.69265ZM31.6423 6.30078C31.331 6.60603 30.9555 6.75858 30.516 6.75858C30.1618 6.75858 29.8751 6.66106 29.6552 6.46558C29.4353 6.27066 29.3254 6.00201 29.3254 5.65975C29.3254 5.20833 29.4781 4.82643 29.7834 4.51513C30.0882 4.20377 30.4671 4.04814 30.9189 4.04814C31.2605 4.04814 31.5444 4.14885 31.7705 4.35021C31.9961 4.55174 32.1094 4.82951 32.1094 5.1837C32.1093 5.6232 31.9536 5.99569 31.6423 6.30078Z" fill="#009CDE"></path><path d="M13.2269 2.69265H11.8349C11.6637 2.69265 11.5602 2.89417 11.5235 3.29717C11.1938 2.80892 10.6138 2.56445 9.78361 2.56445C8.90451 2.56445 8.15657 2.89417 7.54007 3.55351C6.9234 4.21284 6.61523 4.98838 6.61523 5.87958C6.61523 6.6001 6.82589 7.17389 7.24713 7.60108C7.66838 8.02871 8.23293 8.2421 8.94118 8.2421C9.28288 8.2421 9.63717 8.16871 10.0034 8.02233C10.3697 7.87583 10.6627 7.68057 10.8825 7.43627C10.8335 7.58266 10.8092 7.71091 10.8092 7.82069C10.8092 8.01628 10.8885 8.11368 11.0473 8.11368H12.311C12.5428 8.11368 12.6772 7.99792 12.7139 7.76577L13.4648 2.98565C13.4768 2.91231 13.4586 2.8453 13.4099 2.78417C13.361 2.72327 13.3 2.69265 13.2269 2.69265ZM10.8368 6.30984C10.5254 6.60934 10.1437 6.75858 9.6922 6.75858C9.33791 6.75858 9.05403 6.66106 8.84053 6.46558C8.62674 6.27066 8.51999 6.00201 8.51999 5.65975C8.51999 5.20833 8.67254 4.82643 8.9779 4.51513C9.28293 4.20377 9.66147 4.04809 10.1134 4.04809C10.4551 4.04809 10.739 4.14885 10.9651 4.35021C11.1908 4.55174 11.3038 4.82951 11.3038 5.1837C11.3038 5.63545 11.1482 6.01102 10.8368 6.30984Z" fill="white"></path><path d="M27.1549 0.485232C26.6848 0.162005 26.0714 0 25.3143 0H22.4023C22.158 0 22.0236 0.116046 21.9994 0.347913L20.8089 7.82008C20.7965 7.89347 20.8149 7.96058 20.8639 8.0216C20.9123 8.08273 20.9737 8.11313 21.0469 8.11313H22.5486C22.6951 8.11313 22.7928 8.03386 22.8418 7.8751L23.1714 5.75073C23.1836 5.6531 23.2263 5.57373 23.2997 5.5126C23.3729 5.45158 23.4644 5.41166 23.5744 5.39342C23.6842 5.37528 23.7878 5.3661 23.8857 5.3661C23.9833 5.3661 24.0992 5.37231 24.2336 5.38446C24.3679 5.39661 24.4536 5.40259 24.49 5.40259C25.5402 5.40259 26.3642 5.10674 26.9625 4.51437C27.5608 3.92233 27.8599 3.10133 27.8599 2.05104C27.86 1.33069 27.6248 0.808738 27.1549 0.485063V0.485232ZM25.2777 3.498C25.0091 3.68111 24.6061 3.77264 24.069 3.77264L23.4828 3.791L23.7942 1.83126C23.8184 1.69713 23.8978 1.62985 24.0322 1.62985H24.3618C24.6304 1.62985 24.844 1.64211 25.003 1.66646C25.1614 1.69098 25.3143 1.76717 25.4608 1.8953C25.6074 2.02355 25.6806 2.20985 25.6806 2.45392C25.6806 2.96692 25.5461 3.31472 25.2777 3.498Z" fill="#009CDE"></path></svg>