<svg xmlns="http://www.w3.org/2000/svg" width="124" height="28" viewBox="0 0 124 28" fill="none"><g clip-path="url(#clip0_56_674)"><path d="M18.6947 9.33596V0.00805664L0 0.00805664L0 18.6639H9.3474V9.33596H18.6947Z" fill="#161617"></path><path d="M18.6945 9.33618V18.6641H9.34717V27.9921H28.0419V9.33618H18.6945Z" fill="#161617"></path><path d="M104.535 9.49164H100.433V24.0017H104.535H106.301V22.2398H104.535V9.49164Z" fill="#161617"></path><path d="M102.457 8.40323C103.652 8.40323 104.638 7.41863 104.638 6.22673C104.638 5.03483 103.652 4.05023 102.457 4.05023C101.263 4.05023 100.276 5.03483 100.276 6.22673C100.276 7.41863 101.263 8.40323 102.457 8.40323Z" fill="#161617"></path><path d="M121.568 22.2398V14.5701C121.568 12.9118 121.153 11.5645 120.27 10.6317C119.387 9.69886 118.193 9.18066 116.635 9.18066C116.115 9.18066 115.648 9.23247 115.233 9.38797C114.817 9.49157 114.454 9.69887 114.09 9.90617C113.727 10.1135 113.415 10.3726 113.155 10.6317C112.896 10.8908 112.636 11.2017 112.376 11.5126V9.43977H108.274V23.9499H112.376V15.9175C112.376 14.9329 112.584 14.2074 113.051 13.6892C113.519 13.1709 114.142 12.9637 114.921 12.9637C115.7 12.9637 116.323 13.2228 116.79 13.6892C117.206 14.2074 117.465 14.9329 117.465 15.9175V24.0017H121.568H123.334V22.2398H121.568Z" fill="#161617"></path><path d="M68.8589 11.0978C68.1839 10.4241 67.3529 9.90593 66.3659 9.49133C65.4319 9.12863 64.3929 8.92133 63.2509 8.92133C62.1079 8.92133 61.0699 9.12863 60.1349 9.49133C59.1999 9.90593 58.3689 10.4241 57.6419 11.0978C56.9149 11.7715 56.3959 12.6006 55.9799 13.4816C55.5649 14.4144 55.4089 15.3472 55.4089 16.3836V16.4355C55.4089 17.4719 55.6169 18.4565 55.9799 19.3893C56.3959 20.3221 56.9149 21.0994 57.6419 21.7731C58.3169 22.4468 59.1479 22.965 60.1349 23.3796C61.0699 23.7423 62.1079 23.9496 63.2509 23.9496C64.3929 23.9496 65.4319 23.7423 66.3659 23.3796C67.3009 22.965 68.1319 22.4468 68.8589 21.7731C69.5859 21.0994 70.1049 20.2703 70.5209 19.3893C70.9359 18.4565 71.0919 17.5237 71.0919 16.4355V16.3836C71.0919 15.3472 70.8839 14.3626 70.5209 13.4298C70.1049 12.6006 69.5339 11.7715 68.8589 11.0978ZM67.0409 16.5391C67.0409 17.0573 66.9379 17.5755 66.7819 18.0419C66.6259 18.5083 66.3659 18.9229 66.0549 19.2857C65.7429 19.6484 65.3279 19.9075 64.8599 20.1148C64.3929 20.3221 63.8739 20.4257 63.3029 20.4257C62.7309 20.4257 62.2119 20.3221 61.7449 20.1148C61.2769 19.9075 60.8619 19.5966 60.5499 19.2338C60.1869 18.8711 59.9269 18.4565 59.7709 17.9901C59.6149 17.5237 59.5119 17.0055 59.5119 16.4873V16.4355C59.5119 15.9172 59.6149 15.399 59.7709 14.9326C59.9269 14.4662 60.1869 14.0516 60.4979 13.6889C60.8099 13.3261 61.2249 13.067 61.6929 12.8597C62.1599 12.6525 62.6789 12.5488 63.2509 12.5488C63.8219 12.5488 64.3409 12.6525 64.8079 12.8597C65.2759 13.067 65.6909 13.378 66.0029 13.7407C66.3659 14.1035 66.6259 14.518 66.7819 14.9844C66.9379 15.4508 67.0409 15.9691 67.0409 16.4873V16.5391Z" fill="#161617"></path><path d="M86.4629 11.0978C85.7879 10.4241 84.9569 9.90593 83.9699 9.49133C83.0359 9.12863 81.9969 8.92133 80.8549 8.92133C79.7119 8.92133 78.6739 9.12863 77.7389 9.49133C76.8039 9.90593 75.9729 10.4241 75.2459 11.0978C74.5189 11.7715 73.9999 12.6006 73.5839 13.4816C73.1689 14.4144 73.0129 15.3472 73.0129 16.3836V16.4355C73.0129 17.4719 73.2209 18.4565 73.5839 19.3893C73.9999 20.3221 74.5189 21.0994 75.2459 21.7731C75.9209 22.4468 76.7519 22.965 77.7389 23.3796C78.6739 23.7423 79.7119 23.9496 80.8549 23.9496C81.9969 23.9496 83.0359 23.7423 83.9699 23.3796C84.9049 22.965 85.7359 22.4468 86.4629 21.7731C87.1899 21.0994 87.7089 20.2703 88.1249 19.3893C88.5399 18.4565 88.6959 17.5237 88.6959 16.4355V16.3836C88.6959 15.3472 88.4879 14.3626 88.1249 13.4298C87.7089 12.6006 87.1899 11.7715 86.4629 11.0978ZM84.6449 16.5391C84.6449 17.0573 84.5419 17.5755 84.3859 18.0419C84.2299 18.5083 83.9699 18.9229 83.6589 19.2857C83.3469 19.6484 82.9319 19.9075 82.4639 20.1148C81.9969 20.3221 81.4779 20.4257 80.9069 20.4257C80.3349 20.4257 79.8159 20.3221 79.3489 20.1148C78.8809 19.9075 78.4659 19.5966 78.1539 19.2338C77.7909 18.8711 77.5309 18.4565 77.3749 17.9901C77.2189 17.5237 77.1159 17.0055 77.1159 16.4873V16.4355C77.1159 15.9172 77.2189 15.399 77.3749 14.9326C77.5309 14.4662 77.7909 14.0516 78.1019 13.6889C78.4139 13.3261 78.8289 13.067 79.2969 12.8597C79.7639 12.6525 80.2829 12.5488 80.8549 12.5488C81.4259 12.5488 81.9449 12.6525 82.4119 12.8597C82.8799 13.067 83.2949 13.378 83.6069 13.7407C83.9699 14.1035 84.2299 14.518 84.3859 14.9844C84.5419 15.4508 84.6449 15.9691 84.6449 16.4873V16.5391Z" fill="#161617"></path><path d="M51.514 6.90037C50.891 6.33037 50.112 5.86397 49.2289 5.55307C48.3469 5.24207 47.308 5.08667 46.166 5.08667H38.48V22.2397H36.7144V24.0016H38.48H42.634V18.3531H45.802C46.841 18.3531 47.879 18.1976 48.814 17.9385C49.749 17.6794 50.58 17.2648 51.255 16.6948C51.93 16.1247 52.501 15.451 52.916 14.6219C53.332 13.7927 53.488 12.8081 53.488 11.7199V11.668C53.488 10.6834 53.332 9.80247 52.968 9.02507C52.605 8.19597 52.138 7.47047 51.514 6.90037ZM49.2289 11.7717C49.2289 12.6008 48.918 13.2745 48.347 13.7927C47.775 14.3628 46.945 14.6219 45.906 14.6219H42.582V8.86967H45.802C46.841 8.86967 47.672 9.12877 48.295 9.59517C48.918 10.0616 49.178 10.7871 49.178 11.7199V11.7717H49.2289Z" fill="#161617"></path><path d="M92.4349 22.2397H90.6689V24.0016H92.4349H96.5379V4.30927H92.4349V22.2397Z" fill="#161617"></path></g><defs><clipPath id="clip0_56_674"><rect width="124" height="28" fill="white"></rect></clipPath></defs></svg>