<svg xmlns="http://www.w3.org/2000/svg" width="97" height="41" viewBox="0 0 97 41" fill="none"><path d="M0.408078 31.1938C-0.0371402 31.5206 -0.133135 32.1465 0.193664 32.5917L5.51919 39.847C5.84599 40.2922 6.47184 40.3882 6.91705 40.0614C7.36227 39.7346 7.45827 39.1087 7.13147 38.6635L2.39767 32.2144L8.84679 27.4806C9.29201 27.1538 9.388 26.528 9.0612 26.0827C8.7344 25.6375 8.10855 25.5415 7.66334 25.8683L0.408078 31.1938ZM50.2786 21.3072C44.3776 27.45 38.6708 30.8397 31.2247 32.2358C23.7148 33.6439 14.3678 33.0388 1.15142 31.0115L0.848191 32.9884C14.0884 35.0193 23.7254 35.6767 31.5933 34.2016C39.525 32.7144 45.5898 29.0751 51.721 22.6928L50.2786 21.3072Z" fill="#CBFB45"></path><path d="M34.06 15.168C33.052 15.168 32.226 14.8927 31.582 14.342C30.9473 13.7913 30.6207 13.124 30.602 12.34H31.904C31.96 12.8533 32.198 13.25 32.618 13.53C33.0473 13.81 33.5233 13.95 34.046 13.95C34.5873 13.95 35.0353 13.8147 35.39 13.544C35.7447 13.2733 35.922 12.914 35.922 12.466C35.922 11.71 35.4507 11.1547 34.508 10.8L33.136 10.296C32.352 10.0253 31.7733 9.666 31.4 9.218C31.036 8.77 30.8493 8.196 30.84 7.496C30.84 6.70267 31.12 6.07267 31.68 5.606C32.2493 5.13 32.9773 4.892 33.864 4.892C34.7973 4.892 35.5347 5.16267 36.076 5.704C36.6267 6.236 36.9347 6.86133 37 7.58H35.712C35.5907 7.08533 35.3573 6.71667 35.012 6.474C34.676 6.23133 34.284 6.11 33.836 6.11C33.3507 6.11 32.9447 6.23133 32.618 6.474C32.3007 6.71667 32.142 7.04333 32.142 7.454C32.142 7.86467 32.254 8.19133 32.478 8.434C32.702 8.67667 33.066 8.88667 33.57 9.064L34.844 9.526C35.628 9.806 36.2207 10.1793 36.622 10.646C37.0233 11.1033 37.224 11.696 37.224 12.424C37.224 13.2547 36.93 13.922 36.342 14.426C35.754 14.9207 34.9933 15.168 34.06 15.168ZM41.8793 15.14C40.9087 15.14 40.092 14.7853 39.4293 14.076C38.776 13.3667 38.4493 12.508 38.4493 11.5C38.4493 10.492 38.776 9.63333 39.4293 8.924C40.092 8.21467 40.9087 7.86 41.8793 7.86C42.3927 7.86 42.8687 7.97667 43.3073 8.21C43.7553 8.434 44.1007 8.72333 44.3433 9.078V8H45.5473V15H44.3433V13.922C44.1007 14.2767 43.7553 14.5707 43.3073 14.804C42.8687 15.028 42.3927 15.14 41.8793 15.14ZM42.0613 14.034C42.752 14.034 43.3213 13.7913 43.7693 13.306C44.2173 12.8207 44.4413 12.2187 44.4413 11.5C44.4413 10.7813 44.2173 10.1793 43.7693 9.694C43.3213 9.20867 42.752 8.966 42.0613 8.966C41.3613 8.966 40.7873 9.20867 40.3393 9.694C39.8913 10.1793 39.6673 10.7813 39.6673 11.5C39.6673 12.2187 39.8913 12.8207 40.3393 13.306C40.7873 13.7913 41.3613 14.034 42.0613 14.034ZM49.9977 15L46.7637 8H48.1077L50.5017 13.306L52.8957 8H54.2397L51.0057 15H49.9977ZM58.2879 15.14C57.2705 15.14 56.4259 14.7947 55.7539 14.104C55.0912 13.4133 54.7599 12.5453 54.7599 11.5C54.7599 10.4453 55.0819 9.57733 55.7259 8.896C56.3792 8.20533 57.2425 7.86 58.3159 7.86C59.3985 7.86 60.2479 8.24267 60.8639 9.008C61.4799 9.77333 61.7505 10.7113 61.6759 11.822H55.9779C55.9965 12.4567 56.2299 12.9887 56.6779 13.418C57.1259 13.838 57.6672 14.048 58.3019 14.048C59.2539 14.048 59.9305 13.656 60.3319 12.872H61.5639C61.3865 13.5253 61.0085 14.0667 60.4299 14.496C59.8512 14.9253 59.1372 15.14 58.2879 15.14ZM59.6599 9.428C59.2772 9.092 58.8152 8.924 58.2739 8.924C57.7325 8.924 57.2472 9.08733 56.8179 9.414C56.3979 9.74067 56.1365 10.226 56.0339 10.87H60.4019C60.2899 10.2353 60.0425 9.75467 59.6599 9.428ZM69.8143 15.14C68.8249 15.14 67.9849 14.8413 67.2943 14.244C66.6129 13.6373 66.2723 12.8813 66.2723 11.976H67.4903C67.5276 12.564 67.7656 13.0447 68.2043 13.418C68.6429 13.782 69.1796 13.964 69.8143 13.964C70.3929 13.964 70.8736 13.8053 71.2563 13.488C71.6389 13.1707 71.8303 12.732 71.8303 12.172C71.8303 11.5747 71.6343 11.1267 71.2423 10.828C70.8596 10.5293 70.3323 10.38 69.6603 10.38H68.9183V9.274H69.7163C70.2483 9.274 70.6823 9.12467 71.0183 8.826C71.3636 8.52733 71.5409 8.14 71.5503 7.664C71.5503 7.19733 71.3776 6.81467 71.0323 6.516C70.6963 6.21733 70.2716 6.068 69.7583 6.068C69.1703 6.068 68.6756 6.24067 68.2743 6.586C67.8729 6.93133 67.6723 7.412 67.6723 8.028H66.4403C66.4403 7.076 66.7576 6.31533 67.3923 5.746C68.0269 5.17667 68.8156 4.892 69.7583 4.892C70.6263 4.892 71.3449 5.144 71.9143 5.648C72.4929 6.14267 72.7823 6.80067 72.7823 7.622C72.7729 8.098 72.6423 8.52733 72.3903 8.91C72.1476 9.29267 71.8303 9.58667 71.4383 9.792C71.9423 9.99733 72.3389 10.3147 72.6283 10.744C72.9176 11.164 73.0623 11.654 73.0623 12.214C73.0623 13.082 72.7589 13.7867 72.1523 14.328C71.5456 14.8693 70.7663 15.14 69.8143 15.14ZM78.1313 15.14C77.0953 15.14 76.2507 14.7947 75.5973 14.104C74.944 13.404 74.6173 12.5033 74.6173 11.402V8.63C74.6173 7.52867 74.944 6.63267 75.5973 5.942C76.26 5.242 77.1047 4.892 78.1313 4.892C79.158 4.892 80.0027 5.242 80.6653 5.942C81.328 6.642 81.6593 7.538 81.6593 8.63V11.402C81.6593 12.5033 81.328 13.404 80.6653 14.104C80.0027 14.7947 79.158 15.14 78.1313 15.14ZM78.1313 13.964C78.822 13.964 79.382 13.7353 79.8113 13.278C80.2407 12.8207 80.4553 12.1953 80.4553 11.402V8.63C80.4553 7.83667 80.2407 7.21133 79.8113 6.754C79.382 6.29667 78.822 6.068 78.1313 6.068C77.45 6.068 76.8947 6.29667 76.4653 6.754C76.036 7.21133 75.8213 7.83667 75.8213 8.63V11.402C75.8213 12.1953 76.036 12.8207 76.4653 13.278C76.8947 13.7353 77.45 13.964 78.1313 13.964ZM86.938 15H85.636L91.936 5.06H93.238L86.938 15ZM93.168 15.112C92.4027 15.112 91.7493 14.8413 91.208 14.3C90.676 13.7587 90.41 13.11 90.41 12.354C90.41 11.5887 90.676 10.94 91.208 10.408C91.7493 9.86667 92.4027 9.596 93.168 9.596C93.924 9.596 94.5727 9.86667 95.114 10.408C95.6553 10.94 95.926 11.5887 95.926 12.354C95.926 13.11 95.6553 13.7587 95.114 14.3C94.5727 14.8413 93.924 15.112 93.168 15.112ZM93.168 14.02C93.616 14.02 94.0033 13.8567 94.33 13.53C94.6567 13.194 94.82 12.802 94.82 12.354C94.82 11.906 94.6567 11.5187 94.33 11.192C94.0033 10.856 93.616 10.688 93.168 10.688C92.7013 10.688 92.3093 10.8513 91.992 11.178C91.6747 11.5047 91.516 11.8967 91.516 12.354C91.516 12.8113 91.6747 13.2033 91.992 13.53C92.3093 13.8567 92.7013 14.02 93.168 14.02ZM85.706 10.464C84.9407 10.464 84.2873 10.1933 83.746 9.652C83.214 9.11067 82.948 8.462 82.948 7.706C82.948 6.94067 83.214 6.292 83.746 5.76C84.2873 5.21867 84.9407 4.948 85.706 4.948C86.462 4.948 87.1107 5.21867 87.652 5.76C88.1933 6.292 88.464 6.94067 88.464 7.706C88.464 8.462 88.1933 9.11067 87.652 9.652C87.1107 10.1933 86.462 10.464 85.706 10.464ZM85.706 9.372C86.154 9.372 86.5413 9.20867 86.868 8.882C87.1947 8.546 87.358 8.154 87.358 7.706C87.358 7.258 87.1947 6.87067 86.868 6.544C86.5413 6.208 86.154 6.04 85.706 6.04C85.2393 6.04 84.8473 6.20333 84.53 6.53C84.2127 6.85667 84.054 7.24867 84.054 7.706C84.054 8.16333 84.2127 8.55533 84.53 8.882C84.8473 9.20867 85.2393 9.372 85.706 9.372Z" fill="#CBFB45"></path></svg>