<svg xmlns="http://www.w3.org/2000/svg" width="56" height="56" viewBox="0 0 56 56" fill="none"><path d="M34 0H4C2.93913 0 1.92172 0.421427 1.17157 1.17157C0.421427 1.92172 0 2.93913 0 4L0 52C0 53.0609 0.421427 54.0783 1.17157 54.8284C1.92172 55.5786 2.93913 56 4 56H34C35.0609 56 36.0783 55.5786 36.8284 54.8284C37.5786 54.0783 38 53.0609 38 52V43.88C38.0021 43.6358 37.9147 43.3994 37.7545 43.2152C37.5942 43.0309 37.3721 42.9117 37.13 42.88C35.8378 42.7151 34.5734 42.3788 33.37 41.88C30.6003 40.7594 28.2284 38.8372 26.5583 36.3598C24.8882 33.8825 23.9959 30.9628 23.9959 27.975C23.9959 24.9872 24.8882 22.0675 26.5583 19.5902C28.2284 17.1128 30.6003 15.1906 33.37 14.07C34.5563 13.572 35.8041 13.2356 37.08 13.07C37.3221 13.0383 37.5442 12.9191 37.7045 12.7348C37.8647 12.5506 37.9521 12.3142 37.95 12.07V4C37.9501 2.94774 37.5355 1.93783 36.7962 1.1891C36.0568 0.44038 35.0522 0.0131532 34 0V0ZM35.85 11.3H35.67L34.74 11.51H34.66L34.33 11.6L34 11.7L33.75 11.78L33.6 11.83C33.27 11.94 32.95 12.06 32.6 12.19L32 12.5C31.62 12.67 31.25 12.86 30.88 13.05C30.52 13.25 30.17 13.46 29.83 13.68C29.5 13.89 29.17 14.12 28.83 14.35H28.76C28.46 14.58 28.17 14.82 27.88 15.06C27.59 15.3 27.28 15.6 27 15.88C26.72 16.16 26.48 16.42 26.23 16.7L26.15 16.79C25.89 17.08 25.65 17.39 25.42 17.7C25.19 18.01 24.95 18.34 24.73 18.7L24.41 19.21C24.31 19.38 24.21 19.55 24.12 19.73C23.6079 20.6527 23.1892 21.6242 22.87 22.63C22.8143 22.7702 22.7676 22.9139 22.73 23.06C22.2418 24.6611 21.9957 26.3262 22 28C21.9968 30.1348 22.3937 32.2513 23.17 34.24C23.24 34.42 23.32 34.6 23.39 34.77C23.6024 35.2616 23.8394 35.7422 24.1 36.21L24.35 36.66C24.48 36.88 24.62 37.1 24.76 37.31C24.9542 37.6176 25.1645 37.9146 25.39 38.2C25.6 38.5 25.84 38.79 26.08 39.07C26.32 39.35 26.69 39.74 27.01 40.07C27.33 40.4 27.48 40.52 27.73 40.74C27.98 40.96 28.37 41.28 28.73 41.53C28.8225 41.6056 28.9193 41.6757 29.02 41.74C29.26 41.92 29.51 42.09 29.76 42.25H29.81C30.09 42.43 30.38 42.61 30.68 42.77C30.98 42.93 31.54 43.22 31.99 43.43L32.61 43.69C32.94 43.83 33.28 43.95 33.61 44.07L33.97 44.19H34.03H34.12H34.21L34.82 44.36C35.12 44.43 35.42 44.5 35.72 44.55L35.95 44.6V52C35.95 52.5304 35.7393 53.0391 35.3642 53.4142C34.9891 53.7893 34.4804 54 33.95 54H4C3.46957 54 2.96086 53.7893 2.58579 53.4142C2.21071 53.0391 2 52.5304 2 52V4C2 3.46957 2.21071 2.96086 2.58579 2.58579C2.96086 2.21071 3.46957 2 4 2H34C34.5304 2 35.0391 2.21071 35.4142 2.58579C35.7893 2.96086 36 3.46957 36 4V11.27L35.85 11.3Z" fill="#CBFB45"></path><path opacity="0.5" d="M34 11.75V5C34 4.73478 33.8946 4.48043 33.7071 4.29289C33.5196 4.10536 33.2652 4 33 4H26.41C25.2411 4.00454 24.1208 4.46777 23.29 5.29C22.8385 5.74063 22.2279 5.99564 21.59 6H16.41C15.7721 5.99564 15.1615 5.74063 14.71 5.29C13.8792 4.46777 12.7589 4.00454 11.59 4H5C4.73478 4 4.48043 4.10536 4.29289 4.29289C4.10536 4.48043 4 4.73478 4 5V50C4 50.2652 4.10536 50.5196 4.29289 50.7071C4.48043 50.8946 4.73478 51 5 51H33C33.2652 51 33.5196 50.8946 33.7071 50.7071C33.8946 50.5196 34 50.2652 34 50V44.25C34.5804 44.433 35.1715 44.58 35.77 44.69L36 44.74V52C36 52.5304 35.7893 53.0391 35.4142 53.4142C35.0391 53.7893 34.5304 54 34 54H4C3.46957 54 2.96086 53.7893 2.58579 53.4142C2.21071 53.0391 2 52.5304 2 52V4C2 3.46957 2.21071 2.96086 2.58579 2.58579C2.96086 2.21071 3.46957 2 4 2H34C34.5304 2 35.0391 2.21071 35.4142 2.58579C35.7893 2.96086 36 3.46957 36 4V11.27H35.85H35.67C35.35 11.33 35.04 11.4 34.74 11.48H34.66L34 11.75Z" fill="#CBFB45"></path><path d="M33 4H26.41C25.2411 4.00454 24.1208 4.46777 23.29 5.29C22.8385 5.74063 22.2279 5.99564 21.59 6H16.41C15.7721 5.99564 15.1615 5.74063 14.71 5.29C13.8792 4.46777 12.7589 4.00454 11.59 4H5C4.73478 4 4.48043 4.10536 4.29289 4.29289C4.10536 4.48043 4 4.73478 4 5V50C4 50.2652 4.10536 50.5196 4.29289 50.7071C4.48043 50.8946 4.73478 51 5 51H33C33.2652 51 33.5196 50.8946 33.7071 50.7071C33.8946 50.5196 34 50.2652 34 50V42.83C34.0002 42.6297 33.9402 42.434 33.8279 42.2682C33.7156 42.1024 33.5561 41.9741 33.37 41.9C30.6003 40.7794 28.2284 38.8572 26.5583 36.3798C24.8882 33.9025 23.9959 30.9828 23.9959 27.995C23.9959 25.0072 24.8882 22.0875 26.5583 19.6102C28.2284 17.1328 30.6003 15.2106 33.37 14.09C33.5436 14.0097 33.6905 13.8812 33.7933 13.7199C33.8961 13.5587 33.9505 13.3713 33.95 13.18V5C33.9503 4.74322 33.8519 4.49616 33.675 4.31C33.4981 4.12384 33.2565 4.01284 33 4ZM32 12.51C31.62 12.68 31.25 12.87 30.88 13.06C30.52 13.26 30.17 13.47 29.83 13.69C29.5 13.9 29.17 14.13 28.83 14.36H28.76C28.46 14.59 28.17 14.83 27.88 15.07C27.59 15.31 27.28 15.61 27 15.89C26.72 16.17 26.48 16.43 26.23 16.71L26.15 16.8C25.89 17.09 25.65 17.4 25.42 17.71C25.19 18.02 24.95 18.35 24.73 18.71L24.41 19.22C24.31 19.39 24.21 19.56 24.12 19.74C23.6079 20.6627 23.1892 21.6342 22.87 22.64C22.8143 22.7802 22.7676 22.9239 22.73 23.07C22.2428 24.6679 21.9967 26.3295 22 28C21.9968 30.1348 22.3937 32.2513 23.17 34.24C23.24 34.42 23.32 34.6 23.39 34.77C23.6024 35.2616 23.8394 35.7422 24.1 36.21L24.35 36.66C24.48 36.88 24.62 37.1 24.76 37.31C24.9542 37.6176 25.1645 37.9146 25.39 38.2C25.6 38.5 25.84 38.79 26.08 39.07C26.32 39.35 26.69 39.74 27.01 40.07C27.33 40.4 27.48 40.52 27.73 40.74C27.98 40.96 28.37 41.28 28.73 41.53C28.8225 41.6056 28.9193 41.6757 29.02 41.74C29.26 41.92 29.51 42.09 29.76 42.25H29.81C30.09 42.43 30.38 42.61 30.68 42.77C30.98 42.93 31.54 43.22 31.99 43.43V49H6V6H11.59C12.2279 6.00436 12.8385 6.25937 13.29 6.71C14.1208 7.53223 15.2411 7.99546 16.41 8H21.59C22.7589 7.99546 23.8792 7.53223 24.71 6.71C25.1615 6.25937 25.7721 6.00436 26.41 6H32V12.51Z" fill="#CBFB45"></path><g opacity="0.5"><path opacity="0.5" d="M40 25H37V27H40C40.2652 27 40.5196 26.8946 40.7071 26.7071C40.8946 26.5196 41 26.2652 41 26C41 25.7348 40.8946 25.4804 40.7071 25.2929C40.5196 25.1054 40.2652 25 40 25ZM40 25H37V27H40C40.2652 27 40.5196 26.8946 40.7071 26.7071C40.8946 26.5196 41 26.2652 41 26C41 25.7348 40.8946 25.4804 40.7071 25.2929C40.5196 25.1054 40.2652 25 40 25ZM40 25H37V27H40C40.2652 27 40.5196 26.8946 40.7071 26.7071C40.8946 26.5196 41 26.2652 41 26C41 25.7348 40.8946 25.4804 40.7071 25.2929C40.5196 25.1054 40.2652 25 40 25ZM40 25H37V27H40C40.2652 27 40.5196 26.8946 40.7071 26.7071C40.8946 26.5196 41 26.2652 41 26C41 25.7348 40.8946 25.4804 40.7071 25.2929C40.5196 25.1054 40.2652 25 40 25ZM40 25H37V27H40C40.2652 27 40.5196 26.8946 40.7071 26.7071C40.8946 26.5196 41 26.2652 41 26C41 25.7348 40.8946 25.4804 40.7071 25.2929C40.5196 25.1054 40.2652 25 40 25ZM40 25H37V27H40C40.2652 27 40.5196 26.8946 40.7071 26.7071C40.8946 26.5196 41 26.2652 41 26C41 25.7348 40.8946 25.4804 40.7071 25.2929C40.5196 25.1054 40.2652 25 40 25ZM41 29H37V31H41C41.2652 31 41.5196 30.8946 41.7071 30.7071C41.8946 30.5196 42 30.2652 42 30C42 29.7348 41.8946 29.4804 41.7071 29.2929C41.5196 29.1054 41.2652 29 41 29ZM41 29H37V31H41C41.2652 31 41.5196 30.8946 41.7071 30.7071C41.8946 30.5196 42 30.2652 42 30C42 29.7348 41.8946 29.4804 41.7071 29.2929C41.5196 29.1054 41.2652 29 41 29ZM41 26C41 25.7348 40.8946 25.4804 40.7071 25.2929C40.5196 25.1054 40.2652 25 40 25H37V27H40C40.2652 27 40.5196 26.8946 40.7071 26.7071C40.8946 26.5196 41 26.2652 41 26ZM39 16C36.6266 16 34.3066 16.7038 32.3332 18.0224C30.3598 19.3409 28.8217 21.2151 27.9135 23.4078C27.0052 25.6005 26.7676 28.0133 27.2306 30.3411C27.6936 32.6689 28.8365 34.8071 30.5147 36.4853C32.193 38.1635 34.3311 39.3064 36.6589 39.7694C38.9867 40.2324 41.3995 39.9948 43.5922 39.0866C45.7849 38.1783 47.6591 36.6402 48.9776 34.6668C50.2962 32.6935 51 30.3734 51 28C51 24.8174 49.7357 21.7652 47.4853 19.5147C45.2348 17.2643 42.1826 16 39 16ZM41 33V34C41 34.2652 40.8946 34.5196 40.7071 34.7071C40.5196 34.8946 40.2652 35 40 35C39.7348 35 39.4804 34.8946 39.2929 34.7071C39.1054 34.5196 39 34.2652 39 34V33H38V34C38 34.2652 37.8946 34.5196 37.7071 34.7071C37.5196 34.8946 37.2652 35 37 35C36.7348 35 36.4804 34.8946 36.2929 34.7071C36.1054 34.5196 36 34.2652 36 34V33H35C34.7348 33 34.4804 32.8946 34.2929 32.7071C34.1054 32.5196 34 32.2652 34 32C34 31.7348 34.1054 31.4804 34.2929 31.2929C34.4804 31.1054 34.7348 31 35 31V25C34.7348 25 34.4804 24.8946 34.2929 24.7071C34.1054 24.5196 34 24.2652 34 24C34 23.7348 34.1054 23.4804 34.2929 23.2929C34.4804 23.1054 34.7348 23 35 23H36V22C36 21.7348 36.1054 21.4804 36.2929 21.2929C36.4804 21.1054 36.7348 21 37 21C37.2652 21 37.5196 21.1054 37.7071 21.2929C37.8946 21.4804 38 21.7348 38 22V23H39V22C39 21.7348 39.1054 21.4804 39.2929 21.2929C39.4804 21.1054 39.7348 21 40 21C40.2652 21 40.5196 21.1054 40.7071 21.2929C40.8946 21.4804 41 21.7348 41 22V23.18C41.5836 23.3863 42.089 23.7681 42.4471 24.2729C42.8051 24.7778 42.9983 25.3811 43 26C42.9988 26.5141 42.8682 27.0197 42.62 27.47C43.168 27.8192 43.5879 28.3369 43.8163 28.9453C44.0448 29.5537 44.0695 30.2198 43.8869 30.8434C43.7042 31.467 43.3239 32.0145 42.8033 32.4034C42.2827 32.7923 41.6498 33.0017 41 33ZM41 29H37V31H41C41.2652 31 41.5196 30.8946 41.7071 30.7071C41.8946 30.5196 42 30.2652 42 30C42 29.7348 41.8946 29.4804 41.7071 29.2929C41.5196 29.1054 41.2652 29 41 29ZM41 26C41 25.7348 40.8946 25.4804 40.7071 25.2929C40.5196 25.1054 40.2652 25 40 25H37V27H40C40.2652 27 40.5196 26.8946 40.7071 26.7071C40.8946 26.5196 41 26.2652 41 26ZM40 25H37V27H40C40.2652 27 40.5196 26.8946 40.7071 26.7071C40.8946 26.5196 41 26.2652 41 26C41 25.7348 40.8946 25.4804 40.7071 25.2929C40.5196 25.1054 40.2652 25 40 25ZM41 29H37V31H41C41.2652 31 41.5196 30.8946 41.7071 30.7071C41.8946 30.5196 42 30.2652 42 30C42 29.7348 41.8946 29.4804 41.7071 29.2929C41.5196 29.1054 41.2652 29 41 29ZM41 29H37V31H41C41.2652 31 41.5196 30.8946 41.7071 30.7071C41.8946 30.5196 42 30.2652 42 30C42 29.7348 41.8946 29.4804 41.7071 29.2929C41.5196 29.1054 41.2652 29 41 29ZM40 25H37V27H40C40.2652 27 40.5196 26.8946 40.7071 26.7071C40.8946 26.5196 41 26.2652 41 26C41 25.7348 40.8946 25.4804 40.7071 25.2929C40.5196 25.1054 40.2652 25 40 25ZM40 25H37V27H40C40.2652 27 40.5196 26.8946 40.7071 26.7071C40.8946 26.5196 41 26.2652 41 26C41 25.7348 40.8946 25.4804 40.7071 25.2929C40.5196 25.1054 40.2652 25 40 25ZM40 25H37V27H40C40.2652 27 40.5196 26.8946 40.7071 26.7071C40.8946 26.5196 41 26.2652 41 26C41 25.7348 40.8946 25.4804 40.7071 25.2929C40.5196 25.1054 40.2652 25 40 25ZM40 25H37V27H40C40.2652 27 40.5196 26.8946 40.7071 26.7071C40.8946 26.5196 41 26.2652 41 26C41 25.7348 40.8946 25.4804 40.7071 25.2929C40.5196 25.1054 40.2652 25 40 25ZM40 25H37V27H40C40.2652 27 40.5196 26.8946 40.7071 26.7071C40.8946 26.5196 41 26.2652 41 26C41 25.7348 40.8946 25.4804 40.7071 25.2929C40.5196 25.1054 40.2652 25 40 25Z" fill="#CBFB45"></path></g><path d="M39.0001 11.0001C38.6601 11.0001 38.3201 11.0001 38.0001 11.0001C37.6251 11.0122 37.2512 11.0456 36.8801 11.1001C36.5801 11.1001 36.2901 11.1801 36.0001 11.2301H35.8501H35.6701L34.7401 11.4401H34.6601L34.3301 11.5301L34.0001 11.6401L33.7501 11.7101L33.6001 11.7601C33.2701 11.8701 32.9501 11.9901 32.6001 12.1201L32.0001 12.5001C31.6201 12.6701 31.2501 12.8601 30.8801 13.0501C30.5201 13.2501 30.1701 13.4601 29.8301 13.6801C29.5001 13.8901 29.1701 14.1201 28.8301 14.3501H28.7601C28.4601 14.5801 28.1701 14.8201 27.8801 15.0601C27.5901 15.3001 27.2801 15.6001 27.0001 15.8801C26.7201 16.1601 26.4801 16.4201 26.2301 16.7001L26.1501 16.7901C25.8901 17.0801 25.6501 17.3901 25.4201 17.7001C25.1901 18.0101 24.9501 18.3401 24.7301 18.7001L24.4101 19.2101C24.3101 19.3801 24.2101 19.5501 24.1201 19.7301C23.6079 20.6527 23.1892 21.6242 22.8701 22.6301C22.8144 22.7703 22.7676 22.9139 22.7301 23.0601C22.2418 24.6611 21.9958 26.3262 22.0001 28.0001C21.9969 30.1349 22.3937 32.2514 23.1701 34.2401C23.2401 34.4201 23.3201 34.6001 23.3901 34.7701C23.6025 35.2616 23.8394 35.7423 24.1001 36.2101L24.3501 36.6601C24.4801 36.8801 24.6201 37.1001 24.7601 37.3101C24.9542 37.6176 25.1645 37.9147 25.3901 38.2001C25.6001 38.5001 25.8401 38.7901 26.0801 39.0701C26.3201 39.3501 26.6901 39.7401 27.0101 40.0701C27.3301 40.4001 27.4801 40.5201 27.7301 40.7401C27.9801 40.9601 28.3701 41.2801 28.7301 41.5301C28.8225 41.6057 28.9194 41.6758 29.0201 41.7401C29.2601 41.9201 29.5101 42.0901 29.7601 42.2501H29.8101C30.0901 42.4301 30.3801 42.6101 30.6801 42.7701C30.9801 42.9301 31.5401 43.2201 31.9901 43.4301L32.6101 43.6901C32.9401 43.8301 33.2801 43.9501 33.6101 44.0701L33.9701 44.1801H34.0601H34.1501L34.7601 44.3501C35.0601 44.4201 35.3601 44.4901 35.6601 44.5401C35.9601 44.5901 36.3901 44.6701 36.7701 44.7201C37.1501 44.7701 37.5101 44.8001 37.8901 44.8201C38.2701 44.8401 38.5501 44.8201 38.8901 44.8201C43.3987 44.8201 47.7228 43.029 50.9109 39.8409C54.099 36.6528 55.8901 32.3287 55.8901 27.8201C55.8901 23.3114 54.099 18.9874 50.9109 15.7993C47.7228 12.6111 43.3987 10.8201 38.8901 10.8201L39.0001 11.0001ZM39.0001 43.0001C38.3751 42.9989 37.7508 42.9622 37.1301 42.8901C35.8379 42.7252 34.5734 42.3889 33.3701 41.8901C30.6004 40.7695 28.2285 38.8473 26.5584 36.3699C24.8882 33.8925 23.996 30.9728 23.996 27.9851C23.996 24.9973 24.8882 22.0776 26.5584 19.6002C28.2285 17.1228 30.6004 15.2007 33.3701 14.0801C34.5563 13.582 35.8042 13.2457 37.0801 13.0801C37.7175 13.0095 38.359 12.9827 39.0001 13.0001C42.9783 13.0001 46.7936 14.5804 49.6067 17.3935C52.4197 20.2065 54.0001 24.0218 54.0001 28.0001C54.0001 31.9783 52.4197 35.7936 49.6067 38.6067C46.7936 41.4197 42.9783 43.0001 39.0001 43.0001Z" fill="#CBFB45"></path></svg>