<svg xmlns="http://www.w3.org/2000/svg" width="127" height="41" viewBox="0 0 127 41" fill="none"><path d="M26.1733 0.116848C25.7039 0 25.117 0 24.6475 0H15.258C14.7886 0 14.2017 0 13.7322 0.116848C5.98583 0.817933 0 7.3614 0 15.1902V24.538C0 32.6005 6.33795 39.2608 14.4364 39.7282H15.258H24.6475H25.4692C33.5676 39.2608 39.9056 32.6005 39.9056 24.538V15.1902C39.9056 7.3614 33.9198 0.817933 26.1733 0.116848V0.116848ZM35.915 24.538C35.915 30.7309 30.8681 35.7554 24.6475 35.7554H15.258C9.03743 35.7554 3.99056 30.7309 3.99056 24.538V15.1902C3.99056 8.99727 9.03743 3.97282 15.258 3.97282H24.6475C30.8681 3.97282 35.915 8.99727 35.915 15.1902V24.538Z" fill="#161617"></path><path d="M28.7568 21.8541C28.4047 21.6204 27.9352 21.3867 27.5832 21.3867C26.8789 21.3867 26.2921 21.7372 25.8226 22.2047C24.4142 23.9574 22.1842 25.009 19.9541 25.1258C17.6067 25.009 15.4941 23.9574 14.0857 22.2047C13.3815 21.2699 12.0904 21.153 11.1514 21.8541C10.3298 22.5552 10.0951 23.7236 10.6819 24.6585C12.9119 27.4629 16.3156 29.0987 19.8367 29.2156C23.4752 29.0987 26.7615 27.4629 28.9916 24.6585C29.3437 24.1911 29.4611 23.7236 29.3437 23.1394C29.4611 22.6721 29.2263 22.0879 28.7568 21.8541V21.8541Z" fill="#161617"></path><path opacity="0.999" d="M54.9285 29.2165C52.9333 29.3333 50.938 28.866 49.1775 27.8143C48.4732 27.4638 48.1211 26.7627 48.1211 26.0616C48.1211 25.711 48.2385 25.3605 48.4732 25.01C48.7079 24.7763 49.0601 24.5425 49.4122 24.6595C49.999 24.6595 50.4684 24.8932 50.938 25.1268C51.5248 25.4774 52.229 25.711 52.8159 25.8279C53.5201 26.0616 54.2243 26.0616 55.0459 26.0616C55.7501 26.0616 56.5717 25.9447 57.1585 25.5942C57.628 25.3605 57.9801 24.8932 57.9801 24.3089C57.9801 23.9583 57.8628 23.7247 57.6279 23.3741C57.2759 23.1405 56.9238 22.9068 56.5717 22.7898C55.7501 22.5561 54.9285 22.3225 54.1069 22.2056C52.5812 21.9719 51.1727 21.3877 49.999 20.5697C49.1775 19.8687 48.7079 18.7002 48.7079 17.6486C48.7079 16.7138 48.9426 15.779 49.5295 15.0779C50.1164 14.26 50.938 13.6757 51.8769 13.3252C52.9333 12.8579 54.1069 12.6242 55.2806 12.741C56.2196 12.741 57.0411 12.8579 57.8628 13.0915C58.6843 13.3252 59.3885 13.6757 60.0928 14.0263C60.6796 14.3769 61.149 15.0779 61.149 15.779C61.149 16.1296 61.0317 16.597 60.7969 16.8306C60.5622 17.0643 60.2101 17.298 59.858 17.298C59.6233 17.298 59.3886 17.298 59.1538 17.1812C58.8017 17.0643 58.567 16.9475 58.3322 16.7138C57.8628 16.4801 57.2759 16.2464 56.6891 16.0128C56.1022 15.779 55.5153 15.779 55.0459 15.779C54.3417 15.779 53.7548 15.8959 53.168 16.2464C52.6985 16.4801 52.4638 17.0643 52.4638 17.5317C52.4638 17.9992 52.6985 18.5834 53.168 18.817C53.9895 19.2844 54.9285 19.5182 55.9849 19.635C57.1585 19.8687 58.3322 20.2192 59.3885 20.6866C60.0928 21.0371 60.6796 21.5046 61.149 22.0888C61.5012 22.7898 61.7359 23.491 61.7359 24.3089C61.7359 25.711 61.0317 27.1132 59.858 27.8143C58.3322 28.7491 56.6891 29.2165 54.9285 29.2165V29.2165ZM84.5056 12.6242C86.0314 12.5073 87.4398 13.0915 88.4961 14.1431C89.5525 15.5453 90.0219 17.298 89.9045 19.1676V27.1132C89.9045 27.6974 89.7872 28.1649 89.3177 28.5154C88.8482 28.866 88.3787 29.0996 87.7919 28.9828C87.2051 28.9828 86.7356 28.866 86.3835 28.5154C86.0314 28.1649 85.7967 27.5806 85.7967 27.1132V19.1676C85.914 18.2328 85.6793 17.4148 85.2097 16.597C84.7403 16.0128 84.0361 15.779 83.2145 15.779C82.2756 15.779 81.3366 16.1296 80.6324 16.8306C79.9281 17.6486 79.576 18.7002 79.6934 19.7519V26.9964C79.6934 27.5806 79.576 28.0481 79.1066 28.3986C78.7545 28.7491 78.1676 28.8659 77.6981 28.8659C77.1113 28.8659 76.6418 28.7491 76.2897 28.3986C75.9376 28.0481 75.7029 27.4638 75.7029 26.9964V19.0507C75.8202 18.116 75.5855 17.298 75.1161 16.4801C74.6465 15.8959 73.9423 15.6621 73.1207 15.6621C72.1818 15.6621 71.2428 16.0128 70.5386 16.7138C69.8343 17.5317 69.5996 18.5834 69.5996 19.635V26.8796C69.5996 27.4638 69.3649 27.9311 69.0128 28.2818C68.6607 28.6323 68.0738 28.7491 67.6044 28.7491C67.0176 28.7491 66.5481 28.6323 66.1959 28.2818C65.8438 27.9311 65.6091 27.3469 65.6091 26.8796V14.6106C65.6091 14.0263 65.8438 13.5589 66.1959 13.2084C66.6655 12.8579 67.1349 12.741 67.6044 12.741C68.0738 12.741 68.6607 12.8579 69.0128 13.2084C69.3649 13.5589 69.5996 14.0263 69.5996 14.6106V15.4284C70.0692 14.6106 70.7734 13.9094 71.595 13.4421C72.5339 12.9747 73.4729 12.741 74.5292 12.741C76.6418 12.5073 78.6372 13.7926 79.3413 15.779C79.8108 14.8442 80.515 14.1431 81.4539 13.5589C82.3929 12.9747 83.4492 12.6242 84.5056 12.6242V12.6242ZM96.712 29.0996C96.1252 29.0996 95.6556 28.9828 95.3035 28.6323C94.9514 28.2818 94.7167 27.6974 94.7167 27.2301V14.6106C94.7167 14.0263 94.8341 13.5589 95.3035 13.2084C95.6556 12.8579 96.2425 12.741 96.712 12.741C97.2988 12.741 97.7683 12.8579 98.1204 13.2084C98.4725 13.5589 98.7072 14.1431 98.7072 14.6106V27.1132C98.7072 27.6974 98.4725 28.1649 98.1204 28.5154C97.7683 28.9828 97.2988 29.0996 96.712 29.0996V29.0996ZM96.712 9.81979C96.1252 9.81979 95.4209 9.5861 94.9514 9.23556C94.482 8.88501 94.2473 8.30077 94.2473 7.71654C94.2473 7.13229 94.482 6.54806 94.9514 6.19751C95.4209 5.73012 96.1252 5.61328 96.712 5.61328C97.2988 5.61328 98.0031 5.84697 98.4725 6.19751C98.942 6.54806 99.1767 7.13229 99.1767 7.71654C99.1767 8.30077 98.942 8.88501 98.4725 9.23556C98.0031 9.70294 97.4161 9.81979 96.712 9.81979ZM105.632 29.0996C105.045 29.0996 104.576 28.9828 104.224 28.6323C103.871 28.2818 103.637 27.6974 103.637 27.2301V7.83338C103.637 7.24914 103.754 6.78175 104.224 6.43121C104.693 6.08066 105.163 5.84697 105.632 5.84697C106.219 5.84697 106.688 5.96382 107.04 6.31437C107.393 6.66491 107.627 7.24914 107.627 7.71654V27.1132C107.627 27.6974 107.393 28.1649 107.04 28.5154C106.688 28.9828 106.219 29.0996 105.632 29.0996V29.0996ZM125.232 24.5426C125.585 24.5426 125.936 24.6595 126.171 25.01C126.407 25.3605 126.524 25.711 126.524 26.1784C126.524 26.8796 126.054 27.5806 125.35 27.8143C124.528 28.2818 123.707 28.6323 122.885 28.7491C122.064 28.9828 121.125 29.0996 120.186 29.0996C117.956 29.2165 115.725 28.3986 114.082 26.8796C112.557 25.2437 111.735 23.0236 111.853 20.8034C111.853 19.2844 112.205 17.8823 112.792 16.4801C113.378 15.3116 114.317 14.26 115.491 13.5589C116.664 12.8579 118.074 12.5073 119.482 12.5073C120.772 12.5073 122.064 12.8579 123.238 13.4421C124.293 14.0263 125.115 14.9611 125.702 16.1296C126.289 17.4148 126.642 18.817 126.642 20.2192C126.642 21.1541 126.171 21.6214 125.35 21.6214H115.725C115.725 22.7898 116.195 23.9583 117.017 24.8932C117.839 25.5942 119.013 26.0616 120.186 25.9447C120.772 25.9447 121.477 25.8279 122.064 25.711C122.65 25.4774 123.238 25.2437 123.824 25.01C124.177 24.7763 124.646 24.6595 125.232 24.5426V24.5426ZM119.599 15.5453C118.66 15.5453 117.603 15.8959 116.899 16.597C116.195 17.4148 115.725 18.4665 115.725 19.635H123.12C123.12 18.5834 122.768 17.5317 122.181 16.597C121.477 15.779 120.538 15.4284 119.599 15.5453Z" fill="#161617"></path></svg>