<svg xmlns="http://www.w3.org/2000/svg" width="99" height="15" viewBox="0 0 99 15" fill="none"><path d="M7.08203 1.24219L5.30469 4.87891L1.28516 5.45312C0.574219 5.5625 0.300781 6.4375 0.820312 6.95703L3.69141 9.77344L3.00781 13.7383C2.89844 14.4492 3.66406 14.9961 4.29297 14.668L7.875 12.7812L11.4297 14.668C12.0586 14.9961 12.8242 14.4492 12.7148 13.7383L12.0312 9.77344L14.9023 6.95703C15.4219 6.4375 15.1484 5.5625 14.4375 5.45312L10.4453 4.87891L8.64062 1.24219C8.33984 0.613281 7.41016 0.585938 7.08203 1.24219ZM27.872 1.24219L26.0947 4.87891L22.0752 5.45312C21.3642 5.5625 21.0908 6.4375 21.6103 6.95703L24.4814 9.77344L23.7978 13.7383C23.6884 14.4492 24.4541 14.9961 25.083 14.668L28.665 12.7812L32.2197 14.668C32.8486 14.9961 33.6142 14.4492 33.5048 13.7383L32.8213 9.77344L35.6923 6.95703C36.2119 6.4375 35.9384 5.5625 35.2275 5.45312L31.2353 4.87891L29.4306 1.24219C29.1298 0.613281 28.2002 0.585938 27.872 1.24219ZM48.662 1.24219L46.8847 4.87891L42.8652 5.45312C42.1542 5.5625 41.8808 6.4375 42.4003 6.95703L45.2714 9.77344L44.5878 13.7383C44.4784 14.4492 45.2441 14.9961 45.873 14.668L49.455 12.7812L53.0097 14.668C53.6386 14.9961 54.4042 14.4492 54.2948 13.7383L53.6113 9.77344L56.4823 6.95703C57.0019 6.4375 56.7284 5.5625 56.0175 5.45312L52.0253 4.87891L50.2206 1.24219C49.9198 0.613281 48.9902 0.585938 48.662 1.24219ZM69.452 1.24219L67.6747 4.87891L63.6552 5.45312C62.9442 5.5625 62.6708 6.4375 63.1903 6.95703L66.0614 9.77344L65.3778 13.7383C65.2684 14.4492 66.0341 14.9961 66.663 14.668L70.245 12.7812L73.7997 14.668C74.4286 14.9961 75.1942 14.4492 75.0848 13.7383L74.4012 9.77344L77.2723 6.95703C77.7919 6.4375 77.5184 5.5625 76.8075 5.45312L72.8153 4.87891L71.0106 1.24219C70.7098 0.613281 69.7802 0.585938 69.452 1.24219ZM90.242 1.24219L88.4647 4.87891L84.4452 5.45312C83.7342 5.5625 83.4608 6.4375 83.9803 6.95703L86.8514 9.77344L86.1678 13.7383C86.0584 14.4492 86.8241 14.9961 87.453 14.668L91.035 12.7812L94.5897 14.668C95.2186 14.9961 95.9842 14.4492 95.8748 13.7383L95.1913 9.77344L98.0623 6.95703C98.5819 6.4375 98.3084 5.5625 97.5975 5.45312L93.6053 4.87891L91.8006 1.24219C91.4998 0.613281 90.5702 0.585938 90.242 1.24219Z" fill="#F9B50B"></path></svg>