<svg xmlns="http://www.w3.org/2000/svg" width="163" height="50" viewBox="0 0 163 50" fill="none"><path d="M0 7.89231C0 3.53351 3.53351 0 7.89231 0H154.608C158.966 0 162.5 3.53351 162.5 7.89231V42.1077C162.5 46.4665 158.966 50 154.608 50H7.8923C3.5335 50 0 46.4665 0 42.1077V7.89231Z" fill="black"></path><path fill-rule="evenodd" clip-rule="evenodd" d="M7.91066 8.61961C7.52788 9.02475 7.30295 9.65219 7.30295 10.4664V39.5338C7.30295 40.348 7.52788 40.9754 7.91066 41.3806L8.00799 41.4753L24.2911 25.1921V24.808L8.00799 8.5249L7.91066 8.61961Z" fill="#00D7FE"></path><mask id="mask0_47_554" style="mask-type:alpha" maskUnits="userSpaceOnUse" x="24" y="19" width="14" height="12"><path d="M29.7172 30.622L24.2912 25.1921V24.808L29.7198 19.3794L36.273 23.1019C38.1093 24.1463 38.1093 25.8537 36.273 26.8968L29.8421 30.551L29.7172 30.622Z" fill="white"></path></mask><g mask="url(#mask0_47_554)"><path fill-rule="evenodd" clip-rule="evenodd" d="M29.7172 30.622L24.2912 25.1921V24.808L29.7198 19.3794L36.273 23.1019C38.1093 24.1463 38.1093 25.8537 36.273 26.8968L29.8421 30.551L29.7172 30.622Z" fill="url(#paint0_linear_47_554)"></path></g><mask id="mask1_47_554" style="mask-type:alpha" maskUnits="userSpaceOnUse" x="7" y="25" width="23" height="17"><path d="M29.8421 30.5509L24.2912 25L7.91068 41.3805C8.51707 42.0211 9.51676 42.1 10.6427 41.4607L29.8421 30.5509Z" fill="white"></path></mask><g mask="url(#mask1_47_554)"><path fill-rule="evenodd" clip-rule="evenodd" d="M29.8421 30.5509L24.2912 25L7.91068 41.3805C8.51707 42.0211 9.51676 42.1 10.6427 41.4607L29.8421 30.5509Z" fill="url(#paint1_linear_47_554)"></path></g><mask id="mask2_47_554" style="mask-type:alpha" maskUnits="userSpaceOnUse" x="7" y="8" width="23" height="17"><path d="M29.8421 19.4491L10.6427 8.53934C9.51676 7.90006 8.51707 7.97899 7.91068 8.61958L24.2912 25.0001L29.8421 19.4491Z" fill="white"></path></mask><g mask="url(#mask2_47_554)"><path fill-rule="evenodd" clip-rule="evenodd" d="M29.8421 19.4491L10.6427 8.53934C9.51676 7.90006 8.51707 7.97899 7.91068 8.61958L24.2912 25.0001L29.8421 19.4491Z" fill="url(#paint2_linear_47_554)"></path></g><path fill-rule="evenodd" clip-rule="evenodd" d="M132.161 39.4073H134.615V22.9637H132.161V39.4073ZM154.268 28.8869L151.455 36.0163H151.37L148.45 28.8869H145.806L150.185 38.8509L147.689 44.3939H150.25L156.998 28.8869H154.268ZM140.349 37.5395C139.544 37.5395 138.423 37.1383 138.423 36.1438C138.423 34.8745 139.82 34.3878 141.025 34.3878C142.105 34.3878 142.611 34.6206 143.268 34.9376C143.077 36.4609 141.766 37.5395 140.349 37.5395ZM140.645 28.5278C138.868 28.5278 137.027 29.3104 136.266 31.0454L138.444 31.9543C138.91 31.0454 139.777 30.7481 140.687 30.7481C141.956 30.7481 143.247 31.5097 143.268 32.8646V33.033C142.823 32.7791 141.872 32.3989 140.708 32.3989C138.36 32.3989 135.969 33.6893 135.969 36.1004C135.969 38.3011 137.894 39.7191 140.052 39.7191C141.702 39.7191 142.611 38.9785 143.183 38.1103H143.268V39.3797H145.637V33.0764C145.637 30.1562 143.458 28.5278 140.645 28.5278ZM125.476 30.8889H121.985V25.2525H125.476C127.311 25.2525 128.353 26.7717 128.353 28.07C128.353 29.3446 127.311 30.8889 125.476 30.8889ZM125.413 22.9637H119.532V39.4073H121.985V33.1777H125.413C128.133 33.1777 130.807 31.2072 130.807 28.07C130.807 24.9328 128.133 22.9637 125.413 22.9637ZM93.3423 37.5421C91.6467 37.5421 90.2274 36.1228 90.2274 34.1734C90.2274 32.203 91.6467 30.7613 93.3423 30.7613C95.0167 30.7613 96.3295 32.203 96.3295 34.1734C96.3295 36.1228 95.0167 37.5421 93.3423 37.5421ZM96.1598 29.8076H96.0756C95.5245 29.1513 94.4656 28.558 93.1305 28.558C90.3327 28.558 87.769 31.0152 87.769 34.1734C87.769 37.3093 90.3327 39.7467 93.1305 39.7467C94.4656 39.7467 95.5245 39.1534 96.0756 38.4747H96.1598V39.2797C96.1598 41.4212 95.0167 42.5656 93.1726 42.5656C91.6678 42.5656 90.7352 41.4843 90.3537 40.5727L88.2136 41.4633C88.8279 42.947 90.4602 44.7688 93.1726 44.7688C96.0546 44.7688 98.492 43.0733 98.492 38.9417V28.8961H96.1598V29.8076ZM100.188 39.4073H102.646V22.9624H100.188V39.4073ZM106.269 33.9827C106.205 31.8215 107.943 30.7192 109.193 30.7192C110.169 30.7192 110.995 31.2059 111.27 31.9057L106.269 33.9827ZM113.898 32.1175C113.432 30.8678 112.012 28.558 109.108 28.558C106.226 28.558 103.832 30.8244 103.832 34.1524C103.832 37.2882 106.205 39.7467 109.383 39.7467C111.948 39.7467 113.432 38.1787 114.046 37.2672L112.139 35.9952C111.504 36.9278 110.634 37.5421 109.383 37.5421C108.134 37.5421 107.243 36.9699 106.671 35.8479L114.152 32.7541L113.898 32.1175ZM54.3003 30.2746V32.6476H59.9788C59.8092 33.9827 59.3646 34.9574 58.6871 35.6361C57.8598 36.4622 56.5667 37.3724 54.3003 37.3724C50.804 37.3724 48.0693 34.5549 48.0693 31.0586C48.0693 27.561 50.804 24.7434 54.3003 24.7434C56.1866 24.7434 57.5638 25.4853 58.5806 26.4389L60.2551 24.7645C58.8345 23.4083 56.9495 22.3691 54.3003 22.3691C49.511 22.3691 45.4846 26.2693 45.4846 31.0586C45.4846 35.8479 49.511 39.7467 54.3003 39.7467C56.8851 39.7467 58.8345 38.8996 60.3603 37.3093C61.9282 35.7413 62.4162 33.5381 62.4162 31.757C62.4162 31.2059 62.3742 30.6982 62.2887 30.2746H54.3003ZM68.8735 37.5421C67.1779 37.5421 65.7152 36.1438 65.7152 34.1524C65.7152 32.1385 67.1779 30.7613 68.8735 30.7613C70.5677 30.7613 72.0304 32.1385 72.0304 34.1524C72.0304 36.1438 70.5677 37.5421 68.8735 37.5421ZM68.8735 28.558C65.7784 28.558 63.2568 30.9099 63.2568 34.1524C63.2568 37.3724 65.7784 39.7467 68.8735 39.7467C71.9673 39.7467 74.4888 37.3724 74.4888 34.1524C74.4888 30.9099 71.9673 28.558 68.8735 28.558ZM81.1236 37.5421C79.4281 37.5421 77.9654 36.1438 77.9654 34.1524C77.9654 32.1385 79.4281 30.7613 81.1236 30.7613C82.8192 30.7613 84.2806 32.1385 84.2806 34.1524C84.2806 36.1438 82.8192 37.5421 81.1236 37.5421ZM81.1236 28.558C78.0299 28.558 75.5083 30.9099 75.5083 34.1524C75.5083 37.3724 78.0299 39.7467 81.1236 39.7467C84.2174 39.7467 86.739 37.3724 86.739 34.1524C86.739 30.9099 84.2174 28.558 81.1236 28.558Z" fill="#FFFFFE"></path><path d="M52.6813 12.0782V15.1592C52.5773 15.3133 52.4116 15.4867 52.1842 15.6794C51.9569 15.8683 51.6428 16.034 51.242 16.1766C50.8451 16.3153 50.3325 16.3847 49.7044 16.3847C49.1918 16.3847 48.7198 16.296 48.2882 16.1188C47.8604 15.9376 47.4885 15.6756 47.1725 15.3326C46.8604 14.9858 46.6176 14.5657 46.4442 14.0725C46.2746 13.5753 46.1898 13.0127 46.1898 12.3845V11.7314C46.1898 11.1032 46.2631 10.5425 46.4095 10.0492C46.5598 9.55596 46.7795 9.13783 47.0685 8.79486C47.3575 8.44803 47.712 8.18598 48.1321 8.00871C48.5521 7.82759 49.0338 7.73703 49.5772 7.73703C50.2208 7.73703 50.7584 7.84878 51.19 8.0723C51.6254 8.29196 51.9646 8.59639 52.2073 8.98561C52.454 9.37484 52.612 9.81801 52.6813 10.3151H51.5657C51.5156 10.0107 51.4154 9.73323 51.2651 9.48274C51.1187 9.23225 50.9087 9.03186 50.635 8.88157C50.3614 8.72742 50.0088 8.65035 49.5772 8.65035C49.188 8.65035 48.8508 8.72164 48.5656 8.86422C48.2805 9.00681 48.0454 9.21105 47.8604 9.47696C47.6754 9.74286 47.5367 10.0646 47.4442 10.4423C47.3556 10.82 47.3113 11.2458 47.3113 11.7198V12.3845C47.3113 12.8701 47.3671 13.3036 47.4789 13.6852C47.5945 14.0667 47.7583 14.3923 47.9702 14.6621C48.1822 14.928 48.4346 15.1303 48.7275 15.269C49.0242 15.4077 49.3518 15.4771 49.7102 15.4771C50.1071 15.4771 50.4289 15.4444 50.6755 15.3788C50.9221 15.3095 51.1148 15.2286 51.2536 15.1361C51.3923 15.0397 51.4983 14.9492 51.5715 14.8644V12.9799H49.6235V12.0782H52.6813ZM59.5229 15.3615V16.269H55.0661V15.3615H59.5229ZM55.2916 7.85264V16.269H54.1759V7.85264H55.2916ZM58.9333 11.4712V12.3788H55.0661V11.4712H58.9333ZM59.4651 7.85264V8.76596H55.0661V7.85264H59.4651ZM63.7748 7.85264V16.269H62.6765V7.85264H63.7748ZM66.4801 7.85264V8.76596H59.977V7.85264H66.4801ZM70.9202 7.85264V16.269H69.8046V7.85264H70.9202ZM75.5305 7.85264V16.269H74.4322V7.85264H75.5305ZM78.2358 7.85264V8.76596H71.7327V7.85264H78.2358ZM87.9593 11.7949V12.3267C87.9593 12.9587 87.8803 13.5252 87.7223 14.0262C87.5643 14.5272 87.3369 14.953 87.0402 15.3037C86.7434 15.6544 86.387 15.9222 85.9708 16.1072C85.5584 16.2922 85.096 16.3847 84.5834 16.3847C84.0863 16.3847 83.6297 16.2922 83.2135 16.1072C82.8011 15.9222 82.4427 15.6544 82.1383 15.3037C81.8377 14.953 81.6046 14.5272 81.4389 14.0262C81.2731 13.5252 81.1903 12.9587 81.1903 12.3267V11.7949C81.1903 11.1629 81.2712 10.5984 81.4331 10.1013C81.5988 9.60027 81.8319 9.17444 82.1325 8.82376C82.4331 8.46922 82.7896 8.19947 83.2019 8.01449C83.6181 7.82952 84.0748 7.73703 84.5719 7.73703C85.0844 7.73703 85.5469 7.82952 85.9592 8.01449C86.3754 8.19947 86.7319 8.46922 87.0286 8.82376C87.3292 9.17444 87.5585 9.60027 87.7165 10.1013C87.8783 10.5984 87.9593 11.1629 87.9593 11.7949ZM86.8552 12.3267V11.7834C86.8552 11.2824 86.8032 10.8392 86.6991 10.4539C86.5989 10.0685 86.4505 9.74479 86.254 9.48274C86.0575 9.22069 85.8166 9.02222 85.5314 8.88735C85.2501 8.75247 84.9303 8.68503 84.5719 8.68503C84.2251 8.68503 83.911 8.75247 83.6297 8.88735C83.3522 9.02222 83.1133 9.22069 82.9129 9.48274C82.7163 9.74479 82.5641 10.0685 82.4562 10.4539C82.3483 10.8392 82.2944 11.2824 82.2944 11.7834V12.3267C82.2944 12.8316 82.3483 13.2786 82.4562 13.6678C82.5641 14.0532 82.7183 14.3788 82.9187 14.6447C83.1229 14.9068 83.3638 15.1052 83.6412 15.2401C83.9225 15.375 84.2366 15.4424 84.5834 15.4424C84.9457 15.4424 85.2675 15.375 85.5488 15.2401C85.8301 15.1052 86.0671 14.9068 86.2598 14.6447C86.4563 14.3788 86.6047 14.0532 86.7049 13.6678C86.8051 13.2786 86.8552 12.8316 86.8552 12.3267ZM95.7488 7.85264V16.269H94.6274L90.3903 9.77754V16.269H89.2747V7.85264H90.3903L94.6448 14.3615V7.85264H95.7488Z" fill="white"></path><path d="M7.89231 1H154.608V-1H7.89231V1ZM161.5 7.89231V42.1077H163.5V7.89231H161.5ZM154.608 49H7.8923V51H154.608V49ZM1 42.1077V7.89231H-1V42.1077H1ZM7.8923 49C4.08579 49 1 45.9142 1 42.1077H-1C-1 47.0188 2.98122 51 7.8923 51V49ZM161.5 42.1077C161.5 45.9142 158.414 49 154.608 49V51C159.519 51 163.5 47.0188 163.5 42.1077H161.5ZM154.608 1C158.414 1 161.5 4.08579 161.5 7.89231H163.5C163.5 2.98122 159.519 -1 154.608 -1V1ZM7.89231 -1C2.98122 -1 -1 2.98122 -1 7.89231H1C1 4.08579 4.08579 1 7.89231 1V-1Z" fill="white" fill-opacity="0.58"></path><defs><linearGradient id="paint0_linear_47_554" x1="35.0784" y1="25.0004" x2="24.2912" y2="25.0004" gradientUnits="userSpaceOnUse"><stop stop-color="#FFBC00"></stop><stop offset="1" stop-color="#FFDA03"></stop></linearGradient><linearGradient id="paint1_linear_47_554" x1="26.8254" y1="30.2231" x2="12.7462" y2="41.8282" gradientUnits="userSpaceOnUse"><stop stop-color="#E22652"></stop><stop offset="1" stop-color="#FF3A44"></stop></linearGradient><linearGradient id="paint2_linear_47_554" x1="10.3911" y1="10.5916" x2="19.7779" y2="18.8455" gradientUnits="userSpaceOnUse"><stop stop-color="#0ED574"></stop><stop offset="1" stop-color="#07F076"></stop></linearGradient></defs></svg>