<svg xmlns="http://www.w3.org/2000/svg" width="163" height="50" viewBox="0 0 163 50" fill="none"><g clip-path="url(#clip0_47_582)"><path d="M0 7.8C0 3.49218 3.49218 0 7.8 0H154.7C159.008 0 162.5 3.49218 162.5 7.8V42.2C162.5 46.5078 159.008 50 154.7 50H7.80001C3.49218 50 0 46.5078 0 42.2V7.8Z" fill="black"></path><path d="M154.375 1.25H8.125C3.98286 1.25 0.625 4.60786 0.625 8.75V42.5C0.625 46.6421 3.98286 50 8.125 50H154.375C158.517 50 161.875 46.6421 161.875 42.5V8.75C161.875 4.60786 158.517 1.25 154.375 1.25Z" fill="black" stroke="#A6A6A6" stroke-width="1.3"></path><path fill-rule="evenodd" clip-rule="evenodd" d="M29.9995 25.7543C30.028 23.5489 31.1842 21.5118 33.0631 20.3566C31.8724 18.6561 29.9495 17.6166 27.8746 17.5516C25.6915 17.3225 23.5752 18.8579 22.4628 18.8579C21.3288 18.8579 19.6161 17.5744 17.7717 17.6123C15.3451 17.6907 13.1376 19.037 11.9569 21.1586C9.44274 25.5115 11.3181 31.9089 13.7265 35.4275C14.9315 37.1504 16.3397 39.075 18.1824 39.0068C19.9856 38.932 20.6591 37.8569 22.8356 37.8569C24.992 37.8569 25.6239 39.0068 27.5039 38.9634C29.4388 38.932 30.6579 37.2328 31.8206 35.4935C32.6864 34.2658 33.3526 32.909 33.7946 31.4732C31.4965 30.5012 30.0022 28.2495 29.9995 25.7543Z" fill="white"></path><path fill-rule="evenodd" clip-rule="evenodd" d="M26.4484 15.238C27.5034 13.9715 28.0232 12.3437 27.8973 10.7002C26.2855 10.8695 24.7967 11.6398 23.7274 12.8577C22.6716 14.0593 22.1367 15.6313 22.2406 17.2275C23.874 17.2443 25.4249 16.511 26.4484 15.238Z" fill="white"></path><path d="M54.0241 17.2139V10.7321H55.8961C56.4109 10.7321 56.8438 10.8062 57.1948 10.9544C57.5458 11.0948 57.8305 11.3054 58.0489 11.5862C58.2751 11.8592 58.435 12.1946 58.5286 12.5924C58.63 12.9824 58.6807 13.427 58.6807 13.9262C58.6807 14.441 58.6261 14.8817 58.5169 15.2483C58.4155 15.6071 58.2829 15.9074 58.1191 16.1492C57.9553 16.391 57.7681 16.5821 57.5575 16.7225C57.3547 16.8629 57.148 16.9721 56.9374 17.0501C56.7268 17.1203 56.5279 17.1671 56.3407 17.1905C56.1535 17.2061 55.9975 17.2139 55.8727 17.2139H54.0241ZM52.9126 9.7961V18.1499H55.7791C56.4733 18.1499 57.0739 18.0524 57.5809 17.8574C58.0879 17.6624 58.5052 17.3816 58.8328 17.015C59.1604 16.6406 59.4022 16.1843 59.5582 15.6461C59.7142 15.1001 59.7922 14.4761 59.7922 13.7741C59.7922 12.4325 59.4451 11.4341 58.7509 10.7789C58.0567 10.1237 57.0661 9.7961 55.7791 9.7961H52.9126ZM61.9462 15.1313C61.9462 14.7647 61.993 14.441 62.0866 14.1602C62.188 13.8716 62.3245 13.6298 62.4961 13.4348C62.6677 13.2398 62.8666 13.0916 63.0928 12.9902C63.3268 12.8888 63.5725 12.8381 63.8299 12.8381C64.0873 12.8381 64.3291 12.8888 64.5553 12.9902C64.7893 13.0916 64.9921 13.2398 65.1637 13.4348C65.3353 13.6298 65.4679 13.8716 65.5615 14.1602C65.6629 14.441 65.7136 14.7647 65.7136 15.1313C65.7136 15.4979 65.6629 15.8255 65.5615 16.1141C65.4679 16.3949 65.3353 16.6328 65.1637 16.8278C64.9921 17.015 64.7893 17.1593 64.5553 17.2607C64.3291 17.3621 64.0873 17.4128 63.8299 17.4128C63.5725 17.4128 63.3268 17.3621 63.0928 17.2607C62.8666 17.1593 62.6677 17.015 62.4961 16.8278C62.3245 16.6328 62.188 16.3949 62.0866 16.1141C61.993 15.8255 61.9462 15.4979 61.9462 15.1313ZM60.8932 15.1313C60.8932 15.5759 60.9556 15.9893 61.0804 16.3715C61.2052 16.7537 61.3924 17.0891 61.642 17.3777C61.8916 17.6585 62.1997 17.8808 62.5663 18.0446C62.9329 18.2006 63.3541 18.2786 63.8299 18.2786C64.3135 18.2786 64.7347 18.2006 65.0935 18.0446C65.4601 17.8808 65.7682 17.6585 66.0178 17.3777C66.2674 17.0891 66.4546 16.7537 66.5794 16.3715C66.7042 15.9893 66.7666 15.5759 66.7666 15.1313C66.7666 14.6867 66.7042 14.2733 66.5794 13.8911C66.4546 13.5011 66.2674 13.1657 66.0178 12.8849C65.7682 12.5963 65.4601 12.3701 65.0935 12.2063C64.7347 12.0425 64.3135 11.9606 63.8299 11.9606C63.3541 11.9606 62.9329 12.0425 62.5663 12.2063C62.1997 12.3701 61.8916 12.5963 61.642 12.8849C61.3924 13.1657 61.2052 13.5011 61.0804 13.8911C60.9556 14.2733 60.8932 14.6867 60.8932 15.1313ZM74.1635 18.1499L76.0941 12.101H75.0644L73.7072 17.0501H73.6838L72.4202 12.101H71.3321L70.1153 17.0501H70.0919L68.723 12.101H67.6232L69.5654 18.1499H70.6418L71.8586 13.3412H71.882L73.1105 18.1499H74.1635ZM77.2736 12.101V18.1499H78.2681V14.7335C78.2681 14.4605 78.3032 14.2109 78.3734 13.9847C78.4514 13.7507 78.5645 13.5479 78.7127 13.3763C78.8609 13.2047 79.0442 13.0721 79.2626 12.9785C79.4888 12.8849 79.754 12.8381 80.0582 12.8381C80.4404 12.8381 80.7407 12.9473 80.9591 13.1657C81.1775 13.3841 81.2867 13.6805 81.2867 14.0549V18.1499H82.2812V14.1719C82.2812 13.8443 82.2461 13.5479 82.1759 13.2827C82.1135 13.0097 82.0004 12.7757 81.8366 12.5807C81.6728 12.3857 81.4583 12.2336 81.1931 12.1244C80.9279 12.0152 80.5964 11.9606 80.1986 11.9606C79.3016 11.9606 78.6464 12.3272 78.233 13.0604H78.2096V12.101H77.2736ZM84.0673 9.7961V18.1499H85.0618V9.7961H84.0673ZM87.5619 15.1313C87.5619 14.7647 87.6087 14.441 87.7023 14.1602C87.8037 13.8716 87.9402 13.6298 88.1118 13.4348C88.2834 13.2398 88.4823 13.0916 88.7085 12.9902C88.9425 12.8888 89.1882 12.8381 89.4456 12.8381C89.703 12.8381 89.9448 12.8888 90.171 12.9902C90.405 13.0916 90.6078 13.2398 90.7794 13.4348C90.951 13.6298 91.0836 13.8716 91.1772 14.1602C91.2786 14.441 91.3293 14.7647 91.3293 15.1313C91.3293 15.4979 91.2786 15.8255 91.1772 16.1141C91.0836 16.3949 90.951 16.6328 90.7794 16.8278C90.6078 17.015 90.405 17.1593 90.171 17.2607C89.9448 17.3621 89.703 17.4128 89.4456 17.4128C89.1882 17.4128 88.9425 17.3621 88.7085 17.2607C88.4823 17.1593 88.2834 17.015 88.1118 16.8278C87.9402 16.6328 87.8037 16.3949 87.7023 16.1141C87.6087 15.8255 87.5619 15.4979 87.5619 15.1313ZM86.5089 15.1313C86.5089 15.5759 86.5713 15.9893 86.6961 16.3715C86.8209 16.7537 87.0081 17.0891 87.2577 17.3777C87.5073 17.6585 87.8154 17.8808 88.182 18.0446C88.5486 18.2006 88.9698 18.2786 89.4456 18.2786C89.9292 18.2786 90.3504 18.2006 90.7092 18.0446C91.0758 17.8808 91.3839 17.6585 91.6335 17.3777C91.8831 17.0891 92.0703 16.7537 92.1951 16.3715C92.3199 15.9893 92.3823 15.5759 92.3823 15.1313C92.3823 14.6867 92.3199 14.2733 92.1951 13.8911C92.0703 13.5011 91.8831 13.1657 91.6335 12.8849C91.3839 12.5963 91.0758 12.3701 90.7092 12.2063C90.3504 12.0425 89.9292 11.9606 89.4456 11.9606C88.9698 11.9606 88.5486 12.0425 88.182 12.2063C87.8154 12.3701 87.5073 12.5963 87.2577 12.8849C87.0081 13.1657 86.8209 13.5011 86.6961 13.8911C86.5713 14.2733 86.5089 14.6867 86.5089 15.1313ZM99.1474 18.1265C98.9758 18.2279 98.7379 18.2786 98.4337 18.2786C98.1763 18.2786 97.9696 18.2084 97.8136 18.068C97.6654 17.9198 97.5913 17.6819 97.5913 17.3543C97.3183 17.6819 96.9985 17.9198 96.6319 18.068C96.2731 18.2084 95.8831 18.2786 95.4619 18.2786C95.1889 18.2786 94.9276 18.2474 94.678 18.185C94.4362 18.1226 94.2256 18.0251 94.0462 17.8925C93.8668 17.7599 93.7225 17.5883 93.6133 17.3777C93.5119 17.1593 93.4612 16.898 93.4612 16.5938C93.4612 16.2506 93.5197 15.9698 93.6367 15.7514C93.7537 15.533 93.9058 15.3575 94.093 15.2249C94.288 15.0845 94.5064 14.9792 94.7482 14.909C94.9978 14.8388 95.2513 14.7803 95.5087 14.7335C95.7817 14.6789 96.0391 14.6399 96.2809 14.6165C96.5305 14.5853 96.7489 14.5463 96.9361 14.4995C97.1233 14.4449 97.2715 14.3708 97.3807 14.2772C97.4899 14.1758 97.5445 14.0315 97.5445 13.8443C97.5445 13.6259 97.5016 13.4504 97.4158 13.3178C97.3378 13.1852 97.2325 13.0838 97.0999 13.0136C96.9751 12.9434 96.8308 12.8966 96.667 12.8732C96.511 12.8498 96.355 12.8381 96.199 12.8381C95.7778 12.8381 95.4268 12.92 95.146 13.0838C94.8652 13.2398 94.7131 13.5401 94.6897 13.9847H93.6952C93.7108 13.6103 93.7888 13.2944 93.9292 13.037C94.0696 12.7796 94.2568 12.5729 94.4908 12.4169C94.7248 12.2531 94.99 12.1361 95.2864 12.0659C95.5906 11.9957 95.9143 11.9606 96.2575 11.9606C96.5305 11.9606 96.7996 11.9801 97.0648 12.0191C97.3378 12.0581 97.5835 12.14 97.8019 12.2648C98.0203 12.3818 98.1958 12.5495 98.3284 12.7679C98.461 12.9863 98.5273 13.271 98.5273 13.622V16.7342C98.5273 16.9682 98.539 17.1398 98.5624 17.249C98.5936 17.3582 98.6872 17.4128 98.8432 17.4128C98.929 17.4128 99.0304 17.3933 99.1474 17.3543V18.1265ZM97.5328 15.026C97.408 15.1196 97.2442 15.1898 97.0414 15.2366C96.8386 15.2756 96.6241 15.3107 96.3979 15.3419C96.1795 15.3653 95.9572 15.3965 95.731 15.4355C95.5048 15.4667 95.302 15.5213 95.1226 15.5993C94.9432 15.6773 94.795 15.7904 94.678 15.9386C94.5688 16.079 94.5142 16.274 94.5142 16.5236C94.5142 16.6874 94.5454 16.8278 94.6078 16.9448C94.678 17.054 94.7638 17.1437 94.8652 17.2139C94.9744 17.2841 95.0992 17.3348 95.2396 17.366C95.38 17.3972 95.5282 17.4128 95.6842 17.4128C96.0118 17.4128 96.2926 17.3699 96.5266 17.2841C96.7606 17.1905 96.9517 17.0774 97.0999 16.9448C97.2481 16.8044 97.3573 16.6562 97.4275 16.5002C97.4977 16.3364 97.5328 16.1843 97.5328 16.0439V15.026ZM101.032 15.1781C101.032 14.8817 101.064 14.5931 101.126 14.3123C101.188 14.0315 101.29 13.7819 101.43 13.5635C101.571 13.3451 101.758 13.1696 101.992 13.037C102.226 12.9044 102.511 12.8381 102.846 12.8381C103.189 12.8381 103.482 12.9044 103.723 13.037C103.965 13.1618 104.16 13.3295 104.308 13.5401C104.464 13.7507 104.578 13.9964 104.648 14.2772C104.718 14.5502 104.753 14.8349 104.753 15.1313C104.753 15.4121 104.718 15.689 104.648 15.962C104.585 16.235 104.48 16.4807 104.332 16.6991C104.184 16.9097 103.993 17.0813 103.759 17.2139C103.525 17.3465 103.24 17.4128 102.904 17.4128C102.585 17.4128 102.304 17.3504 102.062 17.2256C101.828 17.1008 101.633 16.9331 101.477 16.7225C101.329 16.5119 101.216 16.274 101.138 16.0088C101.068 15.7358 101.032 15.4589 101.032 15.1781ZM105.712 18.1499V9.7961H104.718V12.9083H104.695C104.585 12.7289 104.449 12.5807 104.285 12.4637C104.129 12.3389 103.961 12.2414 103.782 12.1712C103.603 12.0932 103.423 12.0386 103.244 12.0074C103.064 11.9762 102.897 11.9606 102.741 11.9606C102.28 11.9606 101.875 12.0464 101.524 12.218C101.181 12.3818 100.892 12.608 100.658 12.8966C100.432 13.1774 100.26 13.5089 100.143 13.8911C100.034 14.2733 99.9794 14.6789 99.9794 15.1079C99.9794 15.5369 100.038 15.9425 100.155 16.3247C100.272 16.7069 100.444 17.0423 100.67 17.3309C100.904 17.6195 101.192 17.8496 101.536 18.0212C101.887 18.1928 102.296 18.2786 102.764 18.2786C103.185 18.2786 103.571 18.2045 103.922 18.0563C104.273 17.9081 104.531 17.6663 104.695 17.3309H104.718V18.1499H105.712ZM111.692 15.1313C111.692 14.7647 111.739 14.441 111.833 14.1602C111.934 13.8716 112.071 13.6298 112.242 13.4348C112.414 13.2398 112.613 13.0916 112.839 12.9902C113.073 12.8888 113.319 12.8381 113.576 12.8381C113.833 12.8381 114.075 12.8888 114.301 12.9902C114.535 13.0916 114.738 13.2398 114.91 13.4348C115.081 13.6298 115.214 13.8716 115.308 14.1602C115.409 14.441 115.46 14.7647 115.46 15.1313C115.46 15.4979 115.409 15.8255 115.308 16.1141C115.214 16.3949 115.081 16.6328 114.91 16.8278C114.738 17.015 114.535 17.1593 114.301 17.2607C114.075 17.3621 113.833 17.4128 113.576 17.4128C113.319 17.4128 113.073 17.3621 112.839 17.2607C112.613 17.1593 112.414 17.015 112.242 16.8278C112.071 16.6328 111.934 16.3949 111.833 16.1141C111.739 15.8255 111.692 15.4979 111.692 15.1313ZM110.639 15.1313C110.639 15.5759 110.702 15.9893 110.826 16.3715C110.951 16.7537 111.138 17.0891 111.388 17.3777C111.638 17.6585 111.946 17.8808 112.312 18.0446C112.679 18.2006 113.1 18.2786 113.576 18.2786C114.06 18.2786 114.481 18.2006 114.84 18.0446C115.206 17.8808 115.514 17.6585 115.764 17.3777C116.013 17.0891 116.201 16.7537 116.325 16.3715C116.45 15.9893 116.513 15.5759 116.513 15.1313C116.513 14.6867 116.45 14.2733 116.325 13.8911C116.201 13.5011 116.013 13.1657 115.764 12.8849C115.514 12.5963 115.206 12.3701 114.84 12.2063C114.481 12.0425 114.06 11.9606 113.576 11.9606C113.1 11.9606 112.679 12.0425 112.312 12.2063C111.946 12.3701 111.638 12.5963 111.388 12.8849C111.138 13.1657 110.951 13.5011 110.826 13.8911C110.702 14.2733 110.639 14.6867 110.639 15.1313ZM117.919 12.101V18.1499H118.914V14.7335C118.914 14.4605 118.949 14.2109 119.019 13.9847C119.097 13.7507 119.21 13.5479 119.358 13.3763C119.506 13.2047 119.69 13.0721 119.908 12.9785C120.134 12.8849 120.4 12.8381 120.704 12.8381C121.086 12.8381 121.386 12.9473 121.605 13.1657C121.823 13.3841 121.932 13.6805 121.932 14.0549V18.1499H122.927V14.1719C122.927 13.8443 122.892 13.5479 122.821 13.2827C122.759 13.0097 122.646 12.7757 122.482 12.5807C122.318 12.3857 122.104 12.2336 121.839 12.1244C121.573 12.0152 121.242 11.9606 120.844 11.9606C119.947 11.9606 119.292 12.3272 118.879 13.0604H118.855V12.101H117.919ZM129.525 12.101V10.2875H128.531V12.101H127.501V12.9785H128.531V16.8278C128.531 17.1086 128.558 17.3348 128.613 17.5064C128.667 17.678 128.749 17.8106 128.858 17.9042C128.975 17.9978 129.124 18.0641 129.303 18.1031C129.49 18.1343 129.713 18.1499 129.97 18.1499H130.73V17.2724H130.274C130.118 17.2724 129.989 17.2685 129.888 17.2607C129.794 17.2451 129.72 17.2178 129.666 17.1788C129.611 17.1398 129.572 17.0852 129.549 17.015C129.533 16.9448 129.525 16.8512 129.525 16.7342V12.9785H130.73V12.101H129.525ZM132.069 9.7961V18.1499H133.064V14.7335C133.064 14.4605 133.099 14.2109 133.169 13.9847C133.247 13.7507 133.36 13.5479 133.508 13.3763C133.657 13.2047 133.84 13.0721 134.058 12.9785C134.285 12.8849 134.55 12.8381 134.854 12.8381C135.236 12.8381 135.536 12.9473 135.755 13.1657C135.973 13.3841 136.082 13.6805 136.082 14.0549V18.1499H137.077V14.1719C137.077 13.8443 137.042 13.5479 136.972 13.2827C136.909 13.0097 136.796 12.7757 136.632 12.5807C136.469 12.3857 136.254 12.2336 135.989 12.1244C135.724 12.0152 135.392 11.9606 134.994 11.9606C134.815 11.9606 134.628 11.9801 134.433 12.0191C134.246 12.0581 134.062 12.1205 133.883 12.2063C133.711 12.2843 133.555 12.3896 133.415 12.5222C133.274 12.647 133.165 12.803 133.087 12.9902H133.064V9.7961H132.069ZM143.005 14.5463H139.53C139.546 14.3123 139.596 14.0939 139.682 13.8911C139.768 13.6805 139.885 13.4972 140.033 13.3412C140.181 13.1852 140.357 13.0643 140.56 12.9785C140.77 12.8849 141.004 12.8381 141.262 12.8381C141.511 12.8381 141.737 12.8849 141.94 12.9785C142.151 13.0643 142.33 13.1852 142.478 13.3412C142.634 13.4894 142.755 13.6688 142.841 13.8794C142.935 14.09 142.989 14.3123 143.005 14.5463ZM143.964 16.2311H142.981C142.896 16.6289 142.716 16.9253 142.443 17.1203C142.178 17.3153 141.835 17.4128 141.414 17.4128C141.086 17.4128 140.801 17.3582 140.56 17.249C140.318 17.1398 140.119 16.9955 139.963 16.8161C139.807 16.6289 139.694 16.4183 139.624 16.1843C139.553 15.9425 139.522 15.689 139.53 15.4238H144.058C144.073 15.0572 144.038 14.6711 143.953 14.2655C143.875 13.8599 143.726 13.4855 143.508 13.1423C143.297 12.7991 143.013 12.5183 142.654 12.2999C142.303 12.0737 141.858 11.9606 141.32 11.9606C140.907 11.9606 140.524 12.0386 140.173 12.1946C139.83 12.3506 139.53 12.569 139.273 12.8498C139.023 13.1306 138.828 13.4621 138.688 13.8443C138.547 14.2265 138.477 14.6477 138.477 15.1079C138.493 15.5681 138.559 15.9932 138.676 16.3832C138.801 16.7732 138.984 17.1086 139.226 17.3894C139.468 17.6702 139.764 17.8886 140.115 18.0446C140.474 18.2006 140.895 18.2786 141.379 18.2786C142.065 18.2786 142.634 18.107 143.087 17.7638C143.539 17.4206 143.832 16.9097 143.964 16.2311Z" fill="white"></path><path d="M70.4959 27.5699C73.4831 27.5699 75.4521 29.9312 75.4521 33.5786C75.4521 37.2361 73.4945 39.586 70.5403 39.586C69.0133 39.6659 67.575 38.8661 66.8371 37.5268H66.7812V43.3565H64.3653V27.693H66.7038V29.6507H66.7482C67.5189 28.3198 68.9588 27.5203 70.4959 27.5699ZM83.4502 27.5699C86.4374 27.5699 88.4064 29.9312 88.4064 33.5786C88.4064 37.2361 86.4488 39.586 83.4946 39.586C81.9676 39.6659 80.5293 38.8661 79.7914 37.5268H79.7355V43.3565H77.3196V27.693H79.6581V29.6507H79.7025C80.4731 28.3198 81.913 27.5203 83.4502 27.5699ZM100.795 23.0503C104.206 23.0503 106.544 24.9635 106.623 27.7488H104.184C104.038 26.1378 102.706 25.1653 100.76 25.1653C98.814 25.1653 97.4823 26.1492 97.4823 27.5813C97.4823 28.7226 98.3329 29.3942 100.414 29.9083L102.192 30.345C105.504 31.1283 106.881 32.4588 106.881 34.8201C106.881 37.8403 104.475 39.7319 100.649 39.7319C97.0684 39.7319 94.6512 37.8847 94.4951 34.9648L96.9682 34.9649C97.1472 36.5658 98.7024 37.6169 100.828 37.6169C102.864 37.6169 104.329 36.5657 104.329 35.1223C104.329 33.8692 103.445 33.119 101.353 32.6048L99.261 32.1008C96.2966 31.3848 94.9204 29.9984 94.9204 27.7488C94.9204 24.9635 97.3478 23.0503 100.795 23.0503ZM121.211 27.5483C124.624 27.5483 126.795 29.8753 126.795 33.5786C126.795 37.292 124.635 39.6089 121.211 39.6089C117.788 39.6089 115.629 37.292 115.629 33.5786C115.629 29.8754 117.81 27.5483 121.211 27.5483ZM140.775 27.5483C144.031 27.5483 146.079 29.7852 146.079 33.3539V34.1816H137.766V34.3276C137.688 35.2038 137.991 36.0712 138.597 36.709C139.202 37.3469 140.053 37.6937 140.932 37.6614C142.104 37.7712 143.21 37.098 143.65 36.0059L145.944 36.0059C145.619 38.1425 143.538 39.6088 140.876 39.6088C137.452 39.6088 135.327 37.3148 135.327 33.6344C135.327 29.9426 137.464 27.5483 140.775 27.5483ZM112.095 24.9077V27.693H114.333V29.6062H112.095V36.0948C112.095 37.1028 112.543 37.5725 113.527 37.5725C113.792 37.5679 114.058 37.5492 114.321 37.5166V39.4184C113.879 39.501 113.429 39.5385 112.979 39.5301C110.597 39.5301 109.667 38.6351 109.667 36.3525V29.6062H107.956V27.693H109.667V24.9077H112.095ZM57.0363 23.3195L62.8647 39.4629H60.2139L58.7375 35.0995H52.5841L51.1063 39.4629H48.5L54.3284 23.3195H57.0363ZM133.978 27.5699C134.256 27.5689 134.534 27.5991 134.805 27.66V29.9198C134.454 29.8124 134.087 29.7631 133.72 29.7738C133.01 29.745 132.322 30.028 131.838 30.5486C131.354 31.0693 131.122 31.7754 131.202 32.4817V39.4628H128.786V27.693H131.091V29.6963H131.147C131.468 28.4067 132.65 27.5192 133.978 27.5699ZM121.211 29.5389C119.254 29.5389 118.091 31.0497 118.091 33.5786C118.091 36.1291 119.254 37.617 121.211 37.617C123.169 37.617 124.333 36.1291 124.333 33.5786C124.333 31.0383 123.169 29.5389 121.211 29.5389ZM69.8586 29.6291C68.0127 29.6291 66.7711 31.2287 66.7711 33.5786C66.7711 35.9501 68.0127 37.5383 69.8586 37.5383C71.7375 37.5383 72.9689 35.9831 72.9689 33.5786C72.9689 31.1957 71.7375 29.6291 69.8586 29.6291ZM82.8129 29.6291C80.967 29.6291 79.7254 31.2287 79.7254 33.5786C79.7254 35.9501 80.967 37.5383 82.8129 37.5383C84.6918 37.5383 85.9232 35.9831 85.9232 33.5786C85.9232 31.1957 84.6918 29.6291 82.8129 29.6291ZM55.6945 26.0046H55.6272L53.2214 33.086H58.099L55.6945 26.0046ZM140.775 29.5059C139.98 29.5012 139.216 29.8141 138.654 30.375C138.091 30.936 137.775 31.6985 137.777 32.4931H143.662C143.705 31.7058 143.419 30.9358 142.871 30.3688C142.323 29.8017 141.563 29.489 140.775 29.5059Z" fill="white"></path></g><defs><clipPath id="clip0_47_582"><path d="M0 7.8C0 3.49218 3.49218 0 7.8 0H154.7C159.008 0 162.5 3.49218 162.5 7.8V42.2C162.5 46.5078 159.008 50 154.7 50H7.80001C3.49218 50 0 46.5078 0 42.2V7.8Z" fill="white"></path></clipPath></defs></svg>