<svg xmlns="http://www.w3.org/2000/svg" width="33" height="10" viewBox="0 0 33 10" fill="none"><path d="M30.3812 0.142578H28.3336C27.7145 0.142578 27.2383 0.333054 26.9526 0.952102L23.0479 9.85686H25.8098C25.8098 9.85686 26.2859 8.66639 26.3812 8.38067C26.6669 8.38067 29.3812 8.38067 29.7621 8.38067C29.8574 8.71401 30.0955 9.80925 30.0955 9.80925H32.5717L30.3812 0.142578ZM27.1431 6.38067C27.3812 5.80925 28.1907 3.66639 28.1907 3.66639C28.1907 3.71401 28.4288 3.09496 28.524 2.76163L28.7145 3.61877C28.7145 3.61877 29.2383 5.9521 29.3336 6.42829H27.1431V6.38067Z" fill="#F3F3F3"></path><path d="M23.2379 6.66667C23.2379 8.66667 21.4284 10 18.6189 10C17.4284 10 16.2856 9.7619 15.6665 9.47619L16.0475 7.28571L16.3808 7.42857C17.2379 7.80952 17.8094 7.95238 18.857 7.95238C19.6189 7.95238 20.4284 7.66667 20.4284 7C20.4284 6.57143 20.0951 6.28571 19.0475 5.80952C18.0475 5.33333 16.7141 4.57143 16.7141 3.19048C16.7141 1.28571 18.5713 0 21.1903 0C22.1903 0 23.0475 0.190476 23.5713 0.428571L23.1903 2.52381L22.9998 2.33333C22.5236 2.14286 21.9046 1.95238 20.9998 1.95238C19.9998 2 19.5236 2.42857 19.5236 2.80952C19.5236 3.2381 20.0951 3.57143 20.9998 4C22.5236 4.71429 23.2379 5.52381 23.2379 6.66667Z" fill="#F3F3F3"></path><path d="M0 0.238328L0.047619 0.0478516H4.14286C4.71429 0.0478516 5.14286 0.238328 5.28571 0.857375L6.19048 5.14309C5.28571 2.85738 3.19048 1.00023 0 0.238328Z" fill="#F9B50B"></path><path d="M11.9525 0.143322L7.80962 9.80999H5.00009L2.61914 1.71475C4.33343 2.80999 5.762 4.52427 6.28581 5.71475L6.57152 6.71475L9.14295 0.0957031H11.9525V0.143322Z" fill="#F3F3F3"></path><path d="M13.0475 0.0957031H15.6666L13.9999 9.80999H11.3809L13.0475 0.0957031Z" fill="#F3F3F3"></path></svg>